<svg width="32" height="19" viewBox="0 0 32 19" fill="none" xmlns="http://www.w3.org/2000/svg">
<path d="M20.8001 17.4168V1.5835L16.0002 1.97933L11.2002 1.5835V17.4168L16.0002 17.021L20.8001 17.4168Z" fill="#FF5F00"/>
<path d="M12.2336 9.5C12.2336 6.46528 13.7181 3.77361 15.9999 2.03194C14.323 0.765278 12.2061 0 9.89686 0C4.42609 0 0 4.24861 0 9.5C0 14.7514 4.42609 19 9.89686 19C12.2061 19 14.323 18.2347 15.9999 16.9681C13.7181 15.2528 12.2336 12.5347 12.2336 9.5Z" fill="#EB001B"/>
<path d="M31.9999 9.5C31.9999 14.7514 27.5738 19 22.1031 19C19.7938 19 17.677 18.2347 16 16.9681C18.3093 15.2264 19.7663 12.5347 19.7663 9.5C19.7663 6.46528 18.2818 3.77361 16 2.03194C17.677 0.765278 19.7938 0 22.1031 0C27.5738 0 31.9999 4.275 31.9999 9.5Z" fill="#FF9900"/>
</svg>
