<svg width="26" height="20" viewBox="0 0 26 20" fill="none" xmlns="http://www.w3.org/2000/svg">
<g clip-path="url(#clip0_847_198)">
<path d="M12.8839 15L14.567 13.3523L12.3616 11.1932L10.6786 12.8409V13.6364H12.0714V15H12.8839ZM19.2679 4.77273C19.1131 4.62121 18.9535 4.62595 18.7891 4.78693L13.7109 9.75852C13.5465 9.91951 13.5417 10.0758 13.6964 10.2273C13.8512 10.3788 14.0108 10.3741 14.1752 10.2131L19.2533 5.24148C19.4178 5.08049 19.4226 4.92424 19.2679 4.77273ZM20.4286 13.2102V15.9091C20.4286 17.036 20.0199 17.9995 19.2026 18.7997C18.3852 19.5999 17.401 20 16.25 20H4.17857C3.02753 20 2.04334 19.5999 1.226 18.7997C0.408668 17.9995 0 17.036 0 15.9091V4.09091C0 2.96402 0.408668 2.00047 1.226 1.20028C2.04334 0.400095 3.02753 0 4.17857 0H16.25C16.8594 0 17.4252 0.118371 17.9475 0.355114C18.0926 0.421402 18.1797 0.530303 18.2087 0.681818C18.2377 0.842803 18.1942 0.980114 18.0781 1.09375L17.3672 1.78977C17.2318 1.92235 17.077 1.96023 16.9029 1.90341C16.6804 1.84659 16.4628 1.81818 16.25 1.81818H4.17857C3.54018 1.81818 2.99368 2.04072 2.53906 2.4858C2.08445 2.93087 1.85714 3.46591 1.85714 4.09091V15.9091C1.85714 16.5341 2.08445 17.0691 2.53906 17.5142C2.99368 17.9593 3.54018 18.1818 4.17857 18.1818H16.25C16.8884 18.1818 17.4349 17.9593 17.8895 17.5142C18.3441 17.0691 18.5714 16.5341 18.5714 15.9091V14.1193C18.5714 13.9962 18.615 13.892 18.702 13.8068L19.6306 12.8977C19.7757 12.7557 19.9449 12.7225 20.1384 12.7983C20.3318 12.8741 20.4286 13.0114 20.4286 13.2102ZM19.0357 2.72727L23.2143 6.81818L13.4643 16.3636H9.28571V12.2727L19.0357 2.72727ZM25.4777 4.60227L24.1429 5.90909L19.9643 1.81818L21.2991 0.511364C21.5699 0.246212 21.8988 0.113636 22.2857 0.113636C22.6726 0.113636 23.0015 0.246212 23.2723 0.511364L25.4777 2.67045C25.7485 2.93561 25.8839 3.25758 25.8839 3.63636C25.8839 4.01515 25.7485 4.33712 25.4777 4.60227Z" fill="#0075FF"/>
</g>
<defs>
<clipPath id="clip0_847_198">
<rect width="26" height="20" fill="white"/>
</clipPath>
</defs>
</svg>
