<svg width="48" height="49" viewBox="0 0 48 49" fill="none" xmlns="http://www.w3.org/2000/svg">
<path d="M36.08 27.6C35.24 28.42 34.76 29.6 34.88 30.86C35.06 33.02 37.04 34.6 39.2 34.6H43V36.98C43 41.12 39.62 44.5 35.48 44.5H12.52C8.38 44.5 5 41.12 5 36.98V23.52C5 19.38 8.38 16 12.52 16H35.48C39.62 16 43 19.38 43 23.52V26.4H38.96C37.84 26.4 36.82 26.84 36.08 27.6Z" stroke="white" stroke-width="3" stroke-linecap="round" stroke-linejoin="round"/>
<path d="M5 25.3196V16.1797C5 13.7997 6.46 11.6796 8.68 10.8396L24.56 4.83963C27.04 3.89963 29.7 5.73969 29.7 8.39969V15.9997" stroke="white" stroke-width="3" stroke-linecap="round" stroke-linejoin="round"/>
<path d="M45.1176 28.4403V32.5604C45.1176 33.6604 44.2376 34.5603 43.1176 34.6003H39.1976C37.0376 34.6003 35.0576 33.0204 34.8776 30.8604C34.7576 29.6004 35.2376 28.4203 36.0776 27.6003C36.8176 26.8403 37.8376 26.4004 38.9576 26.4004H43.1176C44.2376 26.4404 45.1176 27.3403 45.1176 28.4403Z" stroke="white" stroke-width="3" stroke-linecap="round" stroke-linejoin="round"/>
<path d="M14 24.5H28" stroke="white" stroke-width="3" stroke-linecap="round" stroke-linejoin="round"/>
</svg>
