<svg width="79" height="79" viewBox="0 0 79 79" fill="none" xmlns="http://www.w3.org/2000/svg">
<rect width="79" height="79" rx="27" fill="#2B65EC"/>
<path d="M51.6249 22.2014C51.7046 21.976 51.8101 21.7256 51.6868 21.3846C51.773 21.1407 51.721 20.8395 51.6778 20.5512C51.5615 19.7628 51.34 18.9995 51.1472 18.6619C51.1465 18.6605 51.1599 18.664 51.1592 18.6625C50.9741 18.3411 49.2289 18.8716 49.2289 18.8716C49.2289 18.8716 49.2296 19.0181 49.2241 19.2441C49.2056 19.9483 49.1535 21.4342 49.044 21.7441C48.9031 22.1429 45.9231 25.6504 45.3432 26.6328C45.3282 26.658 45.3151 26.6814 45.3038 26.703C44.9179 27.4224 44.7054 28.0032 44.6153 28.4651C44.6126 28.4727 44.6125 28.4799 44.6109 28.4879C44.4732 29.2158 44.6414 29.6434 44.915 29.8522C45.1968 30.0688 45.589 30.0525 45.8699 29.8922C45.9033 29.8735 45.9093 29.8427 45.9446 29.8186C47.6109 28.7251 51.2798 23.1815 51.6264 22.2007L51.6249 22.2014Z" fill="white"/>
<path d="M51.7337 20.5712C51.6174 19.7828 51.3677 19.0095 51.1749 18.672L49.2269 19.2454C49.2084 19.9495 49.1552 21.435 49.0457 21.745C48.9048 22.1438 45.9238 25.6509 45.3438 26.6333C45.6379 26.2874 45.4893 27.3979 45.6335 27.383C45.8597 27.3605 45.5661 26.3596 45.6923 26.2957C45.802 26.2405 45.9723 26.9761 46.0528 26.8656C46.1643 26.7123 45.8611 26.1871 45.958 25.9714C46.0318 25.8073 49.2612 22.2527 49.3672 22.2048C49.5097 22.1393 49.8686 22.538 49.9946 22.3643C50.071 22.2584 49.3734 22.1216 49.4476 21.9772C49.5218 21.8327 50.15 21.8036 50.1564 21.6718C50.1628 21.5399 49.4504 21.8002 49.4084 21.7086C49.3664 21.6169 49.5736 20.7893 49.6308 20.6791C49.6895 20.5681 51.2737 20.1759 51.7326 20.5708L51.7337 20.5712Z" fill="white"/>
<path d="M51.7339 20.5713C51.5338 20.2372 50.7222 20.2333 50.8915 20.4028C51.3562 20.45 51.5975 21.8957 51.3989 22.2851C49.8157 25.3962 46.0949 30.2656 44.9133 29.853C45.1951 30.0696 45.5477 30.0687 45.8364 29.9244C47.5174 29.0823 51.3687 23.2399 51.7221 22.2396C51.9749 21.5244 51.73 20.8685 51.7324 20.5719L51.7339 20.5713Z" fill="white"/>
<path d="M51.6051 19.2721C51.4655 18.929 51.2074 18.4623 51.1661 18.4343C51.1051 18.3933 49.2499 18.7313 49.1701 18.8054C49.0743 18.8935 48.7931 20.5313 48.8982 20.5891C48.9237 20.603 48.9775 20.6025 49.0533 20.5915C49.6517 20.5055 51.6231 19.7454 51.6883 19.6197C51.7116 19.5743 51.6719 19.4383 51.6047 19.2732L51.6051 19.2721Z" fill="white"/>
<path d="M51.605 19.2721C51.4654 18.9289 51.2073 18.4623 51.166 18.4343C51.105 18.3932 49.2498 18.7312 49.17 18.8054C49.0743 18.8935 48.793 20.5312 48.8981 20.5891C48.9237 20.603 49.0358 20.6134 49.1747 20.5686C48.9301 20.2054 49.2634 19.3967 49.3263 19.291C49.3975 19.1723 50.2469 19.3005 50.5006 19.2171C50.7544 19.1336 51.1258 18.8723 51.1896 18.8851C51.2443 18.8959 51.5054 19.1089 51.6061 19.2724L51.605 19.2721Z" fill="white"/>
<path d="M50.4115 15.8748C50.4903 15.8002 50.5633 15.6419 50.6305 15.4414C50.7426 15.1068 50.5634 14.134 50.5936 13.9106C50.6174 13.7398 50.9156 13.3686 50.9416 13.1571C50.975 12.8934 50.7194 12.413 50.4843 12.4055C50.3939 12.4028 49.9147 12.9344 49.8659 13.0001C49.826 13.0543 49.648 13.3754 49.5999 13.5632C49.5964 13.5729 49.5834 13.572 49.5821 13.5618C49.5681 13.4495 49.5456 13.3099 49.5632 13.2601C49.6134 13.1145 50.204 12.4917 49.9182 12.3761C49.8424 12.3457 49.1439 13.0461 49.1326 13.2127C49.0814 13.9749 49.2227 15.5206 49.2614 15.6525C49.3351 15.9028 50.2799 15.9989 50.4108 15.8733L50.4115 15.8748Z" fill="white"/>
<path d="M49.9347 13.8062C49.9347 13.8062 49.9754 13.7255 50.0307 13.6036C50.0583 13.5426 50.0894 13.4719 50.1239 13.3951C50.1409 13.3573 50.1583 13.3183 50.1768 13.2797C50.1953 13.2412 50.2124 13.2033 50.2347 13.1746C50.2827 13.1148 50.3482 13.0465 50.4034 12.9868C50.4605 12.9253 50.5135 12.8684 50.5588 12.8198C50.6485 12.7211 50.7082 12.6556 50.7082 12.6556C50.7204 12.6416 50.7204 12.6209 50.7069 12.6076C50.6947 12.5972 50.678 12.5962 50.6655 12.604C50.6655 12.604 50.6453 12.6163 50.6136 12.6405C50.583 12.665 50.5369 12.6987 50.486 12.7429C50.435 12.787 50.3745 12.8376 50.3135 12.8965C50.2824 12.9257 50.251 12.9561 50.2198 12.989C50.1887 13.0218 50.158 13.0537 50.1249 13.0956C50.0925 13.139 50.0742 13.1837 50.055 13.2245C50.0368 13.2656 50.0208 13.3075 50.0055 13.3472C49.975 13.4266 49.9522 13.5015 49.9307 13.5658C49.8902 13.6941 49.8701 13.7821 49.8701 13.7821C49.8662 13.8002 49.8767 13.8186 49.8945 13.8236C49.91 13.8279 49.9261 13.8202 49.9326 13.8054L49.9347 13.8062Z" fill="white"/>
<path d="M50.2517 14.0371C50.2517 14.0371 50.261 14.0209 50.2758 13.9895C50.2894 13.9578 50.3109 13.9142 50.3312 13.8604C50.3514 13.8066 50.3758 13.7445 50.4006 13.6777C50.425 13.6119 50.45 13.5379 50.4794 13.4788C50.4846 13.4709 50.4828 13.469 50.4899 13.4593L50.5056 13.4356L50.5366 13.3929C50.5589 13.3642 50.5801 13.3352 50.601 13.3072C50.6442 13.2505 50.6843 13.1989 50.7197 13.1541C50.7893 13.0641 50.834 13.0031 50.834 13.0031C50.8455 12.9876 50.8423 12.9658 50.8269 12.9542C50.8143 12.9449 50.7983 12.9454 50.7865 12.9546C50.7865 12.9546 50.7235 13.0018 50.6399 13.0832C50.5984 13.1246 50.5503 13.171 50.5017 13.2258C50.4776 13.2526 50.4528 13.2816 50.4286 13.3121L50.3917 13.3612L50.3757 13.386C50.3708 13.3929 50.3629 13.4083 50.3577 13.4162C50.3199 13.4955 50.2993 13.5675 50.2785 13.6369C50.2587 13.7068 50.243 13.7719 50.2281 13.8276C50.2011 13.9387 50.1845 14.0133 50.1845 14.0133C50.1805 14.0314 50.1922 14.0502 50.2103 14.0541C50.2251 14.057 50.2398 14.0499 50.2476 14.0381L50.2517 14.0371Z" fill="white"/>
<path d="M51.0175 18.4882C50.8047 17.4414 50.4789 16.4559 50.4112 15.8748C50.3514 15.3612 49.2292 15.3633 49.2618 15.654C49.346 16.4091 49.4083 17.6989 49.3619 18.8443C49.3533 19.0655 51.087 18.8297 51.0175 18.4882Z" fill="white"/>
<path d="M40.9605 35.1685C40.9605 35.1685 39.6308 37.9155 39.4021 38.8741C39.2584 39.4775 39.3297 40.7384 39.4021 41.3545C39.4365 41.6488 39.6423 42.212 39.6779 42.5051C39.7089 42.7637 39.7089 50.7405 39.6905 51.0382C39.6733 51.3129 38.8412 53.6335 38.8401 54.8576C38.8378 57.5645 40.2962 64.5654 40.2962 64.5654L41.9948 64.3367C41.9913 64.4459 42.3821 59.5058 42.4832 57.6828C42.5545 56.3898 43.1314 50.8911 43.09 50.4807C43.0486 50.0692 44.5967 41.8166 44.5967 41.8166L44.1634 35.3558L40.9605 35.1685Z" fill="white"/>
<path d="M44.0823 35.4937L42.9974 39.1809L43.2789 41.6453L42.9974 42.8533C42.9974 42.8533 44.4834 49.1347 44.3788 51.2669C44.3305 52.2427 43.9087 53.9335 43.9673 55.1553C44.0409 56.7024 46.4371 64.5022 46.4371 64.5022L48.0265 64.4217C48.0265 64.4217 48.3196 58.4655 48.2966 57.1472C48.2747 55.8529 47.7059 50.7381 47.6921 50.3244C47.6783 49.8761 47.7472 42.3177 47.6277 40.12C47.5392 38.5017 46.9313 35.1558 46.9313 35.1558L44.0823 35.4937Z" fill="white"/>
<path d="M43.6592 46.9279C43.9718 45.1705 44.6304 40.8143 44.7832 40.1189" stroke="white" stroke-width="1.38" stroke-linecap="round" stroke-linejoin="round"/>
<path d="M39.9919 63.6356C39.9517 63.7287 40.224 64.5609 40.2838 64.6045C40.3712 64.6689 41.964 64.5815 42.0548 64.4563C42.0985 64.3953 42.2594 63.5023 42.1502 63.4011C41.9709 63.2356 40.07 63.4551 39.9919 63.6344V63.6356Z" fill="white"/>
<path d="M42.0186 63.5366C41.7634 63.5366 40.2947 63.6872 40.1211 63.7596" stroke="white" stroke-width="1.38" stroke-linecap="round" stroke-linejoin="round"/>
<path d="M40.6078 65.516C40.6181 65.7275 40.6158 65.9033 40.5871 65.9642C40.7423 66.8769 41.5031 66.6136 41.8076 65.5585C41.7961 65.5206 41.7869 65.4803 41.7777 65.4413C41.7479 65.2987 41.7341 65.1505 41.7283 65.0114C41.7168 64.7217 41.741 64.4723 41.7168 64.408C41.7042 64.3735 40.4998 64.3861 40.5124 64.5011C40.517 64.5493 40.5457 64.7804 40.571 65.047C40.586 65.2022 40.5997 65.3689 40.6066 65.5183L40.6078 65.516Z" fill="white"/>
<path d="M40.5718 65.0446C40.5867 65.1997 40.6005 65.3664 40.6074 65.5158C40.951 65.4848 41.4383 65.4457 41.7773 65.44C41.7475 65.2974 41.7337 65.1492 41.7279 65.0101C41.3854 64.9951 40.9062 65.0124 40.5718 65.0446Z" fill="white"/>
<path d="M41.4556 66.0515L40.5133 66.1251L40.6454 66.6308L41.5039 66.5205L41.4556 66.0515Z" fill="white"/>
<path d="M42.9748 66.555C42.9529 66.5423 42.8748 66.532 42.7656 66.5251C42.7656 66.5251 42.7645 66.5239 42.7633 66.5228C42.1002 66.4366 41.937 65.6768 41.8577 65.5596C41.7554 65.409 41.7152 65.4159 41.5796 65.4447C41.3486 65.4941 41.2233 66.4251 41.0176 66.4102C40.8153 66.3964 40.6947 66.0607 40.6671 65.9584C40.6441 65.8711 40.5809 65.8619 40.5682 65.9125C40.4947 66.2102 40.366 66.4711 40.3223 66.6952C40.3212 66.6952 40.32 66.6952 40.32 66.6952C40.2545 66.9481 40.3304 67.0849 40.4729 67.0849H43.0529C43.1851 67.0849 43.1747 66.6722 42.9748 66.5561V66.555Z" fill="white"/>
<path d="M41.9199 64.3665C41.6648 64.3665 40.5535 64.4274 40.3799 64.5009" stroke="white" stroke-width="1.38" stroke-linecap="round" stroke-linejoin="round"/>
<path d="M46.0662 63.6931C46.0283 63.7874 46.326 64.6115 46.3857 64.6529C46.4754 64.7138 48.0648 64.5816 48.151 64.4529C48.1935 64.3908 48.3268 63.4931 48.2154 63.3954C48.0303 63.2345 46.1375 63.5104 46.0651 63.692L46.0662 63.6931Z" fill="white"/>
<path d="M48.0889 63.5347C47.8337 63.5416 46.3707 63.7347 46.1984 63.8128" stroke="white" stroke-width="1.38" stroke-linecap="round" stroke-linejoin="round"/>
<path d="M46.7597 65.4185C46.777 65.6691 46.7793 65.8886 46.7471 65.9576C46.9011 66.8702 47.6653 66.6139 47.9688 65.5587C47.9481 65.4874 47.932 65.4116 47.9205 65.3357C47.8986 65.1886 47.8917 65.0369 47.8917 64.899C47.8917 64.6426 47.9101 64.43 47.8894 64.3725C47.8768 64.338 46.6356 64.3679 46.6563 64.4737C46.6643 64.5162 46.6919 64.7128 46.7172 64.9507C46.7333 65.1001 46.7494 65.2656 46.7597 65.4196V65.4185Z" fill="white"/>
<path d="M46.7176 64.9494C46.7337 65.0989 46.7498 65.2644 46.7602 65.4184C47.0647 65.3897 47.5497 65.3483 47.9209 65.3345C47.8991 65.1874 47.8922 65.0356 47.8922 64.8977C47.5141 64.8885 47.0199 64.9127 46.7176 64.9494Z" fill="white"/>
<path d="M47.724 65.9426L46.7828 66.0173L46.9437 66.6311L47.7734 66.4116L47.724 65.9426Z" fill="white"/>
<path d="M50.2228 66.5553C50.201 66.5426 50.1228 66.5323 50.0137 66.5254C48.8701 66.4242 48.3576 65.7426 48.2771 65.6243C48.1749 65.4737 48.0197 65.2346 47.8289 65.3013C47.606 65.3783 47.5324 66.0886 47.483 66.2599C47.4451 66.3921 47.1141 66.4817 46.9394 66.3323C46.8475 66.2541 46.8555 66.0599 46.8279 65.9576C46.8049 65.8702 46.7417 65.861 46.7291 65.9116C46.6555 66.2093 46.5268 66.4702 46.4832 66.6943C46.482 66.6943 46.4809 66.6943 46.4809 66.6943C46.4153 66.9472 46.4912 67.084 46.6337 67.084H50.301C50.4331 67.084 50.4228 66.6713 50.2228 66.5553Z" fill="white"/>
<path d="M48.0146 64.3667C47.7595 64.3736 46.6505 64.4678 46.4792 64.546" stroke="white" stroke-width="1.38" stroke-linecap="round" stroke-linejoin="round"/>
<path d="M44.2214 44.198C44.4386 45.1761 45.1994 50.2139 45.127 50.8668C45.0546 51.5197 44.6248 53.6208 44.6765 54.5276C44.7282 55.4334 46.4785 63.3493 46.4785 63.3493" stroke="white" stroke-width="1.38" stroke-linecap="round" stroke-linejoin="round"/>
<path d="M40.9258 37.196C40.6695 37.711 40.0615 39.6201 40.0937 40.2052C40.1259 40.7902 40.1926 43.7258 40.25 44.197C40.3075 44.6683 40.2063 50.3222 40.1305 51.1187C40.0535 51.9164 39.5237 53.7646 39.4628 54.3083C39.4019 54.8519 40.2477 61.877 40.3799 63.1874" stroke="white" stroke-width="1.38" stroke-linecap="round" stroke-linejoin="round"/>
<path d="M39.6504 30.6955C40.2584 32.3725 40.833 34.0828 40.7675 35.1564C40.748 35.477 40.1664 36.3368 40.3928 36.3874C41.5248 36.6402 46.3804 37.3609 47.2504 37.0494C47.3745 37.0046 47.0872 35.6357 47.0734 35.1564C47.0562 34.5863 47.2884 32.5863 47.4079 30.3668C47.4757 29.1128 47.5067 27.7876 47.4378 26.6094C47.401 25.9704 47.2102 25.144 46.7103 24.7543C46.6183 24.6831 46.477 24.6003 46.3046 24.5164C46.1265 24.429 45.915 24.3405 45.6943 24.2589C45.4116 24.1543 45.1128 24.0624 44.8473 24.0038C44.7163 23.975 42.8373 23.7325 41.8501 23.9153C41.6065 23.9601 41.3306 24.0428 41.0433 24.1509C40.4905 24.3578 39.8941 24.6612 39.4045 24.9762C38.8781 25.3141 38.4747 25.6669 38.3828 25.9313C38.1254 26.6658 38.9138 28.6565 39.6527 30.6955H39.6504Z" fill="#FF9900"/>
<path d="M44.3406 27.1275C44.1958 27.124 43.7487 28.0332 43.7131 28.1964C43.6775 28.3596 44.1843 29.3193 44.2935 29.3745C44.4027 29.4297 44.8555 28.3056 44.8555 28.224C44.8555 28.1424 44.4636 27.1297 44.3418 27.1275H44.3406Z" fill="#FF9900"/>
<path d="M44.3406 29.5918C44.1958 29.5884 43.7487 30.4975 43.7131 30.6607C43.6775 30.824 44.1843 31.7837 44.2935 31.8389C44.4027 31.894 44.8555 30.7699 44.8555 30.6883C44.8555 30.6067 44.4636 29.5941 44.3418 29.5918H44.3406Z" fill="#FF9900"/>
<path d="M44.3406 32.0571C44.1958 32.0537 43.7487 32.9629 43.7131 33.1261C43.6775 33.2893 44.1843 34.249 44.2935 34.3042C44.4027 34.3582 44.8555 33.2353 44.8555 33.1537C44.8555 33.0721 44.4636 32.0594 44.3418 32.0571H44.3406Z" fill="#FF9900"/>
<path d="M45.6092 32.1296C45.4644 32.1262 45.0173 33.0354 44.9817 33.1986C44.9449 33.3618 45.4529 34.3216 45.562 34.3767C45.6712 34.4307 46.124 33.3078 46.124 33.2262C46.124 33.1446 45.7321 32.1319 45.6103 32.1296H45.6092Z" fill="#FF9900"/>
<path d="M45.651 29.5917C45.4947 29.5883 45.012 30.571 44.9729 30.7469C44.9338 30.9227 45.482 31.9606 45.5993 32.0193C45.7165 32.0779 46.2061 30.8641 46.2061 30.7756C46.2061 30.6871 45.7831 29.594 45.651 29.5906V29.5917Z" fill="#FF9900"/>
<path d="M46.8828 29.5918C46.7265 29.5884 46.3438 30.5849 46.3047 30.7607C46.2656 30.9366 46.7138 31.9607 46.8311 32.0205C46.9483 32.0791 47.3379 30.8952 47.3379 30.8079C47.3379 30.7205 47.0149 29.5953 46.8839 29.593L46.8828 29.5918Z" fill="#FF9900"/>
<path d="M46.8199 32.1296C46.6636 32.1262 46.1993 33.0135 46.1602 33.1894C46.1211 33.3653 46.5693 34.3894 46.6865 34.4491C46.8038 34.5078 47.1934 33.3239 47.1934 33.2365C47.1934 33.1492 46.952 32.1331 46.821 32.1296H46.8199Z" fill="#FF9900"/>
<path d="M46.8922 34.5217C46.7359 34.5182 46.2716 35.4055 46.2325 35.5814C46.1934 35.7573 46.6772 36.9722 46.7945 37.0308C46.9117 37.0894 47.1289 35.7745 47.1289 35.686C47.1289 35.5975 47.0243 34.524 46.8933 34.5205L46.8922 34.5217Z" fill="#FF9900"/>
<path d="M45.651 27.0551C45.4947 27.0517 45.012 28.0344 44.9729 28.2102C44.9338 28.3861 45.482 29.424 45.5993 29.4826C45.7165 29.5413 46.2061 28.3275 46.2061 28.239C46.2061 28.1505 45.7831 27.0574 45.651 27.054V27.0551Z" fill="#FF9900"/>
<path d="M46.9189 27.0918C46.7626 27.0884 46.2799 28.0711 46.2409 28.247C46.2018 28.4228 46.75 29.4607 46.8672 29.5193C46.9844 29.578 47.374 28.3757 47.374 28.2883C47.374 28.201 47.0511 27.0941 46.9201 27.0918H46.9189Z" fill="#FF9900"/>
<path d="M46.6781 24.8504C46.5218 24.8469 46.2793 25.4975 46.2391 25.6733C46.2 25.8492 46.7482 26.8871 46.8655 26.9457C46.9827 27.0043 47.2539 25.8377 47.2539 25.7503C47.2539 25.663 46.8092 24.8527 46.677 24.8504H46.6781Z" fill="#FF9900"/>
<path d="M45.4891 24.3643C45.3328 24.3608 45.011 25.4252 44.9719 25.601C44.9329 25.7769 45.4811 26.8148 45.5983 26.8734C45.7155 26.932 46.2051 25.7183 46.2051 25.6298C46.2051 25.5412 45.6201 24.3666 45.4891 24.3643Z" fill="#FF9900"/>
<path d="M44.2363 34.4124C44.0823 34.4089 43.6065 35.3767 43.5675 35.5503C43.5284 35.7238 44.0685 36.7456 44.1846 36.8043C44.3007 36.8617 44.7822 35.6664 44.7822 35.579C44.7822 35.4916 44.365 34.4147 44.2352 34.4124H44.2363Z" fill="#FF9900"/>
<path d="M45.6133 34.4492C45.4593 34.4458 44.9835 35.4136 44.9444 35.5871C44.9053 35.7607 45.4351 36.8653 45.5512 36.9227C45.6673 36.9802 46.1592 35.7032 46.1592 35.6159C46.1592 35.5285 45.742 34.4515 45.6121 34.4492H45.6133Z" fill="#FF9900"/>
<path d="M43.0359 32.0571C42.8911 32.0537 42.4441 32.9629 42.4084 33.1261C42.3728 33.2893 42.8796 34.249 42.9888 34.3042C43.098 34.3582 43.5508 33.2353 43.5508 33.1537C43.5508 33.0721 43.1589 32.0594 43.0371 32.0571H43.0359Z" fill="#FF9900"/>
<path d="M43.003 34.3881C42.8582 34.3754 42.3479 35.2823 42.3008 35.4478C42.2537 35.6133 42.6904 36.6397 42.795 36.703C42.8996 36.7662 43.4317 35.6386 43.4374 35.5547C43.4432 35.4708 43.1248 34.3996 43.003 34.3881Z" fill="#FF9900"/>
<path d="M43.0359 29.5918C42.8911 29.5884 42.4441 30.4975 42.4084 30.6607C42.3728 30.824 42.8796 31.7837 42.9888 31.8389C43.098 31.8929 43.5508 30.7699 43.5508 30.6883C43.5508 30.6067 43.1589 29.5941 43.0371 29.5918H43.0359Z" fill="#FF9900"/>
<path d="M43.1453 27.1641C43.0005 27.1606 42.5534 28.0698 42.5178 28.233C42.481 28.3962 42.989 29.356 43.0982 29.4111C43.2073 29.4652 43.6602 28.3422 43.6602 28.2606C43.6602 28.179 43.2683 27.1664 43.1464 27.1641H43.1453Z" fill="#FF9900"/>
<path d="M42.5541 25.9137C42.5173 26.0769 43.0253 27.0366 43.1344 27.0918C43.2436 27.1458 43.4551 26.6504 43.4551 26.5688C43.4551 26.4872 42.5908 25.7504 42.5541 25.9137Z" fill="#FF9900"/>
<path d="M41.8767 27.1641C41.7319 27.1606 41.2849 28.0698 41.2492 28.233C41.2136 28.3962 41.7204 29.356 41.8296 29.4111C41.9388 29.4652 42.3916 28.3422 42.3916 28.2606C42.3916 28.179 41.9997 27.1664 41.8779 27.1641H41.8767Z" fill="#FF9900"/>
<path d="M40.5233 24.4828C40.4866 24.646 41.4669 24.8633 41.5749 24.9173C41.6841 24.9713 41.283 24.3219 41.283 24.2403C41.283 24.1587 40.559 24.3184 40.5233 24.4817V24.4828Z" fill="#FF9900"/>
<path d="M40.6816 27.2366C40.5368 27.2331 40.2863 28.1975 40.2495 28.3607C40.2127 28.5239 40.5241 29.4285 40.6333 29.4837C40.7425 29.5377 41.1953 28.4147 41.1953 28.3331C41.1953 28.2515 40.8034 27.2389 40.6816 27.2366Z" fill="#FF9900"/>
<path d="M41.7322 29.5918C41.5874 29.5884 41.1403 30.4975 41.1047 30.6607C41.0679 30.824 41.5759 31.7837 41.6851 31.8389C41.7943 31.8929 42.2471 30.7699 42.2471 30.6883C42.2471 30.6067 41.8552 29.5941 41.7334 29.5918H41.7322Z" fill="#FF9900"/>
<path d="M40.5866 29.5952C40.4418 29.5918 39.8729 30.4987 39.8362 30.6619C39.7994 30.8251 40.3074 31.7848 40.4165 31.84C40.5257 31.8952 40.9785 30.7711 40.9785 30.6895C40.9785 30.6078 40.7085 29.5987 40.5866 29.5952Z" fill="#FF9900"/>
<path d="M41.7322 32.0205C41.5874 32.0171 41.1403 32.9262 41.1047 33.0895C41.0679 33.2527 41.5759 34.2124 41.6851 34.2676C41.7943 34.3216 42.2471 33.1986 42.2471 33.117C42.2471 33.0354 41.8552 32.0228 41.7334 32.0205H41.7322Z" fill="#FF9900"/>
<path d="M40.5722 32.0204C40.4274 32.017 40.3596 32.7974 40.4056 32.9583C40.5067 33.3158 40.6297 34.0077 40.7389 34.0618C40.848 34.1158 41.0859 33.1974 41.0859 33.1158C41.0859 33.0342 40.694 32.0216 40.5722 32.0193V32.0204Z" fill="#FF9900"/>
<path d="M41.6378 34.3813C41.4942 34.3664 40.9782 35.1801 40.9299 35.3296C40.8816 35.479 41.3126 36.4192 41.4172 36.479C41.5218 36.5387 42.0596 35.525 42.0654 35.4491C42.0711 35.3732 41.7596 34.394 41.6378 34.3813Z" fill="#FF9900"/>
<path d="M41.62 24.9036C41.4752 24.9001 41.3212 25.6783 41.2844 25.8415C41.2476 26.0047 41.7556 26.9644 41.8648 27.0196C41.974 27.0736 42.4268 25.9507 42.4268 25.8691C42.4268 25.7875 41.743 24.9059 41.6211 24.9036H41.62Z" fill="#FF9900"/>
<path d="M40.249 24.9036C40.1042 24.9001 40.1582 25.838 40.249 26.1679C40.2938 26.3288 40.5605 27.0736 40.6685 27.1288C40.7765 27.184 41.2305 26.0599 41.2305 25.9783C41.2305 25.8967 40.3708 24.907 40.249 24.9047V24.9036Z" fill="#FF9900"/>
<path d="M44.351 27.5988C44.9612 27.508 45.8151 25.4241 45.691 24.2575C45.4083 24.1529 45.1095 24.0609 44.844 24.0023C44.713 23.9736 42.8339 23.731 41.8467 23.9138C41.6031 23.9586 41.3273 24.0414 41.04 24.1494C40.7389 24.5678 43.7407 27.6884 44.351 27.5976V27.5988Z" fill="#FF9900"/>
<path d="M39.649 30.6953C41.3339 28.2528 40.7822 25.3943 39.9076 25.038C39.7628 24.9782 39.5629 24.9207 39.4008 24.9759C38.8744 25.3138 38.4711 25.6667 38.3791 25.931C38.1217 26.6655 38.9101 28.6563 39.649 30.6953Z" fill="#FF9900"/>
<path d="M46.3026 24.516C47.06 25.6206 47.1887 28.8665 47.4059 30.3653C47.4737 29.1113 47.5048 27.7861 47.4358 26.6079C47.399 25.9689 47.2082 25.1425 46.7083 24.7528C46.6164 24.6816 46.475 24.5988 46.3026 24.5149V24.516Z" fill="#FF9900"/>
<path d="M40.1068 36.9236C41.6733 37.6386 46.1956 37.7822 47.3057 37.4202C47.3057 37.4202 47.3506 36.8397 47.2713 36.7547C47.192 36.6696 46.33 37.0972 43.6948 36.8053C41.0596 36.5133 40.5608 36.0432 40.3849 36.1087C40.2091 36.1742 40.1068 36.9225 40.1068 36.9225V36.9236Z" fill="#FF9900"/>
<path d="M41.4568 24.3193C41.497 24.3756 42.0739 24.9883 42.7003 25.6021C43.3668 26.2549 44.0897 26.9078 44.2851 26.8928C44.6333 26.8652 45.0631 24.8515 45.0654 24.3412C45.0654 24.294 45.062 24.2596 45.0551 24.2412C44.9712 24.0343 44.7103 23.3515 44.5448 23.2285C44.5126 23.2056 44.377 23.1688 44.1862 23.1285C43.784 23.0446 43.1347 22.9469 42.6888 22.9297C42.444 22.9194 42.2612 22.9332 42.213 22.986C42.1268 23.0791 41.3729 24.2055 41.4568 24.3205V24.3193Z" fill="white"/>
<path d="M41.4568 24.3193C41.497 24.3756 43.0037 25.4434 43.3898 25.4067C43.5335 25.3929 43.8415 24.0653 43.8771 24.0481C43.9139 24.0297 44.3747 25.4618 44.5471 25.4434C44.7195 25.425 44.97 24.8515 45.0654 24.3412C45.0654 24.294 45.062 24.2596 45.0551 24.2412C44.9712 24.0343 44.7103 23.3515 44.5448 23.2285C44.5126 23.2056 44.377 23.1688 44.1862 23.1285L44.2081 23.1596C44.2667 23.1975 44.3943 23.255 44.4931 23.3182C44.554 23.3573 44.9229 24.0389 44.9712 24.1745C45.0286 24.3389 44.6839 24.8331 44.5747 24.8331C44.4586 24.8331 44.0047 23.9044 43.8874 23.9044C43.7702 23.9044 43.3921 25.0446 43.3094 25.0814C43.2266 25.1182 41.5591 24.3768 41.5223 24.2779C41.4855 24.1779 42.1337 23.3079 42.2659 23.1515C42.398 22.9964 42.7095 22.9791 42.7095 22.9791L42.6899 22.9297C42.4451 22.9194 42.2624 22.9332 42.2141 22.986C42.1279 23.0791 41.374 24.2055 41.4579 24.3205L41.4568 24.3193Z" fill="white"/>
<path d="M44.3494 23.2988C44.3437 23.2758 44.3437 23.2517 44.3414 23.2275C44.2816 22.6678 44.2873 21.9643 44.2678 21.5414C44.2678 21.5379 44.2678 21.5356 44.2678 21.5356L44.2632 21.5333L42.2658 20.3311C42.2658 20.3311 42.5416 22.0057 42.3876 23.0678C42.3738 23.1597 43.2944 23.7068 43.8805 23.7459C44.1747 23.7655 44.3747 23.3999 44.3506 23.2999L44.3494 23.2988Z" fill="white"/>
<path d="M44.3416 23.2275C44.2819 22.6677 44.2876 21.9643 44.2681 21.5413C44.2681 21.5379 44.2681 21.5356 44.2681 21.5356L44.2635 21.5333L42.4546 20.6414C42.2937 21.9241 43.3234 23.1195 44.3428 23.2286L44.3416 23.2275Z" fill="white"/>
<path d="M42.2299 19.6828C42.2655 20.2069 42.3897 20.8138 42.5103 21.2483C42.6264 21.6644 43.6125 22.6264 44.4089 22.8241C44.5629 22.862 45.1272 22.7149 45.2536 22.6161C45.4409 22.4689 45.7662 20.6115 45.6938 20.0954C45.6524 19.8023 45.6168 19.2368 45.5949 18.9679C45.5719 18.6805 45.4179 18.3667 45.3007 18.2851C45.1295 18.1645 44.8789 18.0461 44.6273 17.9346C44.325 17.8012 43.9975 17.7035 43.7216 17.7162C43.1815 17.7392 42.5425 18.3035 42.2667 18.6886C42.1805 18.807 42.2196 19.5334 42.2299 19.684V19.6828Z" fill="white"/>
<path d="M42.1556 19.2068C42.1533 19.2149 42.197 19.3172 42.251 19.4401C42.3395 19.6401 42.6625 19.8689 42.7073 19.7401C42.8119 19.4413 43.4359 18.6103 43.6164 18.6045C43.7186 18.5746 44.3772 19.0873 44.9322 19.0264C45.2977 18.9861 45.3919 18.6448 45.3046 18.3206C45.3046 18.3206 45.308 18.262 45.2747 18.2379C45.1035 18.1287 44.8886 17.9597 44.6369 17.8586L43.8933 17.8298L42.8555 18.0172L42.5602 18.0701C42.5602 18.0701 42.5188 18.1873 42.4613 18.3471C42.3912 18.5436 42.2982 18.8034 42.2338 18.9861C42.189 19.1114 42.1579 19.2011 42.1556 19.2068Z" fill="white"/>
<path d="M41.7565 19.8069C41.4715 20.0759 42.1564 21.2517 42.4725 20.6701C42.7862 20.0931 42.1024 19.4805 41.7565 19.8069Z" fill="white"/>
<path d="M42.3037 20.3136C42.2612 20.0734 41.9049 19.9228 41.8291 19.9412" stroke="white" stroke-width="1.04" stroke-linecap="round" stroke-linejoin="round"/>
<path d="M42.0052 20.3137C42.0396 20.2126 42.1465 20.1666 42.2178 20.1712" stroke="white" stroke-width="1.04" stroke-linecap="round" stroke-linejoin="round"/>
<path d="M41.7055 18.4782C41.8422 17.9932 42.0525 17.8127 42.3571 17.6173C43.0363 17.1805 44.7441 17.007 45.0555 17.2702C45.5003 17.646 45.8267 19.7575 45.6968 20.1241C45.6187 19.7437 45.4371 18.7253 45.3038 18.3207C45.2176 18.5472 45.036 18.6863 44.7728 18.7253C44.3165 18.7931 43.6419 18.3656 43.4891 18.3955C43.3972 18.4127 42.9811 19.1104 42.7214 19.6081C42.6294 19.7851 42.934 20.4391 42.8742 20.5506C42.8248 20.6414 42.5961 20.577 42.5513 20.5046C42.495 20.4149 42.2881 19.8379 42.1307 19.7494C42.0031 19.677 41.8273 19.7563 41.7549 19.8092C41.6572 19.6621 41.5112 19.169 41.7055 18.4794V18.4782Z" fill="white"/>
<path d="M43.7305 20.3471C43.0719 20.0127 42.0824 19.7012 41.9376 19.7012" stroke="white" stroke-width="0.52" stroke-linecap="round" stroke-linejoin="round"/>
<path d="M45.1079 20.2252C45.1768 20.4688 45.3941 20.6205 45.5929 20.5642C45.7917 20.5079 45.8986 20.2654 45.8296 20.0217C45.7607 19.778 45.5434 19.6263 45.3446 19.6826C45.1458 19.739 45.0389 19.9815 45.1079 20.2252Z" stroke="white" stroke-width="0.52" stroke-linecap="round" stroke-linejoin="round"/>
<path d="M45.3848 19.7988C45.3399 19.8126 45.2917 19.8414 45.2537 19.8896" stroke="white" stroke-width="0.59" stroke-miterlimit="10" stroke-linecap="round"/>
<path d="M45.5 19.7987C45.4942 19.7964 45.4872 19.7952 45.4802 19.7917" stroke="white" stroke-width="0.59" stroke-miterlimit="10" stroke-linecap="round"/>
<path d="M45.0967 19.9633C44.9496 19.6622 44.6232 19.8909 44.591 20.0955" stroke="white" stroke-width="0.52" stroke-linecap="round" stroke-linejoin="round"/>
<path d="M43.7601 20.4803C43.8325 20.7366 44.0911 20.8883 44.337 20.8194C44.583 20.7504 44.7243 20.486 44.6519 20.2297C44.5795 19.9734 44.321 19.8217 44.075 19.8907C43.8291 19.9596 43.6877 20.224 43.7601 20.4803Z" stroke="white" stroke-width="0.52" stroke-linecap="round" stroke-linejoin="round"/>
<path d="M43.8945 20.1733C43.8819 20.1986 43.8704 20.2262 43.8635 20.2561" stroke="white" stroke-width="0.59" stroke-miterlimit="10" stroke-linecap="round"/>
<path d="M44.1348 19.9919C44.0716 20.008 44.0037 20.0402 43.9509 20.0942" stroke="white" stroke-width="0.59" stroke-miterlimit="10" stroke-linecap="round"/>
<path d="M44.2979 19.9919C44.2897 19.9884 44.2804 19.9872 44.271 19.9849" stroke="white" stroke-width="0.59" stroke-miterlimit="10" stroke-linecap="round"/>
<path d="M35.685 34.8193C35.685 35.0584 35.6689 35.3297 35.8987 35.6101C35.8987 35.8687 36.0481 36.1354 36.1849 36.3929C36.5572 37.0974 37.0204 37.7434 37.3146 37.9974C37.3157 37.9986 37.302 37.9997 37.3031 38.0009C37.5847 38.2422 39.0534 37.1607 39.0534 37.1607C39.0534 37.1607 39.004 37.0227 38.9339 36.8078C38.7167 36.1377 38.2708 34.7193 38.2708 34.3906C38.2708 33.9676 39.9119 29.6677 40.1314 28.5482C40.1372 28.5195 40.1418 28.4931 40.1452 28.4689C40.2693 27.662 40.2762 27.0437 40.2073 26.5782C40.2073 26.5701 40.205 26.5632 40.2038 26.5552C40.0912 25.823 39.7901 25.4759 39.4626 25.3701C39.1247 25.2598 38.7604 25.4058 38.5489 25.6506C38.5236 25.6793 38.5282 25.7104 38.5029 25.7448C37.2962 27.331 35.6838 33.7803 35.6838 34.8205L35.685 34.8193Z" fill="white"/>
<path d="M36.1247 36.3928C36.4971 37.0974 36.9901 37.7434 37.2843 37.9974L38.9301 36.8077C38.7129 36.1376 38.2681 34.7193 38.2681 34.3906C38.2681 33.9676 39.9104 29.6677 40.1299 28.5482C39.9678 28.9723 39.738 27.8758 39.607 27.9379C39.4013 28.0344 40.0115 28.8804 39.9138 28.9827C39.8288 29.0712 39.4231 28.4344 39.384 28.5654C39.33 28.747 39.7909 29.1413 39.7713 29.3769C39.7564 29.5562 37.8957 33.9837 37.8119 34.0641C37.6992 34.1733 37.228 33.917 37.1671 34.1228C37.1303 34.248 37.8337 34.1446 37.8119 34.3055C37.79 34.4664 37.2073 34.7032 37.2453 34.8296C37.2832 34.9561 37.8682 34.4733 37.9383 34.5457C38.0084 34.6181 38.0888 35.4676 38.0716 35.5905C38.0532 35.7147 36.6902 36.6123 36.1259 36.3928H36.1247Z" fill="white"/>
<path d="M36.1253 36.3927C36.4252 36.641 37.1918 36.3743 36.9757 36.2709C36.5218 36.3812 35.8127 35.0985 35.8702 34.6652C36.3264 31.2043 38.2123 25.3734 39.4639 25.3689C39.126 25.2585 38.7938 25.3769 38.5697 25.6091C37.2653 26.9631 35.5805 33.7548 35.5805 34.8157C35.5805 35.5743 36.0299 36.1111 36.1264 36.3916L36.1253 36.3927Z" fill="white"/>
<path d="M36.6797 37.5743C36.9257 37.8513 37.3245 38.2053 37.3727 38.2179C37.444 38.2363 39.0805 37.2995 39.1311 37.203C39.192 37.0881 38.9116 35.4502 38.7932 35.4306C38.7645 35.426 38.7139 35.4444 38.6461 35.4801C38.1106 35.7605 36.5051 37.134 36.4855 37.2743C36.4786 37.3248 36.5614 37.4398 36.6797 37.5731V37.5743Z" fill="white"/>
<path d="M36.6797 37.5743C36.9257 37.8513 37.3245 38.2053 37.3727 38.2179C37.444 38.2363 39.0805 37.2996 39.1311 37.203C39.192 37.0881 38.9116 35.4502 38.7932 35.4307C38.7645 35.4261 38.6553 35.4536 38.5392 35.5422C38.8909 35.8031 38.8461 36.6766 38.8219 36.7973C38.7944 36.9329 37.9508 37.095 37.7394 37.2582C37.5279 37.4214 37.2647 37.7915 37.2003 37.8007C37.1452 37.8088 36.828 37.695 36.6786 37.5743H36.6797Z" fill="white"/>
<path d="M38.9371 40.3799C38.8877 40.4765 38.8716 40.65 38.8751 40.8615C38.8808 41.2144 39.3738 42.0718 39.4198 42.2925C39.4543 42.4615 39.2968 42.9109 39.3428 43.1189C39.3991 43.3787 39.8002 43.7465 40.0243 43.6752C40.1105 43.6476 40.3852 42.9867 40.4093 42.9086C40.4288 42.8442 40.4898 42.4822 40.4725 42.2891C40.4725 42.2787 40.4851 42.2753 40.4897 42.2845C40.5403 42.3856 40.6081 42.5097 40.6081 42.5626C40.6093 42.7166 40.2599 43.5005 40.5679 43.5143C40.6495 43.5178 41.0747 42.6247 41.0299 42.4638C40.8242 41.7281 40.176 40.3178 40.0956 40.2063C39.9427 39.9949 39.0199 40.219 38.9383 40.3811L38.9371 40.3799Z" fill="white"/>
<path d="M40.0742 42.172C40.0742 42.172 40.0627 42.2617 40.0512 42.395C40.0454 42.4617 40.0397 42.5387 40.0328 42.6226C40.0293 42.664 40.0259 42.7065 40.0213 42.749C40.0167 42.7916 40.0133 42.8329 40.0018 42.8674C39.9765 42.9398 39.9374 43.026 39.9052 43.1008C39.8719 43.1778 39.8409 43.249 39.8144 43.3099C39.7627 43.4329 39.7282 43.5145 39.7282 43.5145C39.7213 43.5318 39.7282 43.5513 39.7455 43.5594C39.7604 43.5651 39.7765 43.5605 39.7857 43.549C39.7857 43.549 39.8007 43.5306 39.8225 43.4973C39.8432 43.464 39.8754 43.4168 39.9087 43.3582C39.942 43.2996 39.9822 43.2318 40.0202 43.1559C40.0397 43.118 40.0592 43.0789 40.0776 43.0375C40.096 42.9962 40.1144 42.9559 40.1316 42.9054C40.1477 42.8536 40.15 42.8054 40.1546 42.7605C40.1581 42.7157 40.1592 42.6709 40.1604 42.6283C40.1627 42.5433 40.1592 42.4651 40.1581 42.3973C40.1535 42.2628 40.1431 42.1732 40.1431 42.1732C40.1408 42.1548 40.1247 42.141 40.1063 42.1422C40.0903 42.1433 40.0776 42.1559 40.0765 42.172H40.0742Z" fill="white"/>
<path d="M39.7002 42.0594C39.7002 42.0594 39.6968 42.0778 39.6933 42.1123C39.691 42.1468 39.6853 42.1951 39.6841 42.2525C39.683 42.31 39.6807 42.3767 39.6795 42.4479C39.6784 42.518 39.6795 42.5962 39.6715 42.6617C39.6692 42.6709 39.6715 42.6721 39.668 42.6836L39.6611 42.7111L39.6462 42.7617C39.6347 42.7962 39.6244 42.8307 39.614 42.864C39.5922 42.9318 39.5715 42.9939 39.5531 43.0479C39.5175 43.156 39.4957 43.2284 39.4957 43.2284C39.4899 43.2468 39.5002 43.2663 39.5186 43.272C39.5336 43.2766 39.5485 43.2709 39.5566 43.2583C39.5566 43.2583 39.6002 43.1927 39.652 43.0881C39.6772 43.0353 39.7071 42.9755 39.7347 42.9077C39.7485 42.8744 39.7623 42.8387 39.7749 42.8019L39.7933 42.7433L39.8002 42.7146C39.8025 42.7065 39.8048 42.6893 39.8071 42.6801C39.8163 42.5928 39.8117 42.518 39.8083 42.4456C39.8037 42.3732 39.7968 42.3066 39.7922 42.2491C39.7807 42.1353 39.7715 42.0594 39.7715 42.0594C39.7692 42.041 39.7519 42.0272 39.7335 42.0295C39.7186 42.0318 39.7071 42.0433 39.7037 42.0571L39.7002 42.0594Z" fill="white"/>
<path d="M37.4952 38.118C38.0446 39.0341 38.6801 39.8548 38.9375 40.38C39.1651 40.8444 40.2224 40.4685 40.0948 40.2053C39.7638 39.5214 39.2754 38.3261 38.9375 37.2307C38.872 37.0192 37.3159 37.8192 37.4952 38.118Z" fill="white"/>
<path fill-rule="evenodd" clip-rule="evenodd" d="M44.2034 16.1674C43.9984 15.9927 43.706 15.8585 43.3272 15.8912C43.0885 15.9118 42.8487 16.0005 42.6486 16.1723C42.5866 16.2254 42.5341 16.2816 42.4898 16.3383C41.8188 16.6536 41.3887 17.139 41.191 17.7198C40.9774 18.3468 41.0916 18.9254 41.1711 19.2092C41.307 19.7049 41.7735 20.1435 42.3783 20.1435L42.3993 20.1433C42.5333 20.2593 42.6899 20.3744 42.858 20.4761C43.0982 20.6215 43.4203 20.7752 43.7845 20.8377C44.1585 20.9018 44.6514 20.8782 45.0971 20.5569C45.2673 20.4341 45.4018 20.4062 45.4756 20.3994C45.5067 20.3966 45.5304 20.3973 45.5446 20.3983C45.6505 20.4309 45.8384 20.4741 46.0568 20.4456C46.2094 20.4257 46.4793 20.3561 46.7027 20.112C46.9415 19.851 46.9883 19.5444 46.9757 19.3332C46.9591 19.0567 46.8286 18.7995 46.6152 18.6229L46.1337 18.2242C46.0962 18.0266 46.0295 17.7811 45.9093 17.5257C45.7597 17.2079 45.5187 16.8582 45.1356 16.5805C44.8681 16.3865 44.5563 16.2459 44.2034 16.1674ZM42.0737 18.8554L41.8389 19.0213C41.8519 18.8869 41.894 18.7237 41.9989 18.5623C42.0063 18.5508 42.0139 18.5396 42.0216 18.5287C42.0339 18.6337 42.051 18.7428 42.0737 18.8554Z" fill="#FF9900"/>
<path d="M34.5179 66.504C34.4656 66.4618 34.1355 66.4151 33.7076 66.3595C33.0052 66.2683 31.8515 66.0583 31.5359 65.7437C31.2691 65.4769 31.2892 64.7021 31.2892 64.7021C31.2892 64.7021 30.1877 64.8233 29.8943 65.1045C30.0377 65.528 29.7954 66.2139 29.7332 66.6518C29.6642 66.9197 29.7432 67.0642 29.8943 67.0642H34.5179C34.6579 67.0642 34.7068 66.6585 34.5179 66.504Z" fill="white"/>
<path d="M31.4785 65.7158C32.2176 65.2123 32.7889 65.1623 32.8211 65.4235C32.8634 65.7759 32.2109 65.8792 31.4785 65.7158Z" stroke="white" stroke-width="0.5" stroke-linecap="round" stroke-linejoin="round"/>
<path d="M31.4785 65.7159C31.9375 64.9478 32.4821 64.7455 32.62 64.97C32.8056 65.2723 32.2109 65.5569 31.4785 65.7159Z" stroke="white" stroke-width="0.5" stroke-linecap="round" stroke-linejoin="round"/>
<path d="M32.5588 66.0605C32.0665 66.1606 31.4785 65.7148 31.4785 65.7148C31.4785 65.7148 31.8208 66.3729 32.3966 66.4652" stroke="white" stroke-width="0.5" stroke-linecap="round" stroke-linejoin="round"/>
<path d="M25.8039 66.504C25.7805 66.4907 25.6983 66.4796 25.5816 66.4718C25.5816 66.4718 25.5805 66.4707 25.5793 66.4695C24.8769 66.3784 24.5102 65.3869 24.5102 64.7299C24.2556 64.5343 23.561 64.7711 23.2665 65.0523C23.431 65.7037 23.0753 66.2383 22.9942 66.653C22.9919 66.653 22.9919 66.653 22.9919 66.653C22.923 66.9208 23.0019 67.0654 23.1531 67.0654H25.8861C26.0261 67.0654 26.015 66.6285 25.8039 66.5051V66.504Z" fill="white"/>
<path d="M34.1722 42.8743C34.3712 42.7486 33.1953 28.0937 32.7452 26.7732H30.25L32.8696 43.0799C32.8696 43.0799 34.0266 42.9654 34.1711 42.8743H34.1722Z" fill="white"/>
<path d="M29.847 65.716C29.8948 65.8516 31.4564 65.6037 31.433 65.3803C31.3097 64.2087 31.6853 54.8571 32.1999 52.0481C32.5289 50.253 32.8168 41.9362 32.4655 37.1487C32.4655 37.1487 29.9904 37.3665 27.5186 37.7178C27.3096 39.6375 27.6108 44.804 28.0432 50.1952C28.1977 52.1182 27.2107 54.3202 27.2952 56.1687C27.4197 58.9076 29.7381 65.4058 29.847 65.716Z" fill="white"/>
<path d="M23.2609 65.5504C23.2809 65.6949 24.6291 65.6226 24.6591 65.4759C25.0648 63.4584 26.0784 57.9717 27.9056 52.1026C29.1382 48.1432 30.8698 37.749 30.8809 37.5266C30.8809 37.5266 24.987 37.5155 24.159 37.949C24.1445 38.5204 23.8022 44.0304 23.4388 49.9762C23.3676 51.1456 22.4185 53.6321 22.2684 54.7937C21.8183 58.2963 23.2254 65.3047 23.2598 65.5504H23.2609Z" fill="white"/>
<path d="M27.6279 53.012C27.9925 51.8281 28.7583 49.0826 29.1217 47.5297C29.6374 45.3288 30.0986 43.0501 30.3509 41.5261" stroke="white" stroke-width="0.5" stroke-linecap="round" stroke-linejoin="round"/>
<path d="M24.375 65.8957C24.6128 65.3977 25.0785 65.1387 25.2141 65.3466C25.3786 65.5978 25.0808 65.8623 24.375 65.8957Z" stroke="white" stroke-width="0.5" stroke-linecap="round" stroke-linejoin="round"/>
<path d="M24.3753 65.8955C23.8985 66.1112 23.4273 65.81 23.4762 65.551C23.5428 65.2019 24.1141 65.6299 24.3753 65.8955Z" stroke="white" stroke-width="0.5" stroke-linecap="round" stroke-linejoin="round"/>
<path d="M25.092 66.2291C24.6674 66.1757 24.3751 65.8967 24.3751 65.8967C24.3751 65.8967 24.0595 66.2169 23.7305 66.2658" stroke="white" stroke-width="0.5" stroke-linecap="round" stroke-linejoin="round"/>
<path d="M32.3248 38.5346C31.6913 39.2327 27.7924 39.2493 25.2806 38.6224C24.9449 38.5379 25.1905 24.1898 26.362 23.6529C27.1511 23.2917 28.6626 23.2617 29.5084 23.6696C29.9574 23.8853 31.6779 25.2492 32.2826 26.3307C32.4248 26.5853 32.0881 34.0617 32.1703 35.0209C32.3248 37.2585 32.5838 38.2489 32.3248 38.5346Z" fill="white"/>
<path d="M21.4941 33.2559C21.7398 33.1836 22.4944 32.9835 22.7023 33.0869C22.9101 33.1914 21.9876 33.3204 21.9487 33.4248C21.9098 33.5293 22.6545 33.3726 22.7623 33.4382" stroke="white" stroke-width="0.69" stroke-linecap="round" stroke-linejoin="round"/>
<path d="M23.7307 31.8039C23.7307 31.8039 23.7307 31.8061 23.7307 31.8073C23.7429 31.8995 23.7118 35.4877 23.6162 35.9401C23.4428 36.7604 21.4956 42.0437 21.5612 42.2115C21.6746 42.5039 24.3086 43.3442 24.562 43.0908C24.6999 42.9529 25.3289 39.656 25.5801 39.2603C25.8469 38.8401 26.5393 38.2666 26.7782 37.8742C27.2406 37.1161 28.4343 30.6045 28.3453 28.5759C28.2809 27.1175 26.9216 24.4598 26.4181 23.5883C26.4015 23.5605 26.3681 23.5494 26.3381 23.5628C25.1789 24.0741 23.7785 24.4909 22.986 25.1034C22.9838 25.1056 22.9816 25.1067 22.9794 25.1089C22.6237 25.438 22.706 26.7941 23.3072 29.6664L23.7285 31.8039H23.7307Z" fill="white"/>
<path d="M26.6819 23.574C26.5296 24.0798 28.3424 25.0335 29.167 24.8479C29.5194 24.7689 29.4605 23.8941 29.2882 23.4251C28.9948 22.627 28.9559 21.5921 28.9559 21.5921L28.9503 21.5899L26.7675 20.3293C26.7675 20.3293 27.002 22.5125 26.6819 23.5729V23.574Z" fill="white"/>
<path d="M26.9771 20.6619C26.8182 22.1447 28.1208 23.4919 29.2878 23.4263C29.0244 22.6171 28.9554 21.5934 28.9554 21.5934L28.9499 21.5911L26.9771 20.6619Z" fill="white"/>
<path d="M30.6364 21.571C30.522 23.5863 27.7745 23.185 27.0521 21.3176C26.7075 20.4272 26.6197 18.7276 26.7387 18.5542C26.8931 18.3308 27.1243 18.0952 27.3444 17.9184C27.989 17.4004 28.4603 17.3504 29.276 17.6939C29.5506 17.8095 29.7729 18.054 29.9607 18.1807C30.2541 18.3786 30.1652 18.8099 30.303 19.6736C30.3275 19.8259 30.3675 19.9959 30.4108 20.176C30.4831 20.4695 30.5653 20.7874 30.6086 21.0919C30.632 21.2576 30.6442 21.4187 30.6364 21.571Z" fill="white"/>
<path d="M26.627 19.1179C26.6247 19.1268 27.0215 19.9416 27.2483 19.7759C27.5583 19.5492 27.705 19.2991 27.7906 19.0201C27.834 18.8789 27.7995 18.5732 27.6673 18.2842C28.9787 18.9723 30.1924 18.7111 30.0146 18.0986L27.0437 17.8818C27.0437 17.8818 26.6292 19.1123 26.6281 19.1179H26.627Z" fill="white"/>
<path d="M28.8982 21.0842C28.8926 20.8196 28.6403 20.6084 28.3347 20.6129C28.0291 20.6173 27.7857 20.8363 27.7901 21.1008C27.7957 21.3654 28.048 21.5766 28.3536 21.5721C28.6592 21.5677 28.9026 21.3487 28.8982 21.0842Z" fill="white"/>
<path d="M30.6076 21.092C30.3197 21.0786 30.0896 20.8752 30.0841 20.6218C30.0796 20.425 30.2141 20.2527 30.4097 20.176C30.482 20.4695 30.5642 20.7874 30.6076 21.092Z" fill="white"/>
<path d="M26.2084 19.7747C25.905 20.0715 26.6697 21.3287 26.9998 20.694C27.3277 20.0648 26.5774 19.4146 26.2084 19.7747Z" fill="white"/>
<path d="M26.8092 20.3117C26.7592 20.0527 26.3702 19.897 26.2891 19.9182" stroke="white" stroke-width="1.04" stroke-linecap="round" stroke-linejoin="round"/>
<path d="M26.4863 20.3172C26.5219 20.2072 26.6353 20.156 26.7131 20.1583" stroke="white" stroke-width="1.04" stroke-linecap="round" stroke-linejoin="round"/>
<path d="M30.4248 18.3675C30.4081 18.2875 30.267 18.1363 30.0802 18.0629C30.1603 17.9518 30.2714 17.2982 30.2381 17.1881C29.9802 16.3556 26.7093 17.4938 26.5993 17.5961C26.2892 17.8851 26.0391 19.3101 26.148 19.468C26.2536 19.6225 26.4259 19.6014 26.6137 19.7036C26.6826 19.7414 26.8104 19.8737 26.8816 20.0527C26.926 20.1638 26.8927 20.5651 26.9227 20.7218C26.9494 20.8641 27.1727 20.8252 27.2005 20.8085C27.2717 20.7652 27.2494 19.9504 27.2983 19.6903C27.3206 19.5691 27.824 19.04 27.624 18.2397C28.6587 18.5709 29.7357 18.3164 30.0158 18.0996C30.0136 18.6354 30.2925 19.7414 30.3425 19.8781C30.2836 19.4402 30.487 18.6621 30.427 18.3686L30.4248 18.3675Z" fill="white"/>
<path d="M30.0894 19.5994C30.0183 19.6227 29.9427 19.6705 29.8838 19.7483" stroke="white" stroke-width="1.04" stroke-miterlimit="10" stroke-linecap="round"/>
<path d="M30.274 19.5958C30.2652 19.5914 30.2542 19.5903 30.2432 19.5859" stroke="white" stroke-width="1.04" stroke-miterlimit="10" stroke-linecap="round"/>
<path d="M28.0458 20.1216C28.0258 20.1616 28.0092 20.2061 27.998 20.255" stroke="white" stroke-width="1.04" stroke-miterlimit="10" stroke-linecap="round"/>
<path d="M28.4237 19.8271C28.3237 19.8538 28.217 19.9083 28.1348 19.9961" stroke="white" stroke-width="1.04" stroke-miterlimit="10" stroke-linecap="round"/>
<path d="M28.683 19.8226C28.6697 19.8182 28.6552 19.816 28.6396 19.8115" stroke="white" stroke-width="1.04" stroke-miterlimit="10" stroke-linecap="round"/>
<path d="M22.9834 25.1058C21.4774 26.0807 19.2901 31.9086 19.2979 33.4437C19.3112 35.838 23.9692 39.7496 24.0492 39.6796C24.3382 39.4306 25.8464 38.4235 25.8764 38.2701C25.902 38.1368 23.3312 33.8917 23.3757 33.4615C23.728 32.6356 23.808 31.0639 25.1851 29.332C26.8289 27.2656 25.3163 23.5952 22.9823 25.1058H22.9834Z" fill="white"/>
<path d="M26.3192 39.4785C26.2081 39.2573 25.8491 38.836 25.5456 38.7026C25.39 38.6337 25.2167 38.6592 25.0333 38.4903C24.9088 38.3747 24.3075 39.0127 24.3709 39.0994C24.4264 39.1739 24.4564 39.2284 24.4731 39.2728C24.4842 39.2995 24.5376 39.7864 24.6065 39.9598C24.7921 40.4244 25.0911 40.8379 25.4367 41.2125C25.7879 41.0124 26.3181 40.0743 26.3181 39.4796L26.3192 39.4785Z" fill="white"/>
<path d="M24.1006 39.3708L24.4918 39.9211L25.7066 38.7005L25.2887 38.2715L24.7752 38.6394L24.1006 39.3708Z" fill="white"/>
<path d="M26.3218 38.8772C26.3963 39.4597 26.1551 41.0025 25.0459 41.5261" stroke="white" stroke-width="0.5" stroke-linecap="round" stroke-linejoin="round"/>
<path d="M32.2969 25.2067C33.8029 26.1815 35.9902 32.0095 35.9824 33.5445C35.9691 35.9389 31.3111 39.8505 31.231 39.7804C30.9421 39.5315 29.4339 38.5244 29.4039 38.371C29.3783 38.2376 31.949 33.9925 31.9046 33.5623C31.5522 32.7364 31.4722 31.1647 30.0952 29.4329C28.4514 27.3665 29.964 23.6961 32.298 25.2067H32.2969Z" fill="white"/>
<path d="M28.9611 39.5793C29.0722 39.3581 29.4312 38.9368 29.7346 38.8034C29.8902 38.7345 30.0636 38.7601 30.247 38.5911C30.3715 38.4755 30.9728 39.1135 30.9094 39.2002C30.8538 39.2747 30.8238 39.3292 30.8072 39.3736C30.796 39.4003 30.7427 39.8872 30.6738 40.0606C30.4882 40.5252 30.1892 40.9387 29.8435 41.3133C29.4923 41.1133 28.9622 40.1751 28.9622 39.5804L28.9611 39.5793Z" fill="white"/>
<path d="M31.1797 39.4717L30.7885 40.0219L29.5737 38.8014L29.9916 38.3723L30.505 38.7402L31.1797 39.4717Z" fill="white"/>
<path d="M28.9585 38.9778C28.884 39.5602 29.1252 41.1031 30.2344 41.6267" stroke="white" stroke-width="0.5" stroke-linecap="round" stroke-linejoin="round"/>
<path d="M31.7804 30.8239C31.876 33.3016 31.8838 39.3619 31.6771 43.1367C31.6771 43.1367 32.564 43.1423 32.8707 43.0789C33.8021 42.8877 32.9496 32.8247 32.9496 32.8247L32.8063 26.9879L32.5095 25.3483C32.5095 25.3483 30.0944 23.4598 29.5098 23.6687C30.3922 24.1756 31.6637 27.7904 31.7804 30.8239Z" fill="white"/>
<path d="M24.7934 29.5657C24.46 30.2582 23.353 33.1905 23.3763 33.4617C23.3997 33.7329 25.4336 37.6323 25.637 37.9269" stroke="white" stroke-width="0.5" stroke-linecap="round" stroke-linejoin="round"/>
<path d="M22.8076 38.677C23.0399 38.9115 23.6812 39.4762 23.9457 39.6819" stroke="white" stroke-width="0.5" stroke-linecap="round" stroke-linejoin="round"/>
<path d="M25.5824 38.2302C25.2879 37.9512 24.0664 39.2317 24.042 39.5118" stroke="white" stroke-width="0.5" stroke-linecap="round" stroke-linejoin="round"/>
<path d="M22.0537 33.4616C22.2593 33.2593 22.8673 33.1926 22.9773 33.3204C23.0662 33.4249 22.2949 33.4304 22.1693 33.7684C22.1426 33.8395 22.5294 33.6261 22.9151 33.7005" stroke="white" stroke-width="0.5" stroke-linecap="round" stroke-linejoin="round"/>
<path d="M52.3524 67.2356H50.5609C50.4624 67.2356 50.4095 67.1401 50.4551 66.9648C50.4551 66.9648 50.4551 66.9648 50.4561 66.9648C50.48 66.833 50.509 66.5726 50.5796 66.1545C50.6449 65.7624 51.9737 66.3122 52.0941 66.5124C52.1926 66.6753 52.2528 66.8527 52.2974 66.8683C52.3845 66.9005 52.4426 67.2356 52.3513 67.2356H52.3524Z" fill="white"/>
<path d="M57.958 66.6516C57.7713 66.6817 57.7474 66.9971 57.7568 67.2357H57.8501C57.8864 67.2357 57.7993 66.7823 57.958 66.6516Z" fill="white"/>
<path d="M60.2233 67.2357H58.6051C58.5107 67.2357 58.436 67.1216 58.3603 66.9908C58.271 66.8134 58.1953 66.6173 57.9993 66.5873C57.6953 66.5395 57.6455 66.9192 57.657 67.2357H57.3115C57.2918 67.2357 57.0107 66.6474 57.0107 66.4908C57.0107 66.3528 57.075 65.889 57.1455 65.861C57.1684 65.8517 57.8686 65.7511 58.6217 66.5624C58.9515 66.9182 59.5148 66.6765 59.5687 66.7045C59.6102 66.7263 60.188 66.8394 60.2233 66.8674C60.3478 66.968 60.3146 67.2346 60.2233 67.2346V67.2357Z" fill="white"/>
<path d="M58.5814 56.2095C58.5492 56.5902 58.5191 56.9824 58.5015 57.3465C58.4227 58.994 58.1208 63.0837 58.1924 64.783C58.2069 65.1202 58.238 65.2966 58.2681 65.3827C58.2961 65.4626 58.4248 65.5881 58.5565 65.7541C58.8314 66.1016 59.2287 66.5664 59.5399 66.7231C59.5513 66.7293 59.5523 66.7449 59.5399 66.7511C59.2795 66.886 58.8791 67.0571 58.7194 66.943C58.5015 66.7884 57.6748 65.8921 57.2349 65.9097C57.2121 65.9097 57.1945 65.89 57.1997 65.8682C57.237 65.7271 57.3449 65.3184 57.2972 65.0424C57.0161 63.4354 55.9559 59.6694 55.7733 56.9689C55.7619 56.7936 55.7733 56.5238 55.7962 56.2105H58.5803L58.5814 56.2095Z" fill="white"/>
<path d="M50.446 57.3478C50.4802 57.0033 50.5663 56.6112 50.6763 56.2107H53.3567C53.2374 56.691 53.4709 57.2139 53.337 57.7534C52.613 60.677 51.7146 63.5953 51.6555 64.8527C51.6358 65.2874 51.8443 66.1371 52.0497 66.5355C52.0684 66.5718 52.0653 66.6216 52.031 66.6434C51.9958 66.6652 51.753 66.4763 51.557 66.4815C51.3786 66.4857 50.9118 66.7284 50.7873 66.6496C50.7022 66.5967 50.6348 66.4151 50.6472 66.079C50.6607 65.9981 50.7323 65.3673 50.7593 64.9959C50.8132 64.2676 50.2977 58.8583 50.446 57.3488V57.3478Z" fill="white"/>
<path d="M58.4585 31.2671C59.8434 33.3638 59.7209 36.777 59.9969 37.6589C60.4025 38.9567 60.1929 44.3837 60.1763 44.8018C60.167 45.0445 59.1608 45.0767 58.9979 45.0051C58.5104 44.7914 58.7552 40.9538 58.583 39.8095C58.4326 38.8115 58.4782 36.6401 58.3755 36.1131C58.0861 34.6264 58.4585 31.2681 58.4585 31.2681V31.2671Z" fill="white"/>
<path d="M60.0776 44.7957C59.8536 45.6381 59.8214 46.5137 59.643 46.7948C59.4646 47.077 58.5974 47.7867 58.5206 47.6653C58.3982 47.4713 58.8359 47.243 58.7447 47.0967C58.7447 47.0967 58.1928 47.4059 58.1306 47.3073C57.9179 46.9733 58.9822 46.3124 58.9252 46.2657C58.8681 46.2191 57.8391 46.5427 57.8214 46.4297C57.8048 46.3166 58.6627 45.8964 58.6627 45.8964C58.6627 45.8964 58.8027 44.972 58.9583 44.6815C59.1139 44.3921 59.3919 44.4066 59.3919 44.4066C59.3919 44.4066 60.1274 44.6037 60.0766 44.7946L60.0776 44.7957Z" fill="white"/>
<path d="M58.6761 58.2462C58.6574 58.6435 55.7923 58.518 55.7083 57.9173C55.4852 56.3196 55.2415 47.8477 55.2415 47.8477C55.2415 47.8477 53.7394 55.554 53.3525 58.4142C53.2934 58.8531 50.2872 58.3043 50.3245 57.9246C50.4718 56.4358 50.8919 47.605 51.7177 42.8555C52.0372 41.015 54.1346 39.1279 54.144 38.4411C54.144 38.4411 57.0257 37.9068 57.8835 38.4411C58.3472 40.0128 58.5599 41.2329 58.786 43.4977C59.2933 48.5843 58.7393 56.913 58.6761 58.2451V58.2462Z" fill="white"/>
<path d="M58.0365 40.0814C57.8736 40.2142 54.5552 39.7629 54.3695 39.0139C54.0272 37.632 53.8166 31.7288 53.8166 31.7288L57.7346 31.012C57.7346 31.012 59.4213 38.9527 58.0354 40.0825L58.0365 40.0814Z" fill="white"/>
<path d="M56.6389 28.8412C55.8474 28.944 55.5487 29.3465 55.3039 28.5051C55.0269 27.5527 53.4512 26.6398 53.8983 25.124C54.1981 24.1084 55.0788 23.793 55.9014 23.793C56.7665 23.793 57.6306 24.3937 57.8785 25.1489C58.0185 25.5764 57.8132 26.1667 57.7063 26.6242C57.6804 26.7352 57.5486 28.723 56.6389 28.8412Z" fill="white"/>
<path d="M54.508 30.0977C54.3306 30.2243 55.8399 32.459 56.6781 32.1353C57.4924 31.8209 56.8358 30.217 56.8358 30.217C56.7808 30.1434 56.6438 29.8093 56.536 29.5997C56.5121 29.4887 56.4934 29.3673 56.4934 29.2439C56.4934 28.5498 56.5816 28.1535 56.5816 28.1535L55.0858 26.8567L54.8991 26.8712C55.0619 28.055 55.1013 29.6744 54.508 30.0967V30.0977Z" fill="white"/>
<path d="M56.5364 29.5995C56.5125 29.4885 56.4939 29.3671 56.4939 29.2436C56.4939 28.5496 56.582 28.1533 56.582 28.1533L55.1889 27.343C55.1184 28.3182 55.8331 29.4501 56.5354 29.5995H56.5364Z" fill="white"/>
<path d="M55.294 24.0515C55.6094 22.9735 54.8345 21.5595 53.7588 21.9869C52.682 22.4143 53.3511 24.5774 54.6021 24.5837C55.8542 24.5909 55.294 24.0504 55.294 24.0504V24.0515Z" fill="white"/>
<path d="M55.369 23.6239C55.369 23.6239 55.3753 23.5731 55.3877 23.4839C55.3919 23.4393 55.4033 23.3864 55.4043 23.322C55.4043 23.2577 55.4043 23.1851 55.4043 23.1062C55.3981 23.0274 55.3856 22.9434 55.3753 22.8531C55.3659 22.8085 55.3524 22.7639 55.341 22.7182C55.3275 22.6726 55.3192 22.6238 55.2975 22.5792C55.2788 22.5336 55.2591 22.4869 55.2404 22.4392C55.2197 22.3925 55.1906 22.3489 55.1647 22.3033C55.1512 22.2804 55.1387 22.2576 55.1242 22.2358L55.0744 22.1736C55.0392 22.1341 55.0122 22.0864 54.9697 22.0532C54.9302 22.0169 54.8919 21.9796 54.8504 21.9453C54.8058 21.9152 54.7612 21.8862 54.7176 21.8571C54.6242 21.8084 54.5298 21.7617 54.4302 21.742C54.4053 21.7358 54.3815 21.7295 54.3576 21.7243C54.3338 21.7192 54.3089 21.7202 54.285 21.7171C54.2363 21.715 54.1896 21.7067 54.144 21.7109C54.0527 21.7202 53.9655 21.7243 53.8898 21.7513C53.8514 21.7627 53.8141 21.771 53.7809 21.7845C53.7487 21.8001 53.7176 21.8146 53.6886 21.8291C53.6595 21.8426 53.6325 21.8561 53.6076 21.8686C53.5848 21.8841 53.5641 21.8986 53.5444 21.9111C53.4686 21.963 53.4261 21.9931 53.4261 21.9931C53.4137 22.0014 53.4105 22.018 53.4188 22.0304C53.4271 22.0418 53.4427 22.0449 53.4552 22.0377L53.4583 22.0356C53.4583 22.0356 53.5008 22.0097 53.5765 21.963C53.5952 21.9516 53.616 21.9391 53.6388 21.9256C53.6637 21.9152 53.6896 21.9049 53.7176 21.8935C53.7456 21.882 53.7757 21.8696 53.8068 21.8561C53.839 21.8457 53.8742 21.8405 53.9106 21.8302C53.9821 21.8063 54.062 21.8053 54.1471 21.8001C54.1896 21.798 54.2321 21.8073 54.2767 21.8105C54.2985 21.8136 54.3213 21.8136 54.3431 21.8188C54.3649 21.825 54.3867 21.8312 54.4085 21.8374C54.4987 21.8571 54.5838 21.9007 54.6688 21.9453C54.7083 21.9723 54.7487 22.0003 54.7892 22.0273C54.8255 22.0594 54.8607 22.0947 54.897 22.1279C54.9354 22.159 54.9603 22.2037 54.9925 22.24L55.0381 22.2981L55.0755 22.3613C55.0993 22.4039 55.1273 22.4433 55.147 22.4869C55.1657 22.5315 55.1844 22.5751 55.2031 22.6176C55.2394 22.7037 55.256 22.794 55.2809 22.8759C55.2943 22.961 55.3099 23.0409 55.3192 23.1156C55.3234 23.1903 55.3265 23.2588 55.3296 23.32C55.3327 23.3812 55.3255 23.4362 55.3244 23.4808C55.3203 23.571 55.3182 23.6219 55.3182 23.6219C55.3182 23.6364 55.3286 23.6488 55.3441 23.6499C55.3587 23.6499 55.3701 23.6405 55.3721 23.626L55.369 23.6239Z" fill="white"/>
<path d="M55.0355 24.2952C55.0355 24.2952 54.9836 24.2941 54.8944 24.2921C54.8716 24.2921 54.8467 24.2921 54.8197 24.291C54.7927 24.291 54.7616 24.2972 54.7294 24.3014C54.6651 24.3097 54.5904 24.317 54.5158 24.345C54.4774 24.3574 54.438 24.3688 54.3975 24.3833C54.3591 24.4031 54.3187 24.4238 54.2782 24.4446C54.2357 24.4632 54.1994 24.4944 54.161 24.5244C54.1236 24.5556 54.0811 24.5825 54.05 24.622C54.0168 24.6593 53.9795 24.6956 53.9483 24.7371C53.9203 24.7807 53.8913 24.8243 53.8622 24.8689C53.8145 24.9623 53.7689 25.0598 53.744 25.1635C53.7284 25.2144 53.7139 25.2652 53.7077 25.3181C53.7004 25.37 53.689 25.4218 53.6849 25.4737C53.6797 25.5775 53.6724 25.6791 53.6838 25.7777C53.6869 25.8763 53.7066 25.9696 53.7212 26.0588C53.7357 26.1481 53.7637 26.228 53.7824 26.3047C53.8041 26.3794 53.8342 26.4458 53.855 26.505C53.8757 26.5651 53.9027 26.6139 53.9224 26.6543C53.9618 26.7363 53.9846 26.783 53.9846 26.783C53.9909 26.7965 54.0075 26.8017 54.021 26.7954C54.0334 26.7892 54.0396 26.7737 54.0344 26.7612V26.7591C54.0344 26.7591 54.0137 26.7124 53.9795 26.6305C53.9629 26.589 53.939 26.5413 53.9224 26.4811C53.9048 26.422 53.8799 26.3566 53.8612 26.2829C53.8456 26.2082 53.8207 26.1304 53.8093 26.0443C53.7979 25.9582 53.7813 25.868 53.7824 25.7746C53.7741 25.6802 53.7824 25.5837 53.7876 25.4851C53.7907 25.4364 53.8031 25.3876 53.8104 25.3388C53.8166 25.2891 53.8301 25.2413 53.8457 25.1946C53.8695 25.0982 53.9151 25.01 53.9566 24.9228C53.9826 24.8824 54.0085 24.8419 54.0334 24.8014C54.0614 24.7631 54.0946 24.7309 54.1247 24.6956C54.1527 24.6583 54.1911 24.6344 54.2243 24.6054C54.2585 24.5774 54.2917 24.5493 54.329 24.5307C54.3653 24.5099 54.4017 24.4892 54.4359 24.4695C54.4722 24.4539 54.5095 24.4425 54.5438 24.429C54.6122 24.3989 54.6797 24.3917 54.7388 24.3782C54.7689 24.373 54.7958 24.3647 54.8218 24.3626C54.8487 24.3616 54.8736 24.3595 54.8965 24.3585C54.9867 24.3533 55.0375 24.3502 55.0375 24.3502C55.0521 24.3502 55.0635 24.3367 55.0624 24.3221C55.0624 24.3076 55.05 24.2972 55.0365 24.2972L55.0355 24.2952Z" fill="white"/>
<path d="M57.8735 27.3318C57.8247 28.1981 57.3869 28.7614 57.0488 28.8569C56.1131 29.1193 55.2231 28.2416 54.9243 26.9905C54.9119 26.8027 54.9316 26.6087 54.9721 26.4157C55.0706 26.4863 55.3559 26.5755 55.5405 26.286C55.7532 25.954 55.7532 25.1801 56.0592 25.0525C56.6121 25.8814 57.4046 24.9819 57.7459 25.6532C57.8257 25.9063 57.7874 26.3223 57.8455 26.7186C57.8776 26.9365 57.8849 27.1419 57.8745 27.3318H57.8735Z" fill="white"/>
<path d="M56.7549 27.2032C56.7549 27.0092 56.5536 26.8525 56.3047 26.8525C56.0557 26.8525 55.8545 27.0092 55.8545 27.2032C55.8545 27.3972 56.0557 27.5539 56.3047 27.5539C56.5536 27.5539 56.7549 27.3972 56.7549 27.2032Z" fill="white"/>
<path d="M57.8735 27.3319C57.7273 27.2748 57.6256 27.1555 57.6256 27.0196C57.6256 26.892 57.7138 26.781 57.8445 26.7188C57.8766 26.9366 57.8839 27.142 57.8735 27.3319Z" fill="white"/>
<path d="M56.0585 25.0525C56.6114 25.8814 57.4039 24.9819 57.7441 25.6532C57.38 25.261 56.5709 26.0806 56.0554 25.0546C56.0564 25.0546 56.0574 25.0535 56.0585 25.0525Z" fill="white"/>
<path d="M55.5398 26.286C55.6705 26.0827 55.7203 25.7123 55.8105 25.427C55.7576 25.8534 55.7691 26.313 55.5004 26.5028C55.2411 26.6854 55.0927 26.5122 54.9921 26.4302C55.1062 26.4977 55.3666 26.5578 55.5398 26.2871V26.286Z" fill="white"/>
<path d="M54.5015 26.3422C54.2671 26.6047 54.8656 27.6255 55.0388 26.9719C55.1114 26.696 55.0834 26.5373 54.9548 26.4024C54.7868 26.226 54.5814 26.253 54.5015 26.3432V26.3422Z" fill="white"/>
<path d="M54.6017 26.4939C54.6837 26.4638 54.8299 26.5022 54.8424 26.6827C54.8455 26.7304 54.8029 26.7429 54.8154 26.7906C54.8237 26.8207 54.8756 26.8508 54.8994 26.8539" fill="white"/>
<path d="M54.6017 26.4939C54.6837 26.4638 54.8299 26.5022 54.8424 26.6827C54.8455 26.7304 54.8029 26.7429 54.8154 26.7906C54.8237 26.8207 54.8756 26.8508 54.8994 26.8539" stroke="white" stroke-width="0.69" stroke-linecap="round" stroke-linejoin="round"/>
<path d="M54.6682 26.642C54.6942 26.5652 54.8 26.5569 54.8301 26.6182L54.6682 26.642Z" fill="white"/>
<path d="M54.6682 26.642C54.6942 26.5652 54.8 26.5569 54.8301 26.6182" stroke="white" stroke-width="0.69" stroke-linecap="round" stroke-linejoin="round"/>
<path d="M50.6348 45.638C50.4947 45.4792 50.8609 44.0984 50.9408 43.7166C51.2509 42.2403 51.8951 41.0773 51.9252 40.8792C51.9252 40.876 49.6856 39.2358 49.4647 38.2056C49.2613 37.2543 51.1244 32.5701 52.0341 31.4808C52.4169 31.0223 53.8131 30.2618 53.9947 30.129C54.2478 29.9433 54.8526 29.3571 54.9065 29.5221C54.9065 29.5221 56.5081 33.5765 56.5818 35.3028C56.5994 35.7147 55.7156 45.9544 55.5538 46.1909C55.2996 46.5634 50.8205 45.8486 50.6348 45.638ZM52.8723 37.3518C52.7955 36.5955 52.5507 35.8195 52.5507 35.8195C52.4646 35.8516 51.781 37.8581 51.781 37.8581L52.7125 38.5864C52.7125 38.5864 52.949 38.1071 52.8723 37.3508V37.3518Z" fill="white"/>
<path d="M59.552 45.638C59.4763 46.1121 57.7564 46.2573 57.7045 46.1639C57.44 45.6815 57.6921 41.7184 57.6817 40.2172C57.6703 38.5054 57.8487 36.8756 57.8861 35.1192C57.9255 33.2517 56.6288 30.2037 56.5355 29.5999C56.6236 29.5117 56.8031 29.9049 57.0012 30.0802C57.2014 30.2576 58.1848 30.8728 58.4587 31.2671C59.5095 32.7807 58.607 36.9679 58.7834 38.2046C58.9981 39.713 59.5894 45.4076 59.552 45.6369V45.638Z" fill="white"/>
<path d="M58.9492 46.0363C58.7054 46.0965 57.9689 46.2293 57.7044 46.1639C57.4399 46.0985 57.6339 42.2278 57.6339 42.2278" fill="white"/>
<path d="M58.9492 46.0363C58.7054 46.0965 57.9689 46.2293 57.7044 46.1639C57.4399 46.0985 57.6339 42.2278 57.6339 42.2278" stroke="white" stroke-width="0.5" stroke-linecap="round" stroke-linejoin="round"/>
<path d="M55.7881 44.5195C55.7487 44.7893 55.6636 45.9761 55.5536 46.1909C55.4437 46.4056 52.617 46.1359 51.3888 45.8537" fill="white"/>
<path d="M55.7881 44.5195C55.7487 44.7893 55.6636 45.9761 55.5536 46.1909C55.4437 46.4056 52.617 46.1359 51.3888 45.8537" stroke="white" stroke-width="0.5" stroke-linecap="round" stroke-linejoin="round"/>
<path d="M58.4224 32.3015C58.3467 32.4789 58.3342 32.841 58.412 33.1885C58.4711 33.4521 58.9276 34.0652 58.9628 34.4854C59.0095 35.0269 58.8529 35.4523 58.6869 35.7967C58.5282 36.1277 59.3757 42.8743 59.4805 44.8994" fill="white"/>
<path d="M58.4224 32.3015C58.3467 32.4789 58.3342 32.841 58.412 33.1885C58.4711 33.4521 58.9276 34.0652 58.9628 34.4854C59.0095 35.0269 58.8529 35.4523 58.6869 35.7967C58.5282 36.1277 59.3757 42.8743 59.4805 44.8994" stroke="white" stroke-width="0.5" stroke-linecap="round" stroke-linejoin="round"/>
<path d="M53.9709 30.2327C54.2012 31.0709 54.2863 32.1094 54.3662 32.1748C54.4232 32.2204 54.8848 31.905 54.9346 31.9559C54.9854 32.0088 54.5954 32.8543 54.6276 32.9394C54.6577 33.0193 56.4294 34.9365 56.5176 35.6254" fill="white"/>
<path d="M53.9709 30.2327C54.2012 31.0709 54.2863 32.1094 54.3662 32.1748C54.4232 32.2204 54.8848 31.905 54.9346 31.9559C54.9854 32.0088 54.5954 32.8543 54.6276 32.9394C54.6577 33.0193 56.4294 34.9365 56.5176 35.6254" stroke="white" stroke-width="0.5" stroke-linecap="round" stroke-linejoin="round"/>
<path d="M57.3975 30.4673C57.5656 30.7993 57.8622 31.7527 57.8498 31.8056C57.8373 31.8596 57.4598 31.7288 57.4598 31.7288C57.4598 31.7288 57.8571 32.3876 57.9027 32.4613C58.0012 32.621 58.0998 34.7997 57.8819 35.334" fill="white"/>
<path d="M57.3975 30.4673C57.5656 30.7993 57.8622 31.7527 57.8498 31.8056C57.8373 31.8596 57.4598 31.7288 57.4598 31.7288C57.4598 31.7288 57.8571 32.3876 57.9027 32.4613C58.0012 32.621 58.0998 34.7997 57.8819 35.334" stroke="white" stroke-width="0.5" stroke-linecap="round" stroke-linejoin="round"/>
<path d="M52.5502 35.8194C52.8085 35.1555 53.3946 34.2446 53.4932 33.8877L52.5502 35.8194Z" fill="white"/>
<path d="M52.5502 35.8194C52.8085 35.1555 53.3946 34.2446 53.4932 33.8877" stroke="white" stroke-width="0.5" stroke-linecap="round" stroke-linejoin="round"/>
<path d="M54.9981 45.3895L51.499 42.5779L55.3681 37.7617L58.8671 40.5734L54.9981 45.3895Z" fill="white"/>
<path d="M55.7898 38.9565L57.5117 40.3405" stroke="white" stroke-width="1.38" stroke-linecap="round" stroke-linejoin="round"/>
<path d="M53.1241 38.8623C53.7081 39.3904 55.7683 40.8905 55.8678 41.1696C55.9228 41.3232 54.9664 42.4032 54.7382 42.4882C54.5411 42.5619 51.62 40.8241 51.5702 40.4341C51.5204 40.044 53.1231 38.8623 53.1231 38.8623H53.1241Z" fill="white"/>
<path d="M53.9199 39.494C53.4936 39.1101 53.145 38.8632 52.8038 38.5862L53.9199 39.494Z" fill="white"/>
<path d="M53.9199 39.494C53.4936 39.1101 53.145 38.8632 52.8038 38.5862" stroke="white" stroke-width="0.5" stroke-linecap="round" stroke-linejoin="round"/>
<path d="M56.7249 43.4977C56.5703 43.5267 56.5237 42.9001 56.477 42.8285C56.4438 42.7797 55.4386 42.3388 55.2643 42.1438C55.0009 41.8512 55.5994 41.1717 55.7218 41.2796C55.8536 41.3947 57.2654 42.6096 57.3224 42.7227C57.3753 42.8264 57.3463 43.2891 57.3276 43.2902C57.2311 43.2974 57.2 42.8897 57.1481 42.8741C57.1295 42.8752 56.9656 43.452 56.7249 43.4966V43.4977Z" fill="white"/>
<path d="M56.8442 43.418C56.8442 43.418 56.867 43.3641 56.8961 43.2821C56.9231 43.1991 56.9604 43.0881 56.9822 42.9709C56.9936 42.9128 57.0029 42.8536 57.0029 42.7924C57.0029 42.7769 57.0019 42.7613 56.9977 42.7437V42.7374L56.9957 42.7323V42.7302L56.9915 42.7208C56.9894 42.7146 56.9853 42.7032 56.9811 42.6959C56.9666 42.6669 56.9459 42.6462 56.9282 42.6285C56.8919 42.5953 56.8608 42.5777 56.839 42.5632C56.8183 42.5497 56.8058 42.5424 56.8058 42.5424C56.7934 42.5341 56.7758 42.5383 56.7685 42.5507C56.7623 42.56 56.7633 42.5715 56.7685 42.5808C56.7685 42.5808 56.7768 42.5943 56.7944 42.614C56.811 42.6337 56.837 42.6607 56.8608 42.6897C56.8722 42.7042 56.8816 42.7219 56.8878 42.7374L56.8909 42.7478L56.893 42.7572V42.7592V42.7623C56.895 42.7706 56.894 42.7821 56.895 42.7935C56.895 42.8412 56.8847 42.8972 56.8753 42.9522C56.8536 43.0642 56.8318 43.1773 56.8152 43.2614C56.7996 43.3464 56.7903 43.4045 56.7903 43.4045C56.7882 43.4191 56.7975 43.4336 56.8131 43.4357C56.8256 43.4377 56.838 43.4305 56.8421 43.4191L56.8442 43.418Z" fill="white"/>
<path d="M56.732 43.4346C56.732 43.4346 56.7465 43.3837 56.7611 43.3038C56.7735 43.225 56.7891 43.1192 56.7922 43.0113C56.7932 42.9573 56.7943 42.9034 56.788 42.8505C56.7849 42.8235 56.7818 42.7986 56.7694 42.7664C56.76 42.7457 56.7538 42.7395 56.7465 42.7291C56.7393 42.7187 56.732 42.7114 56.7237 42.7031C56.6636 42.6399 56.6044 42.6212 56.6044 42.6212C56.5899 42.617 56.5743 42.6253 56.5702 42.6399C56.5671 42.6502 56.5702 42.6596 56.5764 42.6668C56.5764 42.6668 56.6096 42.7021 56.649 42.7633C56.6532 42.7706 56.6584 42.7789 56.6636 42.7872C56.6677 42.7944 56.675 42.8069 56.6739 42.8069C56.677 42.8173 56.6812 42.8401 56.6833 42.8619C56.6864 42.9075 56.6874 42.9584 56.6874 43.0102C56.6874 43.1129 56.6853 43.2177 56.6822 43.2966C56.6812 43.3754 56.6802 43.4283 56.6802 43.4283C56.6802 43.4429 56.6916 43.4553 56.7071 43.4563C56.7196 43.4563 56.7299 43.448 56.7341 43.4366L56.732 43.4346Z" fill="white"/>
<path d="M57.1757 42.8712C57.1757 42.8712 57.183 42.8515 57.184 42.8204C57.1861 42.7903 57.183 42.7467 57.1633 42.7042C57.1581 42.6938 57.1539 42.6845 57.1467 42.6741C57.1405 42.6647 57.1332 42.6554 57.1259 42.6471C57.1114 42.6315 57.0948 42.6191 57.0803 42.6108C57.0512 42.5942 57.0284 42.5911 57.0284 42.5911C57.0129 42.589 56.9973 42.5994 56.9952 42.616C56.9942 42.6232 56.9952 42.6305 57.0004 42.6367C57.0004 42.6367 57.0118 42.6533 57.0253 42.6741C57.0398 42.6948 57.0533 42.7218 57.0658 42.7488C57.0782 42.7799 57.0917 42.811 57.101 42.8349C57.1114 42.8608 57.1228 42.8785 57.1228 42.8785C57.1311 42.8919 57.1498 42.8961 57.1633 42.8878C57.1695 42.8836 57.1736 42.8785 57.1757 42.8722V42.8712Z" fill="white"/>
<path d="M55.7031 41.2297C55.3598 41.3999 54.895 41.9373 54.7301 42.3066L55.7031 41.2297Z" fill="white"/>
<path d="M55.7031 41.2297C55.3598 41.3999 54.895 41.9373 54.7301 42.3066" stroke="white" stroke-width="1.38" stroke-linecap="round" stroke-linejoin="round"/>
<path d="M51.99 40.9529C52.0864 41.0224 52.2742 41.1375 52.5117 41.2683L51.99 40.9529Z" fill="white"/>
<path d="M51.99 40.9529C52.0864 41.0224 52.2742 41.1375 52.5117 41.2683" stroke="white" stroke-width="0.5" stroke-linecap="round" stroke-linejoin="round"/>
</svg>
