<svg width="390" height="844" viewBox="0 0 390 844" fill="none" xmlns="http://www.w3.org/2000/svg">
<path d="M0 30C0 13.4315 13.4315 0 30 0H360C376.569 0 390 13.4315 390 30V844H0V30Z" fill="#D9D9D9"/>
<path d="M0 30C0 13.4315 13.4315 0 30 0H360C376.569 0 390 13.4315 390 30V844H0V30Z" fill="black" fill-opacity="0.2"/>
<path d="M0 30C0 13.4315 13.4315 0 30 0H360C376.569 0 390 13.4315 390 30V844H0V30Z" fill="black" fill-opacity="0.2"/>
<path d="M0 30C0 13.4315 13.4315 0 30 0H360C376.569 0 390 13.4315 390 30V844H0V30Z" fill="black" fill-opacity="0.2"/>
<path d="M0 30C0 13.4315 13.4315 0 30 0H360C376.569 0 390 13.4315 390 30V844H0V30Z" fill="black" fill-opacity="0.2"/>
</svg>
