<svg width="12" height="12" viewBox="0 0 12 12" fill="none" xmlns="http://www.w3.org/2000/svg">
<mask id="path-1-inside-1_58_3461" fill="white">
<path d="M1 4.25C1 2.5 2 1.75 3.5 1.75H8.5C10 1.75 11 2.5 11 4.25V7.75C11 9.5 10 10.25 8.5 10.25H3.5"/>
</mask>
<path d="M0.25 4.25C0.25 4.66421 0.585786 5 1 5C1.41421 5 1.75 4.66421 1.75 4.25H0.25ZM3.5 9.5C3.08579 9.5 2.75 9.83579 2.75 10.25C2.75 10.6642 3.08579 11 3.5 11V9.5ZM1.75 4.25C1.75 3.51795 1.95538 3.11848 2.19784 2.89335C2.45035 2.65887 2.86497 2.5 3.5 2.5V1C2.63503 1 1.79965 1.21613 1.17716 1.79415C0.544615 2.38152 0.25 3.23205 0.25 4.25H1.75ZM3.5 2.5H8.5V1H3.5V2.5ZM8.5 2.5C9.13503 2.5 9.54965 2.65887 9.80216 2.89335C10.0446 3.11848 10.25 3.51795 10.25 4.25H11.75C11.75 3.23205 11.4554 2.38152 10.8228 1.79415C10.2004 1.21613 9.36497 1 8.5 1V2.5ZM10.25 4.25V7.75H11.75V4.25H10.25ZM10.25 7.75C10.25 8.48205 10.0446 8.88152 9.80216 9.10665C9.54965 9.34113 9.13503 9.5 8.5 9.5V11C9.36497 11 10.2004 10.7839 10.8228 10.2058C11.4554 9.61848 11.75 8.76795 11.75 7.75H10.25ZM8.5 9.5H3.5V11H8.5V9.5Z" fill="#A7A9B7" mask="url(#path-1-inside-1_58_3461)"/>
<path fill-rule="evenodd" clip-rule="evenodd" d="M1.25452 3.02276C0.999512 3.47811 0.999512 4.0854 0.999512 5.3V5.87537H2.49927C2.70637 5.87537 2.87427 6.04326 2.87427 6.25037C2.87427 6.45747 2.70637 6.62537 2.49927 6.62537H0.999512V7.2C0.999512 7.44937 0.999512 7.67313 1.00172 7.87524H3.99927C4.20637 7.87524 4.37427 8.04314 4.37427 8.25024C4.37427 8.45735 4.20637 8.62524 3.99927 8.62524H1.03156C1.06349 8.98484 1.12724 9.24997 1.25452 9.47724C1.43475 9.79906 1.70045 10.0648 2.02227 10.245C2.47762 10.5 3.08492 10.5 4.29951 10.5H7.69951C8.91411 10.5 9.5214 10.5 9.97675 10.245C10.2986 10.0648 10.5643 9.79906 10.7445 9.47724C10.9995 9.02189 10.9995 8.4146 10.9995 7.2V5.3C10.9995 4.0854 10.9995 3.47811 10.7445 3.02276C10.5643 2.70094 10.2986 2.43523 9.97675 2.25501C9.5214 2 8.91411 2 7.69951 2H4.29951C3.08492 2 2.47762 2 2.02227 2.25501C1.70045 2.43523 1.43475 2.70094 1.25452 3.02276ZM8.73379 4.79325C8.89561 4.664 8.92202 4.42804 8.79276 4.26621C8.66351 4.10439 8.42755 4.07798 8.26572 4.20724L6.70119 5.45686L6.70103 5.45699C6.32284 5.75793 5.67206 5.758 5.29374 5.4572L3.73425 4.2076C3.57262 4.0781 3.33662 4.10413 3.20711 4.26575C3.07761 4.42738 3.10364 4.66338 3.26527 4.79289L4.82526 6.04289L4.82619 6.04362C5.47788 6.56245 6.51662 6.56245 7.16832 6.04362L7.16879 6.04325L8.73379 4.79325Z" fill="#A7A9B7"/>
</svg>
