<svg width="131" height="166" viewBox="0 0 131 166" fill="none" xmlns="http://www.w3.org/2000/svg">
<rect width="131" height="131" rx="27" fill="black" fill-opacity="0.1"/>
<path d="M22.92 160.441C21.8133 160.441 20.8733 160.241 20.1 159.841C19.3267 159.441 18.6333 158.854 18.02 158.081L19.58 156.521C19.9667 157.081 20.4267 157.521 20.96 157.841C21.4933 158.148 22.1733 158.301 23 158.301C23.7733 158.301 24.3867 158.141 24.84 157.821C25.3067 157.501 25.54 157.061 25.54 156.501C25.54 156.034 25.42 155.654 25.18 155.361C24.94 155.068 24.62 154.828 24.22 154.641C23.8333 154.441 23.4 154.268 22.92 154.121C22.4533 153.961 21.98 153.788 21.5 153.601C21.0333 153.401 20.6 153.154 20.2 152.861C19.8133 152.568 19.5 152.188 19.26 151.721C19.02 151.254 18.9 150.661 18.9 149.941C18.9 149.114 19.1 148.414 19.5 147.841C19.9133 147.254 20.4667 146.808 21.16 146.501C21.8533 146.194 22.6267 146.041 23.48 146.041C24.4 146.041 25.22 146.221 25.94 146.581C26.6733 146.941 27.2667 147.401 27.72 147.961L26.16 149.521C25.76 149.068 25.34 148.734 24.9 148.521C24.4733 148.294 23.98 148.181 23.42 148.181C22.7267 148.181 22.18 148.321 21.78 148.601C21.3933 148.881 21.2 149.274 21.2 149.781C21.2 150.208 21.32 150.554 21.56 150.821C21.8 151.074 22.1133 151.294 22.5 151.481C22.9 151.654 23.3333 151.821 23.8 151.981C24.28 152.141 24.7533 152.321 25.22 152.521C25.7 152.721 26.1333 152.981 26.52 153.301C26.92 153.608 27.24 154.008 27.48 154.501C27.72 154.994 27.84 155.614 27.84 156.361C27.84 157.614 27.3933 158.608 26.5 159.341C25.62 160.074 24.4267 160.441 22.92 160.441ZM31.2933 160.241V146.641H33.4933V160.241H31.2933ZM28.9933 152.641V150.641H35.7933V152.641H28.9933ZM41.1384 160.441C40.2718 160.441 39.4851 160.221 38.7784 159.781C38.0851 159.341 37.5318 158.748 37.1184 158.001C36.7184 157.241 36.5184 156.394 36.5184 155.461C36.5184 154.514 36.7184 153.668 37.1184 152.921C37.5318 152.161 38.0851 151.561 38.7784 151.121C39.4851 150.668 40.2718 150.441 41.1384 150.441C41.8718 150.441 42.5184 150.601 43.0784 150.921C43.6518 151.228 44.1051 151.654 44.4384 152.201C44.7718 152.748 44.9384 153.368 44.9384 154.061V156.821C44.9384 157.514 44.7718 158.134 44.4384 158.681C44.1184 159.228 43.6718 159.661 43.0984 159.981C42.5251 160.288 41.8718 160.441 41.1384 160.441ZM41.4984 158.361C42.3118 158.361 42.9651 158.088 43.4584 157.541C43.9651 156.994 44.2184 156.294 44.2184 155.441C44.2184 154.868 44.1051 154.361 43.8784 153.921C43.6518 153.481 43.3318 153.141 42.9184 152.901C42.5184 152.648 42.0451 152.521 41.4984 152.521C40.9651 152.521 40.4918 152.648 40.0784 152.901C39.6784 153.141 39.3584 153.481 39.1184 153.921C38.8918 154.361 38.7784 154.868 38.7784 155.441C38.7784 156.014 38.8918 156.521 39.1184 156.961C39.3584 157.401 39.6784 157.748 40.0784 158.001C40.4918 158.241 40.9651 158.361 41.4984 158.361ZM44.0784 160.241V157.661L44.4584 155.321L44.0784 153.001V150.641H46.2784V160.241H44.0784ZM55.3 160.241V154.701C55.3 154.061 55.0933 153.534 54.68 153.121C54.28 152.708 53.76 152.501 53.12 152.501C52.6933 152.501 52.3133 152.594 51.98 152.781C51.6467 152.968 51.3867 153.228 51.2 153.561C51.0133 153.894 50.92 154.274 50.92 154.701L50.06 154.221C50.06 153.488 50.22 152.841 50.54 152.281C50.86 151.708 51.3 151.261 51.86 150.941C52.4333 150.608 53.0733 150.441 53.78 150.441C54.5 150.441 55.14 150.628 55.7 151.001C56.26 151.361 56.7 151.834 57.02 152.421C57.34 152.994 57.5 153.594 57.5 154.221V160.241H55.3ZM48.72 160.241V150.641H50.92V160.241H48.72ZM63.7556 160.441C62.889 160.441 62.1023 160.221 61.3956 159.781C60.7023 159.341 60.149 158.748 59.7356 158.001C59.3356 157.241 59.1356 156.394 59.1356 155.461C59.1356 154.514 59.3356 153.668 59.7356 152.921C60.149 152.161 60.7023 151.561 61.3956 151.121C62.1023 150.668 62.889 150.441 63.7556 150.441C64.489 150.441 65.1356 150.601 65.6956 150.921C66.269 151.228 66.7223 151.654 67.0556 152.201C67.389 152.748 67.5556 153.368 67.5556 154.061V156.821C67.5556 157.514 67.389 158.134 67.0556 158.681C66.7356 159.228 66.289 159.661 65.7156 159.981C65.1423 160.288 64.489 160.441 63.7556 160.441ZM64.1156 158.361C64.6623 158.361 65.1356 158.241 65.5356 158.001C65.949 157.748 66.269 157.401 66.4956 156.961C66.7223 156.521 66.8356 156.014 66.8356 155.441C66.8356 154.868 66.7223 154.361 66.4956 153.921C66.269 153.481 65.949 153.141 65.5356 152.901C65.1356 152.648 64.6623 152.521 64.1156 152.521C63.5823 152.521 63.109 152.648 62.6956 152.901C62.2956 153.141 61.9756 153.481 61.7356 153.921C61.509 154.361 61.3956 154.868 61.3956 155.441C61.3956 156.014 61.509 156.521 61.7356 156.961C61.9756 157.401 62.2956 157.748 62.6956 158.001C63.109 158.241 63.5823 158.361 64.1156 158.361ZM68.8956 160.241H66.6956V157.661L67.0756 155.321L66.6956 153.001V145.841H68.8956V160.241ZM71.6372 160.241V146.241H73.2372L79.0572 155.821H78.0172L83.8372 146.241H85.4372V160.241H83.1372V150.281L83.6572 150.421L79.3372 157.521H77.7372L73.4172 150.421L73.9372 150.281V160.241H71.6372ZM92.1931 160.441C91.3265 160.441 90.5398 160.221 89.8331 159.781C89.1398 159.341 88.5865 158.748 88.1731 158.001C87.7731 157.241 87.5731 156.394 87.5731 155.461C87.5731 154.514 87.7731 153.668 88.1731 152.921C88.5865 152.161 89.1398 151.561 89.8331 151.121C90.5398 150.668 91.3265 150.441 92.1931 150.441C92.9265 150.441 93.5731 150.601 94.1331 150.921C94.7065 151.228 95.1598 151.654 95.4931 152.201C95.8265 152.748 95.9931 153.368 95.9931 154.061V156.821C95.9931 157.514 95.8265 158.134 95.4931 158.681C95.1731 159.228 94.7265 159.661 94.1531 159.981C93.5798 160.288 92.9265 160.441 92.1931 160.441ZM92.5531 158.361C93.3665 158.361 94.0198 158.088 94.5131 157.541C95.0198 156.994 95.2731 156.294 95.2731 155.441C95.2731 154.868 95.1598 154.361 94.9331 153.921C94.7065 153.481 94.3865 153.141 93.9731 152.901C93.5731 152.648 93.0998 152.521 92.5531 152.521C92.0198 152.521 91.5465 152.648 91.1331 152.901C90.7331 153.141 90.4131 153.481 90.1731 153.921C89.9465 154.361 89.8331 154.868 89.8331 155.441C89.8331 156.014 89.9465 156.521 90.1731 156.961C90.4131 157.401 90.7331 157.748 91.1331 158.001C91.5465 158.241 92.0198 158.361 92.5531 158.361ZM95.1331 160.241V157.661L95.5131 155.321L95.1331 153.001V150.641H97.3331V160.241H95.1331ZM106.355 160.241V154.701C106.355 154.061 106.148 153.534 105.735 153.121C105.335 152.708 104.815 152.501 104.175 152.501C103.748 152.501 103.368 152.594 103.035 152.781C102.701 152.968 102.441 153.228 102.255 153.561C102.068 153.894 101.975 154.274 101.975 154.701L101.115 154.221C101.115 153.488 101.275 152.841 101.595 152.281C101.915 151.708 102.355 151.261 102.915 150.941C103.488 150.608 104.128 150.441 104.835 150.441C105.555 150.441 106.195 150.628 106.755 151.001C107.315 151.361 107.755 151.834 108.075 152.421C108.395 152.994 108.555 153.594 108.555 154.221V160.241H106.355ZM99.7747 160.241V150.641H101.975V160.241H99.7747Z" fill="white"/>
<path d="M85.6065 36.8151C85.7385 36.4413 85.9135 36.0261 85.7091 35.4607C85.852 35.0563 85.7657 34.5569 85.6941 34.0788C85.5012 32.7714 85.134 31.5056 84.8143 30.9459C84.8131 30.9435 84.8353 30.9493 84.8342 30.9469C84.5273 30.4139 81.6334 31.2936 81.6334 31.2936C81.6334 31.2936 81.6344 31.5365 81.6253 31.9113C81.5947 33.079 81.5083 35.5429 81.3267 36.0569C81.093 36.7182 76.1516 42.5344 75.1899 44.1635C75.1651 44.2052 75.1433 44.244 75.1245 44.2798C74.4847 45.4728 74.1323 46.4358 73.9829 47.2017C73.9785 47.2143 73.9783 47.2264 73.9756 47.2396C73.7472 48.4465 74.0262 49.1556 74.4799 49.5019C74.9472 49.8611 75.5975 49.8341 76.0633 49.5682C76.1187 49.5372 76.1287 49.4861 76.1873 49.4462C78.9503 47.6329 85.0342 38.4403 85.6089 36.814L85.6065 36.8151Z" fill="white"/>
<path d="M85.7875 34.1118C85.5946 32.8044 85.1806 31.5221 84.8609 30.9624L81.6306 31.9132C81.6 33.0809 81.5118 35.5442 81.3302 36.0581C81.0965 36.7195 76.1533 42.535 75.1916 44.1641C75.6793 43.5905 75.4329 45.4319 75.672 45.4072C76.047 45.3699 75.5602 43.7101 75.7695 43.6042C75.9513 43.5128 76.2338 44.7325 76.3673 44.5492C76.5521 44.2951 76.0493 43.4241 76.2101 43.0665C76.3325 42.7944 81.6876 36.9 81.8632 36.8206C82.0996 36.7121 82.6947 37.3731 82.9036 37.0851C83.0303 36.9095 81.8735 36.6827 81.9965 36.4432C82.1196 36.2036 83.1614 36.1554 83.172 35.9367C83.1825 35.7181 82.0012 36.1497 81.9316 35.9977C81.862 35.8458 82.2055 34.4733 82.3004 34.2906C82.3977 34.1066 85.0247 33.4561 85.7857 34.1111L85.7875 34.1118Z" fill="white"/>
<path d="M85.7877 34.1119C85.4559 33.558 84.1101 33.5514 84.3908 33.8325C85.1615 33.9108 85.5615 36.3081 85.2322 36.9538C82.6069 42.1127 76.4369 50.1874 74.4776 49.5032C74.9449 49.8623 75.5296 49.8607 76.0083 49.6215C78.7957 48.2252 85.1821 38.5371 85.7682 36.8784C86.1873 35.6923 85.7813 34.6049 85.7853 34.113L85.7877 34.1119Z" fill="white"/>
<path d="M85.5722 31.9578C85.3407 31.3888 84.9128 30.615 84.8443 30.5686C84.7431 30.5005 81.6668 31.0609 81.5344 31.184C81.3757 31.33 80.9093 34.0458 81.0835 34.1417C81.1259 34.1648 81.2151 34.164 81.3408 34.1457C82.3331 34.0031 85.6021 32.7426 85.7101 32.5341C85.7489 32.4589 85.683 32.2334 85.5716 31.9596L85.5722 31.9578Z" fill="white"/>
<path d="M85.5721 31.9576C85.3406 31.3887 84.9127 30.6149 84.8442 30.5684C84.7429 30.5003 81.6667 31.0608 81.5343 31.1838C81.3756 31.3299 80.9091 34.0456 81.0834 34.1416C81.1258 34.1646 81.3117 34.1818 81.5421 34.1076C81.1364 33.5053 81.6891 32.1643 81.7935 31.989C81.9116 31.7922 83.32 32.0048 83.7408 31.8664C84.1616 31.7281 84.7775 31.2948 84.8832 31.316C84.9739 31.3339 85.407 31.687 85.5739 31.9583L85.5721 31.9576Z" fill="white"/>
<path d="M83.5931 26.3243C83.7237 26.2007 83.8447 25.9382 83.9562 25.6057C84.1422 25.0508 83.845 23.4378 83.8951 23.0673C83.9345 22.7841 84.429 22.1685 84.472 21.8178C84.5275 21.3805 84.1036 20.5839 83.7138 20.5715C83.5638 20.567 82.7693 21.4486 82.6883 21.5575C82.6222 21.6473 82.327 22.1797 82.2472 22.4912C82.2415 22.5073 82.2199 22.5057 82.2178 22.4888C82.1946 22.3027 82.1571 22.0712 82.1864 21.9885C82.2696 21.7471 83.249 20.7145 82.775 20.5228C82.6493 20.4723 81.4911 21.6337 81.4723 21.9101C81.3875 23.1738 81.6218 25.7369 81.686 25.9557C81.8081 26.3708 83.3748 26.5302 83.592 26.3219L83.5931 26.3243Z" fill="white"/>
<path d="M82.8044 22.894C82.8044 22.894 82.8719 22.7602 82.9635 22.5581C83.0093 22.4571 83.0608 22.3398 83.118 22.2124C83.1462 22.1497 83.1751 22.0851 83.2058 22.0211C83.2365 21.9572 83.2647 21.8944 83.3017 21.8468C83.3813 21.7476 83.49 21.6344 83.5816 21.5353C83.6762 21.4333 83.7641 21.3391 83.8391 21.2584C83.9879 21.0947 84.0869 20.9862 84.0869 20.9862C84.1072 20.963 84.1072 20.9287 84.0847 20.9066C84.0645 20.8893 84.0368 20.8876 84.0161 20.9005C84.0161 20.9005 83.9826 20.921 83.93 20.9611C83.8793 21.0017 83.8029 21.0576 83.7184 21.1309C83.6339 21.2041 83.5336 21.2879 83.4324 21.3856C83.3809 21.4341 83.3287 21.4844 83.2771 21.5389C83.2255 21.5935 83.1746 21.6462 83.1197 21.7158C83.0659 21.7877 83.0357 21.8619 83.0037 21.9295C82.9735 21.9977 82.947 22.0671 82.9217 22.133C82.8711 22.2647 82.8333 22.3888 82.7977 22.4955C82.7306 22.7083 82.6972 22.8542 82.6972 22.8542C82.6906 22.8842 82.7082 22.9146 82.7375 22.923C82.7633 22.9301 82.7901 22.9173 82.8008 22.8928L82.8044 22.894Z" fill="white"/>
<path d="M83.3279 23.2771C83.3279 23.2771 83.3435 23.2503 83.3679 23.1983C83.3906 23.1456 83.4262 23.0733 83.4598 22.9841C83.4933 22.8949 83.5337 22.7919 83.5749 22.6811C83.6154 22.5722 83.6568 22.4493 83.7056 22.3513C83.7143 22.3382 83.7113 22.3352 83.723 22.3191L83.7491 22.2798L83.8004 22.209C83.8374 22.1614 83.8726 22.1132 83.9072 22.0668C83.9788 21.9728 84.0454 21.8872 84.104 21.8129C84.2194 21.6637 84.2936 21.5625 84.2936 21.5625C84.3127 21.5369 84.3073 21.5007 84.2818 21.4815C84.2609 21.4661 84.2344 21.4668 84.2149 21.4821C84.2149 21.4821 84.1104 21.5604 83.9717 21.6954C83.903 21.7641 83.8233 21.841 83.7427 21.9318C83.7027 21.9763 83.6614 22.0244 83.6214 22.0749L83.5602 22.1564L83.5336 22.1976C83.5255 22.2089 83.5124 22.2345 83.5037 22.2477C83.4411 22.3792 83.407 22.4985 83.3724 22.6136C83.3396 22.7294 83.3135 22.8374 83.289 22.9298C83.2441 23.1141 83.2165 23.2378 83.2165 23.2378C83.21 23.2678 83.2293 23.2989 83.2593 23.3054C83.284 23.3101 83.3083 23.2985 83.3213 23.2788L83.3279 23.2771Z" fill="white"/>
<path d="M84.5985 30.658C84.2457 28.9222 83.7055 27.288 83.5932 26.3245C83.4939 25.4728 81.6332 25.4763 81.6872 25.9583C81.8269 27.2104 81.9302 29.3492 81.8533 31.2485C81.8389 31.6154 84.7137 31.2243 84.5985 30.658Z" fill="white"/>
<path d="M67.9225 58.3174C67.9225 58.3174 65.7175 62.8726 65.3383 64.4622C65.1001 65.4628 65.2182 67.5537 65.3383 68.5753C65.3955 69.0632 65.7366 69.9971 65.7957 70.4831C65.8471 70.912 65.8471 84.1394 65.8166 84.633C65.788 85.0885 64.4083 88.9367 64.4064 90.9665C64.4026 95.455 66.821 107.064 66.821 107.064L69.6376 106.685C69.6319 106.866 70.2798 98.6742 70.4475 95.6514C70.5657 93.5072 71.5224 84.389 71.4537 83.7086C71.3851 83.0263 73.9521 69.3415 73.9521 69.3415L73.2337 58.6281L67.9225 58.3174Z" fill="white"/>
<path d="M73.0999 58.8567L71.3009 64.9711L71.7678 69.0574L71.3009 71.0606C71.3009 71.0606 73.765 81.4767 73.5916 85.0122C73.5116 86.6304 72.8121 89.4341 72.9093 91.4601C73.0313 94.0255 77.0047 106.959 77.0047 106.959L79.6404 106.826C79.6404 106.826 80.1263 96.9493 80.0882 94.7631C80.052 92.617 79.1087 84.1355 79.0858 83.4494C79.0629 82.706 79.1773 70.1724 78.9791 66.5282C78.8323 63.8446 77.8242 58.2964 77.8242 58.2964L73.0999 58.8567Z" fill="white"/>
<path d="M72.3984 77.8173C72.9168 74.9031 74.0087 67.6795 74.2622 66.5264" stroke="white" stroke-width="1.38" stroke-linecap="round" stroke-linejoin="round"/>
<path d="M66.3157 105.522C66.249 105.677 66.7007 107.057 66.7998 107.129C66.9446 107.236 69.5859 107.091 69.7365 106.883C69.8089 106.782 70.0757 105.301 69.8947 105.134C69.5974 104.859 66.4453 105.223 66.3157 105.52V105.522Z" fill="white"/>
<path d="M69.6777 105.358C69.2547 105.358 66.8191 105.608 66.5314 105.728" stroke="white" stroke-width="1.38" stroke-linecap="round" stroke-linejoin="round"/>
<path d="M67.3371 108.64C67.3542 108.991 67.3504 109.282 67.3028 109.384C67.5601 110.897 68.8216 110.46 69.3267 108.711C69.3076 108.648 69.2924 108.581 69.2771 108.516C69.2276 108.28 69.2047 108.034 69.1952 107.803C69.1761 107.323 69.2161 106.91 69.1761 106.803C69.1551 106.746 67.1579 106.767 67.1789 106.957C67.1865 107.037 67.2342 107.42 67.2761 107.863C67.3009 108.12 67.3237 108.396 67.3352 108.644L67.3371 108.64Z" fill="white"/>
<path d="M67.2782 107.859C67.303 108.116 67.3259 108.393 67.3373 108.64C67.9071 108.589 68.7152 108.524 69.2773 108.515C69.2278 108.278 69.2049 108.032 69.1954 107.802C68.6275 107.777 67.8328 107.806 67.2782 107.859Z" fill="white"/>
<path d="M68.7442 109.529L67.1815 109.651L67.4006 110.489L68.8242 110.306L68.7442 109.529Z" fill="white"/>
<path d="M71.2631 110.363C71.2269 110.342 71.0973 110.325 70.9162 110.314C70.9162 110.314 70.9143 110.312 70.9124 110.31C69.8128 110.167 69.5422 108.907 69.4107 108.713C69.2411 108.463 69.1744 108.474 68.9495 108.522C68.5665 108.604 68.3588 110.148 68.0176 110.123C67.6822 110.1 67.4821 109.544 67.4364 109.374C67.3983 109.229 67.2935 109.214 67.2725 109.298C67.1505 109.792 66.9371 110.224 66.8647 110.596C66.8628 110.596 66.8608 110.596 66.8608 110.596C66.7522 111.015 66.878 111.242 67.1143 111.242H71.3927C71.6118 111.242 71.5947 110.558 71.2631 110.365V110.363Z" fill="white"/>
<path d="M69.5137 106.734C69.0906 106.734 67.2478 106.835 66.96 106.957" stroke="white" stroke-width="1.38" stroke-linecap="round" stroke-linejoin="round"/>
<path d="M76.3872 105.618C76.3243 105.774 76.8179 107.14 76.917 107.209C77.0657 107.31 79.7013 107.091 79.8442 106.877C79.9147 106.774 80.1358 105.286 79.9509 105.124C79.6441 104.857 76.5054 105.314 76.3853 105.616L76.3872 105.618Z" fill="white"/>
<path d="M79.7432 105.354C79.3201 105.366 76.8941 105.686 76.6083 105.816" stroke="white" stroke-width="1.38" stroke-linecap="round" stroke-linejoin="round"/>
<path d="M77.5386 108.478C77.5672 108.894 77.571 109.258 77.5177 109.372C77.773 110.886 79.0403 110.461 79.5435 108.711C79.5092 108.593 79.4825 108.467 79.4634 108.341C79.4272 108.097 79.4158 107.846 79.4158 107.617C79.4158 107.192 79.4463 106.839 79.412 106.744C79.391 106.687 77.3328 106.736 77.3671 106.912C77.3805 106.982 77.4262 107.308 77.4681 107.703C77.4948 107.951 77.5215 108.225 77.5386 108.48V108.478Z" fill="white"/>
<path d="M77.4681 107.701C77.4948 107.949 77.5215 108.223 77.5386 108.478C78.0436 108.431 78.8478 108.362 79.4634 108.339C79.4272 108.095 79.4157 107.844 79.4157 107.615C78.7888 107.6 77.9693 107.64 77.4681 107.701Z" fill="white"/>
<path d="M79.1378 109.347L77.577 109.471L77.8438 110.489L79.2197 110.125L79.1378 109.347Z" fill="white"/>
<path d="M83.2807 110.363C83.2444 110.342 83.1148 110.325 82.9338 110.314C81.0376 110.146 80.1877 109.016 80.0543 108.819C79.8846 108.57 79.6274 108.173 79.311 108.284C78.9413 108.412 78.8194 109.59 78.7374 109.873C78.6745 110.093 78.1257 110.241 77.836 109.994C77.6835 109.864 77.6969 109.542 77.6511 109.372C77.613 109.227 77.5082 109.212 77.4873 109.296C77.3653 109.79 77.1518 110.222 77.0794 110.594C77.0775 110.594 77.0756 110.594 77.0756 110.594C76.967 111.013 77.0928 111.24 77.3291 111.24H83.4102C83.6294 111.24 83.6123 110.556 83.2807 110.363Z" fill="white"/>
<path d="M79.6196 106.734C79.1966 106.746 77.3575 106.902 77.0736 107.032" stroke="white" stroke-width="1.38" stroke-linecap="round" stroke-linejoin="round"/>
<path d="M73.3304 73.2905C73.6906 74.9125 74.9522 83.2663 74.8321 84.3489C74.7121 85.4315 73.9993 88.9156 74.0851 90.4194C74.1708 91.9213 77.0732 105.048 77.0732 105.048" stroke="white" stroke-width="1.38" stroke-linecap="round" stroke-linejoin="round"/>
<path d="M67.8647 61.6794C67.4398 62.5333 66.4316 65.6991 66.485 66.6692C66.5384 67.6394 66.6489 72.5072 66.7442 73.2887C66.8395 74.0701 66.6718 83.4455 66.546 84.7664C66.4183 86.0891 65.5398 89.1539 65.4388 90.0554C65.3378 90.9569 66.7404 102.606 66.9595 104.779" stroke="white" stroke-width="1.38" stroke-linecap="round" stroke-linejoin="round"/>
<path d="M65.75 50.8996C66.7581 53.6804 67.711 56.5164 67.6024 58.2966C67.57 58.8284 66.6057 60.254 66.9811 60.3379C68.8582 60.7572 76.9099 61.9522 78.3526 61.4357C78.5584 61.3614 78.0819 59.0914 78.0591 58.2966C78.0305 57.3512 78.4154 54.0349 78.6136 50.3545C78.7261 48.275 78.7775 46.0775 78.6632 44.1239C78.6022 43.0641 78.2858 41.6938 77.4569 41.0476C77.3044 40.9295 77.07 40.7922 76.7841 40.6531C76.4888 40.5083 76.1381 40.3615 75.7722 40.2262C75.3034 40.0527 74.8079 39.9003 74.3677 39.803C74.1504 39.7554 71.0346 39.3532 69.3976 39.6563C68.9936 39.7306 68.5362 39.8679 68.0597 40.047C67.1431 40.3901 66.154 40.8933 65.3422 41.4155C64.4694 41.9758 63.8005 42.561 63.648 42.9993C63.2211 44.2173 64.5285 47.5184 65.7538 50.8996H65.75Z" fill="#FF9900"/>
<path d="M73.5291 44.9834C73.2889 44.9777 72.5476 46.4853 72.4885 46.756C72.4295 47.0266 73.2699 48.6181 73.4509 48.7096C73.632 48.8011 74.3828 46.937 74.3828 46.8017C74.3828 46.6664 73.733 44.9872 73.531 44.9834H73.5291Z" fill="#FF9900"/>
<path d="M73.5291 49.0698C73.2889 49.0641 72.5476 50.5717 72.4885 50.8424C72.4295 51.113 73.2699 52.7045 73.4509 52.796C73.632 52.8875 74.3828 51.0235 74.3828 50.8881C74.3828 50.7528 73.733 49.0737 73.531 49.0698H73.5291Z" fill="#FF9900"/>
<path d="M73.5291 53.1582C73.2889 53.1525 72.5476 54.6601 72.4885 54.9308C72.4295 55.2014 73.2699 56.7929 73.4509 56.8844C73.632 56.974 74.3828 55.1118 74.3828 54.9765C74.3828 54.8412 73.733 53.162 73.531 53.1582H73.5291Z" fill="#FF9900"/>
<path d="M75.6326 53.2781C75.3924 53.2724 74.6511 54.78 74.5921 55.0506C74.5311 55.3213 75.3734 56.9128 75.5544 57.0043C75.7355 57.0938 76.4863 55.2317 76.4863 55.0964C76.4863 54.9611 75.8365 53.2819 75.6345 53.2781H75.6326Z" fill="#FF9900"/>
<path d="M75.7016 49.0698C75.4424 49.0641 74.642 50.6937 74.5772 50.9853C74.5124 51.2769 75.4215 52.998 75.6159 53.0952C75.8103 53.1924 76.6221 51.1797 76.6221 51.0329C76.6221 50.8862 75.9208 49.0736 75.7016 49.0679V49.0698Z" fill="#FF9900"/>
<path d="M77.7443 49.0698C77.4852 49.0641 76.8506 50.7166 76.7858 51.0082C76.721 51.2998 77.4642 52.998 77.6586 53.0971C77.853 53.1943 78.499 51.2312 78.499 51.0863C78.499 50.9415 77.9635 49.0756 77.7462 49.0717L77.7443 49.0698Z" fill="#FF9900"/>
<path d="M77.6394 53.2781C77.3803 53.2724 76.6103 54.7438 76.5455 55.0354C76.4808 55.327 77.224 57.0252 77.4184 57.1243C77.6127 57.2215 78.2588 55.2584 78.2588 55.1135C78.2588 54.9687 77.8586 53.2838 77.6413 53.2781H77.6394Z" fill="#FF9900"/>
<path d="M77.7598 57.2446C77.5006 57.2389 76.7307 58.7103 76.6659 59.0019C76.6011 59.2935 77.4034 61.3081 77.5978 61.4053C77.7922 61.5025 78.1523 59.3221 78.1523 59.1753C78.1523 59.0286 77.9789 57.2484 77.7617 57.2427L77.7598 57.2446Z" fill="#FF9900"/>
<path d="M75.7016 44.8635C75.4424 44.8578 74.642 46.4874 74.5772 46.779C74.5124 47.0706 75.4215 48.7917 75.6159 48.8889C75.8103 48.9861 76.6221 46.9734 76.6221 46.8266C76.6221 46.6799 75.9208 44.8673 75.7016 44.8616V44.8635Z" fill="#FF9900"/>
<path d="M77.8034 44.9243C77.5443 44.9186 76.7439 46.5482 76.6791 46.8398C76.6143 47.1314 77.5233 48.8525 77.7177 48.9497C77.9121 49.0469 78.5581 47.0533 78.5581 46.9084C78.5581 46.7636 78.0226 44.9281 77.8054 44.9243H77.8034Z" fill="#FF9900"/>
<path d="M77.4051 41.2075C77.1459 41.2018 76.7438 42.2806 76.6771 42.5722C76.6123 42.8638 77.5213 44.5849 77.7157 44.6821C77.9101 44.7793 78.3599 42.8448 78.3599 42.6999C78.3599 42.5551 77.6224 41.2114 77.4032 41.2075H77.4051Z" fill="#FF9900"/>
<path d="M75.4329 40.4016C75.1737 40.3959 74.6401 42.1608 74.5753 42.4524C74.5105 42.7441 75.4195 44.4651 75.6139 44.5623C75.8083 44.6595 76.6201 42.6468 76.6201 42.5001C76.6201 42.3533 75.6501 40.4054 75.4329 40.4016Z" fill="#FF9900"/>
<path d="M73.3555 57.0635C73.1002 57.0578 72.3112 58.6626 72.2464 58.9504C72.1816 59.2382 73.0773 60.9326 73.2698 61.0298C73.4622 61.1251 74.2607 59.1429 74.2607 58.998C74.2607 58.8532 73.569 57.0673 73.3536 57.0635H73.3555Z" fill="#FF9900"/>
<path d="M75.6382 57.1245C75.3829 57.1188 74.5939 58.7236 74.5291 59.0114C74.4643 59.2992 75.3428 61.1309 75.5353 61.2262C75.7278 61.3215 76.5435 59.2039 76.5435 59.0591C76.5435 58.9142 75.8517 57.1283 75.6363 57.1245H75.6382Z" fill="#FF9900"/>
<path d="M71.366 53.1582C71.1258 53.1525 70.3845 54.6601 70.3254 54.9308C70.2664 55.2014 71.1068 56.7929 71.2878 56.8844C71.4689 56.974 72.2197 55.1118 72.2197 54.9765C72.2197 54.8412 71.5699 53.162 71.3679 53.1582H71.366Z" fill="#FF9900"/>
<path d="M71.3108 57.0232C71.0706 57.0022 70.2245 58.506 70.1464 58.7805C70.0682 59.0549 70.7924 60.7569 70.9658 60.8618C71.1393 60.9666 72.0216 59.0969 72.0311 58.9577C72.0407 58.8186 71.5128 57.0422 71.3108 57.0232Z" fill="#FF9900"/>
<path d="M71.366 49.0698C71.1258 49.0641 70.3845 50.5717 70.3254 50.8424C70.2664 51.113 71.1068 52.7045 71.2878 52.796C71.4689 52.8856 72.2197 51.0235 72.2197 50.8881C72.2197 50.7528 71.5699 49.0737 71.3679 49.0698H71.366Z" fill="#FF9900"/>
<path d="M71.5471 45.0442C71.307 45.0385 70.5657 46.5461 70.5066 46.8168C70.4456 47.0874 71.2879 48.6789 71.469 48.7704C71.65 48.8599 72.4009 46.9978 72.4009 46.8625C72.4009 46.7272 71.751 45.048 71.549 45.0442H71.5471Z" fill="#FF9900"/>
<path d="M70.5655 42.9706C70.5045 43.2413 71.3468 44.8328 71.5279 44.9243C71.7089 45.0138 72.0596 44.1924 72.0596 44.057C72.0596 43.9217 70.6265 42.7 70.5655 42.9706Z" fill="#FF9900"/>
<path d="M69.4431 45.0442C69.203 45.0385 68.4617 46.5461 68.4026 46.8168C68.3435 47.0874 69.1839 48.6789 69.365 48.7704C69.546 48.8599 70.2969 46.9978 70.2969 46.8625C70.2969 46.7272 69.647 45.048 69.445 45.0442H69.4431Z" fill="#FF9900"/>
<path d="M67.1982 40.5978C67.1372 40.8685 68.7628 41.2287 68.9419 41.3183C69.123 41.4079 68.4578 40.331 68.4578 40.1957C68.4578 40.0604 67.2572 40.3253 67.1982 40.5959V40.5978Z" fill="#FF9900"/>
<path d="M67.4611 45.1646C67.221 45.1588 66.8056 46.7579 66.7446 47.0286C66.6836 47.2992 67.2 48.7992 67.3811 48.8907C67.5621 48.9803 68.313 47.1182 68.313 46.9829C68.313 46.8475 67.6631 45.1684 67.4611 45.1646Z" fill="#FF9900"/>
<path d="M69.2029 49.0698C68.9628 49.0641 68.2214 50.5717 68.1624 50.8424C68.1014 51.113 68.9437 52.7045 69.1247 52.796C69.3058 52.8856 70.0566 51.0235 70.0566 50.8881C70.0566 50.7528 69.4068 49.0737 69.2048 49.0698H69.2029Z" fill="#FF9900"/>
<path d="M67.3028 49.0757C67.0627 49.07 66.1193 50.5738 66.0584 50.8444C65.9974 51.1151 66.8397 52.7066 67.0207 52.798C67.2018 52.8895 67.9526 51.0255 67.9526 50.8902C67.9526 50.7549 67.5048 49.0814 67.3028 49.0757Z" fill="#FF9900"/>
<path d="M69.2029 53.0972C68.9628 53.0915 68.2214 54.5991 68.1624 54.8697C68.1014 55.1404 68.9437 56.7319 69.1247 56.8233C69.3058 56.9129 70.0566 55.0508 70.0566 54.9155C70.0566 54.7801 69.4068 53.101 69.2048 53.0972H69.2029Z" fill="#FF9900"/>
<path d="M67.28 53.0971C67.0399 53.0914 66.9274 54.3856 67.0036 54.6524C67.1713 55.2451 67.3753 56.3925 67.5563 56.4821C67.7373 56.5717 68.1318 55.0488 68.1318 54.9135C68.1318 54.7782 67.482 53.099 67.28 53.0952V53.0971Z" fill="#FF9900"/>
<path d="M69.0468 57.0121C68.8086 56.9873 67.9529 58.3367 67.8729 58.5845C67.7928 58.8322 68.5075 60.3913 68.6809 60.4904C68.8543 60.5895 69.7462 58.9085 69.7557 58.7827C69.7653 58.6569 69.2488 57.033 69.0468 57.0121Z" fill="#FF9900"/>
<path d="M69.0182 41.2954C68.778 41.2897 68.5227 42.58 68.4617 42.8507C68.4007 43.1213 69.243 44.7128 69.4241 44.8043C69.6051 44.8939 70.356 43.0318 70.356 42.8964C70.356 42.7611 69.2221 41.2992 69.0201 41.2954H69.0182Z" fill="#FF9900"/>
<path d="M66.7446 41.2954C66.5045 41.2897 66.594 42.845 66.7446 43.392C66.8189 43.6588 67.261 44.8939 67.4402 44.9854C67.6193 45.0769 68.3721 43.2128 68.3721 43.0775C68.3721 42.9422 66.9466 41.3011 66.7446 41.2973V41.2954Z" fill="#FF9900"/>
<path d="M73.5464 45.7648C74.5583 45.6143 75.9743 42.1588 75.7684 40.2242C75.2996 40.0508 74.8041 39.8983 74.3639 39.8011C74.1467 39.7534 71.0308 39.3513 69.3938 39.6543C68.9898 39.7287 68.5324 39.8659 68.056 40.0451C67.5567 40.7388 72.5344 45.9135 73.5464 45.7629V45.7648Z" fill="#FF9900"/>
<path d="M65.7495 50.8994C68.5433 46.8493 67.6285 42.1091 66.1783 41.5183C65.9382 41.4192 65.6066 41.3239 65.3379 41.4154C64.465 41.9757 63.7961 42.5608 63.6437 42.9992C63.2168 44.2171 64.5241 47.5182 65.7495 50.8994Z" fill="#FF9900"/>
<path d="M76.7822 40.653C78.0381 42.4847 78.2515 47.8671 78.6117 50.3525C78.7241 48.2731 78.7756 46.0755 78.6612 44.1219C78.6003 43.0622 78.2839 41.6918 77.4549 41.0457C77.3024 40.9275 77.0681 40.7903 76.7822 40.6511V40.653Z" fill="#FF9900"/>
<path d="M66.5084 61.228C69.1059 62.4135 76.6049 62.6518 78.4459 62.0514C78.4459 62.0514 78.5202 61.0889 78.3887 60.9479C78.2572 60.8068 76.8279 61.5158 72.4581 61.0317C68.0883 60.5476 67.2612 59.7681 66.9696 59.8767C66.678 59.9854 66.5084 61.2261 66.5084 61.2261V61.228Z" fill="#FF9900"/>
<path d="M68.745 40.3269C68.8117 40.4203 69.7684 41.4362 70.807 42.454C71.9123 43.5366 73.111 44.6192 73.435 44.5944C74.0124 44.5486 74.7252 41.2094 74.729 40.3631C74.729 40.285 74.7233 40.2278 74.7119 40.1973C74.5727 39.8543 74.1401 38.7221 73.8657 38.5182C73.8123 38.4801 73.5875 38.4191 73.2711 38.3524C72.6041 38.2132 71.5274 38.0512 70.788 38.0226C70.382 38.0055 70.079 38.0283 69.999 38.116C69.8561 38.2704 68.6059 40.1382 68.745 40.3288V40.3269Z" fill="white"/>
<path d="M68.745 40.3269C68.8117 40.4203 71.3101 42.191 71.9504 42.13C72.1887 42.1071 72.6994 39.9057 72.7585 39.8771C72.8195 39.8466 73.5837 42.2215 73.8695 42.191C74.1554 42.1605 74.5708 41.2094 74.729 40.3631C74.729 40.285 74.7233 40.2278 74.7119 40.1973C74.5727 39.8543 74.1401 38.7221 73.8657 38.5182C73.8123 38.4801 73.5875 38.4191 73.2711 38.3524L73.3073 38.4038C73.4045 38.4667 73.6161 38.562 73.78 38.6668C73.881 38.7316 74.4927 39.8619 74.5727 40.0868C74.668 40.3593 74.0963 41.1789 73.9153 41.1789C73.7228 41.1789 72.97 39.6389 72.7756 39.6389C72.5813 39.6389 71.9543 41.5296 71.8171 41.5906C71.6798 41.6516 68.9146 40.4222 68.8536 40.2583C68.7927 40.0925 69.8675 38.6497 70.0867 38.3905C70.3058 38.1332 70.8223 38.1046 70.8223 38.1046L70.7899 38.0226C70.3839 38.0055 70.0809 38.0283 70.0009 38.116C69.858 38.2704 68.6078 40.1382 68.7469 40.3288L68.745 40.3269Z" fill="white"/>
<path d="M73.5417 38.6346C73.5322 38.5965 73.5322 38.5564 73.5283 38.5164C73.4293 37.5882 73.4388 36.4218 73.4064 35.7204C73.4064 35.7146 73.4064 35.7108 73.4064 35.7108L73.3988 35.707L70.0866 33.7134C70.0866 33.7134 70.544 36.4904 70.2886 38.2515C70.2658 38.404 71.7922 39.3112 72.7642 39.376C73.252 39.4084 73.5836 38.8023 73.5436 38.6365L73.5417 38.6346Z" fill="white"/>
<path d="M73.5284 38.5164C73.4293 37.5882 73.4388 36.4218 73.4064 35.7204C73.4064 35.7147 73.4064 35.7109 73.4064 35.7109L73.3988 35.7071L70.3992 34.228C70.1324 36.3551 71.8399 38.3373 73.5303 38.5183L73.5284 38.5164Z" fill="white"/>
<path d="M70.0271 32.6384C70.0862 33.5075 70.292 34.5139 70.4921 35.2343C70.6846 35.9243 72.3197 37.5196 73.6404 37.8474C73.8957 37.9103 74.8314 37.6663 75.0411 37.5024C75.3517 37.2585 75.891 34.1784 75.7709 33.3227C75.7023 32.8366 75.6433 31.8989 75.6071 31.4529C75.5689 30.9764 75.3136 30.4561 75.1192 30.3208C74.8352 30.1206 74.4198 29.9243 74.0024 29.7394C73.5012 29.5184 72.9581 29.3563 72.5007 29.3773C71.605 29.4154 70.5455 30.3513 70.0881 30.9898C69.9452 31.1861 70.0099 32.3906 70.0271 32.6403V32.6384Z" fill="white"/>
<path d="M69.9033 31.8495C69.8995 31.8628 69.9719 32.0325 70.0615 32.2364C70.2082 32.5681 70.7437 32.9473 70.818 32.7339C70.9914 32.2383 72.0263 30.8603 72.3255 30.8508C72.4951 30.8012 73.587 31.6513 74.5075 31.5503C75.1135 31.4836 75.2698 30.9175 75.1249 30.38C75.1249 30.38 75.1307 30.2828 75.0754 30.2428C74.7914 30.0617 74.4351 29.7815 74.0177 29.6138L72.7847 29.5662L71.0639 29.8768L70.5741 29.9645C70.5741 29.9645 70.5055 30.1589 70.4102 30.4238C70.2939 30.7498 70.1396 31.1805 70.0329 31.4836C69.9585 31.6913 69.9071 31.84 69.9033 31.8495Z" fill="white"/>
<path d="M69.2422 32.8444C68.7695 33.2904 69.9053 35.2402 70.4294 34.2758C70.9497 33.319 69.8158 32.3031 69.2422 32.8444Z" fill="white"/>
<path d="M70.1494 33.6847C70.0789 33.2864 69.4881 33.0367 69.3623 33.0672" stroke="white" stroke-width="1.04" stroke-linecap="round" stroke-linejoin="round"/>
<path d="M69.6538 33.6849C69.711 33.5171 69.8882 33.4409 70.0063 33.4485" stroke="white" stroke-width="1.04" stroke-linecap="round" stroke-linejoin="round"/>
<path d="M69.1584 30.641C69.3852 29.8367 69.7339 29.5374 70.2389 29.2134C71.3652 28.4892 74.1971 28.2014 74.7136 28.6378C75.4511 29.2611 75.9923 32.7623 75.777 33.3703C75.6474 32.7395 75.3463 31.0508 75.1252 30.3799C74.9823 30.7554 74.6812 30.986 74.2448 31.0508C73.4882 31.1632 72.3696 30.4542 72.1161 30.5038C71.9636 30.5324 71.2738 31.6893 70.8431 32.5146C70.6906 32.8081 71.1956 33.8926 71.0965 34.0775C71.0146 34.228 70.6353 34.1213 70.561 34.0012C70.4676 33.8525 70.1246 32.8958 69.8635 32.749C69.652 32.6289 69.3604 32.7604 69.2403 32.8481C69.0784 32.6041 68.8363 31.7865 69.1584 30.6429V30.641Z" fill="white"/>
<path d="M72.5181 33.7401C71.4261 33.1855 69.7852 32.6689 69.5451 32.6689" stroke="white" stroke-width="0.52" stroke-linecap="round" stroke-linejoin="round"/>
<path d="M74.8016 33.538C74.916 33.942 75.2762 34.1936 75.6059 34.1002C75.9355 34.0068 76.1128 33.6047 75.9984 33.2006C75.8841 32.7966 75.5239 32.545 75.1942 32.6384C74.8645 32.7318 74.6873 33.1339 74.8016 33.538Z" stroke="white" stroke-width="0.52" stroke-linecap="round" stroke-linejoin="round"/>
<path d="M75.2603 32.8311C75.1859 32.8539 75.1059 32.9016 75.043 32.9816" stroke="white" stroke-width="0.59" stroke-miterlimit="10" stroke-linecap="round"/>
<path d="M75.4507 32.8309C75.4411 32.827 75.4295 32.8251 75.4179 32.8193" stroke="white" stroke-width="0.59" stroke-miterlimit="10" stroke-linecap="round"/>
<path d="M74.7822 33.1036C74.5383 32.6043 73.9971 32.9835 73.9437 33.3228" stroke="white" stroke-width="0.52" stroke-linecap="round" stroke-linejoin="round"/>
<path d="M72.5659 33.9612C72.686 34.3862 73.1147 34.6378 73.5225 34.5234C73.9304 34.4091 74.1648 33.9707 74.0447 33.5457C73.9247 33.1206 73.4959 32.869 73.0881 32.9834C72.6802 33.0978 72.4458 33.5361 72.5659 33.9612Z" stroke="white" stroke-width="0.52" stroke-linecap="round" stroke-linejoin="round"/>
<path d="M72.7881 33.4524C72.7671 33.4943 72.7481 33.5401 72.7366 33.5896" stroke="white" stroke-width="0.59" stroke-miterlimit="10" stroke-linecap="round"/>
<path d="M73.187 33.1514C73.0822 33.1781 72.9697 33.2314 72.8821 33.321" stroke="white" stroke-width="0.59" stroke-miterlimit="10" stroke-linecap="round"/>
<path d="M73.4575 33.1512C73.444 33.1454 73.4285 33.1435 73.4131 33.1396" stroke="white" stroke-width="0.59" stroke-miterlimit="10" stroke-linecap="round"/>
<path d="M59.1736 57.7382C59.1736 58.1347 59.1469 58.5845 59.5281 59.0495C59.5281 59.4784 59.7758 59.9205 60.0026 60.3475C60.6201 61.5158 61.3881 62.587 61.8759 63.0082C61.8778 63.0101 61.855 63.012 61.8569 63.0139C62.3238 63.4142 64.7593 61.6207 64.7593 61.6207C64.7593 61.6207 64.6774 61.3919 64.5611 61.0355C64.2009 59.9244 63.4615 57.5724 63.4615 57.0273C63.4615 56.3259 66.1829 49.1957 66.5469 47.3393C66.5564 47.2916 66.564 47.2478 66.5697 47.2078C66.7755 45.8698 66.787 44.8444 66.6726 44.0725C66.6726 44.0591 66.6688 44.0477 66.6669 44.0343C66.4802 42.8203 65.9809 42.2447 65.4377 42.0693C64.8774 41.8863 64.2733 42.1284 63.9227 42.5344C63.8808 42.582 63.8884 42.6335 63.8465 42.6906C61.8454 45.3209 59.1717 56.0152 59.1717 57.7401L59.1736 57.7382Z" fill="white"/>
<path d="M59.9035 60.3472C60.5209 61.5156 61.3385 62.5867 61.8264 63.008L64.5554 61.0353C64.1952 59.9241 63.4577 57.5722 63.4577 57.0271C63.4577 56.3257 66.1809 49.1955 66.5449 47.339C66.2762 48.0423 65.8951 46.2241 65.6778 46.327C65.3367 46.4871 66.3486 47.8899 66.1866 48.0595C66.0456 48.2063 65.3729 47.1504 65.3081 47.3676C65.2185 47.6688 65.9827 48.3225 65.9503 48.7132C65.9256 49.0106 62.8402 56.3523 62.7011 56.4858C62.5143 56.6668 61.733 56.2418 61.632 56.583C61.571 56.7907 62.7373 56.6192 62.7011 56.886C62.6649 57.1528 61.6987 57.5455 61.7616 57.7551C61.8245 57.9648 62.7945 57.1643 62.9107 57.2844C63.027 57.4044 63.1604 58.8129 63.1318 59.0169C63.1013 59.2227 60.8411 60.7113 59.9054 60.3472H59.9035Z" fill="white"/>
<path d="M59.9033 60.3473C60.4007 60.759 61.6718 60.3168 61.3136 60.1452C60.5608 60.3282 59.385 58.2012 59.4803 57.4826C60.2368 51.7438 63.3641 42.0748 65.4395 42.0672C64.8792 41.8842 64.3284 42.0805 63.9568 42.4655C61.7938 44.7108 59 55.9731 59 57.7323C59 58.9902 59.7451 59.8803 59.9052 60.3454L59.9033 60.3473Z" fill="white"/>
<path d="M60.8238 62.3067C61.2316 62.7661 61.8928 63.3531 61.9729 63.3741C62.091 63.4046 64.8048 61.8512 64.8887 61.6911C64.9897 61.5005 64.5246 58.7845 64.3284 58.7521C64.2807 58.7445 64.1969 58.775 64.0844 58.8341C63.1964 59.2991 60.5341 61.5768 60.5017 61.8093C60.4902 61.8932 60.6275 62.0838 60.8238 62.3048V62.3067Z" fill="white"/>
<path d="M60.8238 62.3066C61.2316 62.766 61.8928 63.353 61.9729 63.374C62.091 63.4045 64.8048 61.8511 64.8887 61.691C64.9897 61.5004 64.5246 58.7844 64.3284 58.752C64.2807 58.7444 64.0997 58.7901 63.9072 58.9369C64.4904 59.3696 64.416 60.8181 64.376 61.0182C64.3303 61.2431 62.9315 61.5119 62.5808 61.7825C62.2302 62.0531 61.7938 62.6669 61.687 62.6821C61.5956 62.6955 61.0696 62.5068 60.8218 62.3066H60.8238Z" fill="white"/>
<path d="M64.5667 66.9591C64.4847 67.1192 64.4581 67.407 64.4638 67.7577C64.4733 68.3428 65.2909 69.7647 65.3671 70.1306C65.4243 70.4108 65.1632 71.156 65.2394 71.501C65.3328 71.9318 65.9979 72.5417 66.3695 72.4235C66.5124 72.3778 66.9679 71.2818 67.0079 71.1522C67.0403 71.0455 67.1413 70.4451 67.1127 70.1249C67.1127 70.1078 67.1337 70.102 67.1413 70.1173C67.2252 70.285 67.3376 70.4909 67.3376 70.5785C67.3395 70.8339 66.7602 72.1338 67.2709 72.1567C67.4062 72.1624 68.1113 70.6815 68.037 70.4146C67.6959 69.1948 66.6211 66.8562 66.4877 66.6713C66.2342 66.3206 64.7039 66.6923 64.5686 66.961L64.5667 66.9591Z" fill="white"/>
<path d="M66.4534 69.9305C66.4534 69.9305 66.4344 70.0792 66.4153 70.3003C66.4058 70.4108 66.3963 70.5385 66.3848 70.6777C66.3791 70.7463 66.3734 70.8168 66.3658 70.8873C66.3582 70.9578 66.3524 71.0265 66.3334 71.0836C66.2915 71.2037 66.2267 71.3467 66.1733 71.4705C66.118 71.5982 66.0666 71.7164 66.0228 71.8174C65.937 72.0214 65.8798 72.1567 65.8798 72.1567C65.8684 72.1853 65.8798 72.2177 65.9084 72.231C65.9332 72.2405 65.9599 72.2329 65.9751 72.2139C65.9751 72.2139 65.9999 72.1834 66.0361 72.1281C66.0704 72.0728 66.1238 71.9947 66.179 71.8975C66.2343 71.8003 66.301 71.6878 66.3639 71.562C66.3963 71.4991 66.4287 71.4343 66.4592 71.3657C66.4897 71.2971 66.5201 71.2304 66.5487 71.1465C66.5754 71.0608 66.5792 70.9807 66.5869 70.9064C66.5926 70.832 66.5945 70.7577 66.5964 70.6872C66.6002 70.5461 66.5945 70.4165 66.5926 70.3041C66.5849 70.0811 66.5678 69.9324 66.5678 69.9324C66.564 69.9019 66.5373 69.8791 66.5068 69.881C66.4801 69.8829 66.4592 69.9038 66.4573 69.9305H66.4534Z" fill="white"/>
<path d="M65.8319 69.7438C65.8319 69.7438 65.8262 69.7743 65.8204 69.8315C65.8166 69.8887 65.8071 69.9687 65.8052 70.064C65.8033 70.1593 65.7995 70.2699 65.7976 70.388C65.7957 70.5043 65.7976 70.6339 65.7842 70.7425C65.7804 70.7578 65.7842 70.7597 65.7785 70.7788L65.7671 70.8245L65.7423 70.9084C65.7232 70.9655 65.7061 71.0227 65.6889 71.078C65.6527 71.1904 65.6184 71.2934 65.588 71.3829C65.5289 71.5621 65.4927 71.6822 65.4927 71.6822C65.4831 71.7127 65.5003 71.7451 65.5308 71.7546C65.5555 71.7622 65.5803 71.7527 65.5937 71.7317C65.5937 71.7317 65.6661 71.6231 65.7518 71.4497C65.7938 71.362 65.8433 71.2629 65.8891 71.1504C65.9119 71.0951 65.9348 71.0361 65.9557 70.9751L65.9862 70.8779L65.9977 70.8302C66.0015 70.8169 66.0053 70.7883 66.0091 70.773C66.0244 70.6282 66.0167 70.5043 66.011 70.3842C66.0034 70.2641 65.992 70.1536 65.9843 70.0583C65.9653 69.8696 65.95 69.7438 65.95 69.7438C65.9462 69.7133 65.9176 69.6905 65.8871 69.6943C65.8624 69.6981 65.8433 69.7171 65.8376 69.74L65.8319 69.7438Z" fill="white"/>
<path d="M62.175 63.2081C63.086 64.7272 64.1398 66.088 64.5667 66.9591C64.944 67.7291 66.6973 67.1058 66.4858 66.6694C65.9369 65.5353 65.127 63.5531 64.5667 61.7367C64.4581 61.386 61.8777 62.7126 62.175 63.2081Z" fill="white"/>
<path fill-rule="evenodd" clip-rule="evenodd" d="M72.9853 27.4175C72.7574 27.175 72.3975 26.964 71.9019 27.0068C71.6299 27.0302 71.3661 27.13 71.1486 27.3167C71.0374 27.4121 70.9539 27.5167 70.8912 27.6186C69.8273 28.0732 69.2028 28.7825 68.926 29.5954C68.6334 30.4548 68.7882 31.2632 68.9043 31.6772C69.0596 32.2469 69.5978 32.7441 70.2718 32.7441C70.3486 32.7441 70.4446 32.7375 70.5464 32.7277C70.7686 32.9479 71.0703 33.1864 71.408 33.3907C71.7645 33.6065 72.2197 33.8197 72.7148 33.9046C73.2198 33.9912 73.8416 33.9531 74.3953 33.5539C75.0301 33.0961 75.5498 33.1632 75.6403 33.1748C75.6587 33.1772 75.6594 33.1773 75.6396 33.1702C75.7406 33.2064 75.9928 33.2889 76.2864 33.2506C76.4492 33.2293 76.7278 33.1562 76.957 32.9057C77.2017 32.6383 77.2517 32.3224 77.2382 32.0981C77.2216 31.8216 77.0911 31.5644 76.8778 31.3878L75.8897 30.5695L75.8838 30.5281C75.8381 30.2173 75.7415 29.7879 75.5315 29.3418C75.3197 28.892 74.9843 28.4087 74.4577 28.0269C74.0511 27.7321 73.5613 27.5204 72.9853 27.4175Z" fill="#FF9900"/>
<path d="M57.238 110.279C57.1514 110.209 56.604 110.131 55.8945 110.039C54.7297 109.888 52.8167 109.54 52.2933 109.018C51.8509 108.576 51.8841 107.291 51.8841 107.291C51.8841 107.291 50.0577 107.492 49.5711 107.958C49.8089 108.66 49.4071 109.798 49.3039 110.524C49.1896 110.968 49.3205 111.208 49.5711 111.208H57.238C57.4702 111.208 57.5513 110.535 57.238 110.279Z" fill="white"/>
<path d="M52.1978 108.972C53.4233 108.137 54.3707 108.054 54.4241 108.487C54.4941 109.071 53.4123 109.243 52.1978 108.972Z" stroke="white" stroke-width="0.5" stroke-linecap="round" stroke-linejoin="round"/>
<path d="M52.1978 108.972C52.9589 107.698 53.862 107.363 54.0905 107.735C54.3983 108.236 53.4123 108.708 52.1978 108.972Z" stroke="white" stroke-width="0.5" stroke-linecap="round" stroke-linejoin="round"/>
<path d="M53.9892 109.543C53.1727 109.709 52.1978 108.97 52.1978 108.97C52.1978 108.97 52.7654 110.061 53.7201 110.214" stroke="white" stroke-width="0.5" stroke-linecap="round" stroke-linejoin="round"/>
<path d="M42.789 110.279C42.7503 110.257 42.6139 110.238 42.4204 110.225C42.4204 110.225 42.4185 110.223 42.4167 110.222C41.2519 110.07 40.6437 108.426 40.6437 107.337C40.2217 107.013 39.0698 107.405 38.5814 107.872C38.8542 108.952 38.2644 109.838 38.1299 110.526C38.1262 110.526 38.1262 110.526 38.1262 110.526C38.0119 110.97 38.1428 111.21 38.3934 111.21H42.9253C43.1576 111.21 43.1391 110.485 42.789 110.281V110.279Z" fill="white"/>
<path d="M56.6651 71.0952C56.995 70.8869 55.0451 46.5858 54.2987 44.396H50.1611L54.5051 71.4362C54.5051 71.4362 56.4237 71.2464 56.6632 71.0952H56.6651Z" fill="white"/>
<path d="M49.4935 108.972C49.5727 109.197 52.1621 108.786 52.1234 108.415C51.9189 106.472 52.5418 90.9654 53.3951 86.3075C53.9406 83.3307 54.418 69.5396 53.8356 61.6008C53.8356 61.6008 49.7312 61.9621 45.6324 62.5446C45.2859 65.7278 45.7854 74.2952 46.5023 83.2349C46.7585 86.4236 45.1219 90.0751 45.2619 93.1404C45.4684 97.6821 49.3129 108.458 49.4935 108.972Z" fill="white"/>
<path d="M38.5722 108.697C38.6054 108.937 40.841 108.817 40.8907 108.574C41.5634 105.228 43.2443 96.1302 46.2741 86.3979C48.318 79.8323 51.1894 62.5962 51.2079 62.2276C51.2079 62.2276 41.4344 62.2091 40.0614 62.928C40.0374 63.8754 39.4698 73.0123 38.8671 82.8718C38.7492 84.8109 37.1752 88.9342 36.9264 90.8604C36.18 96.6684 38.5133 108.29 38.5704 108.697H38.5722Z" fill="white"/>
<path d="M45.8135 87.9055C46.418 85.9425 47.6878 81.3897 48.2905 78.8147C49.1456 75.1651 49.9105 71.3864 50.3288 68.8594" stroke="white" stroke-width="0.5" stroke-linecap="round" stroke-linejoin="round"/>
<path d="M40.4194 109.27C40.8138 108.444 41.5861 108.014 41.8109 108.359C42.0837 108.776 41.5897 109.214 40.4194 109.27Z" stroke="white" stroke-width="0.5" stroke-linecap="round" stroke-linejoin="round"/>
<path d="M40.4196 109.27C39.629 109.627 38.8476 109.128 38.9287 108.698C39.0392 108.119 39.9865 108.829 40.4196 109.27Z" stroke="white" stroke-width="0.5" stroke-linecap="round" stroke-linejoin="round"/>
<path d="M41.6088 109.823C40.9047 109.734 40.42 109.271 40.42 109.271C40.42 109.271 39.8966 109.802 39.3511 109.883" stroke="white" stroke-width="0.5" stroke-linecap="round" stroke-linejoin="round"/>
<path d="M53.6021 63.8993C52.5516 65.0569 46.0864 65.0845 41.9212 64.0449C41.3646 63.9048 41.7719 40.1124 43.7144 39.2221C45.023 38.623 47.5294 38.5733 48.932 39.2497C49.6765 39.6073 52.5295 41.869 53.5321 43.6624C53.768 44.0845 53.2096 56.4821 53.346 58.0728C53.6021 61.7833 54.0315 63.4256 53.6021 63.8993Z" fill="white"/>
<path d="M35.6421 55.1457C36.0494 55.0259 37.3008 54.6942 37.6454 54.8656C37.9901 55.0388 36.4604 55.2527 36.3959 55.4259C36.3314 55.5992 37.5662 55.3393 37.745 55.448" stroke="white" stroke-width="0.69" stroke-linecap="round" stroke-linejoin="round"/>
<path d="M39.3502 52.7383C39.3502 52.7383 39.3502 52.742 39.3502 52.7438C39.3705 52.8968 39.3189 58.8468 39.1604 59.597C38.8729 60.9573 35.6439 69.7181 35.7527 69.9965C35.9407 70.4812 40.3086 71.8747 40.7288 71.4545C40.9573 71.2259 42.0005 65.7589 42.417 65.1027C42.8593 64.406 44.0075 63.4548 44.4037 62.8042C45.1704 61.5471 47.1498 50.7494 47.0024 47.3855C46.8955 44.9672 44.6415 40.56 43.8066 39.115C43.779 39.0689 43.7237 39.0504 43.6739 39.0726C41.7517 39.9204 39.4295 40.6117 38.1154 41.6273C38.1117 41.631 38.108 41.6328 38.1044 41.6365C37.5146 42.1821 37.651 44.4308 38.648 49.1938L39.3465 52.7383H39.3502Z" fill="white"/>
<path d="M44.245 39.0911C43.9925 39.9298 46.9984 41.5113 48.3659 41.2034C48.9501 41.0726 48.8525 39.6219 48.5668 38.8441C48.0802 37.5207 48.0157 35.8046 48.0157 35.8046L48.0065 35.8009L44.3869 33.7107C44.3869 33.7107 44.7757 37.3308 44.245 39.0892V39.0911Z" fill="white"/>
<path d="M44.7353 34.262C44.4718 36.7208 46.6318 38.9548 48.5669 38.8461C48.1301 37.5042 48.0159 35.8066 48.0159 35.8066L48.0066 35.8029L44.7353 34.262Z" fill="white"/>
<path d="M50.8025 35.7699C50.6126 39.1117 46.0567 38.4463 44.8588 35.3497C44.2875 33.8732 44.1419 31.0549 44.3391 30.7674C44.5952 30.3969 44.9786 30.0061 45.3435 29.7131C46.4124 28.8541 47.1939 28.7712 48.5466 29.3407C49.0019 29.5324 49.3705 29.9379 49.6819 30.1481C50.1685 30.4762 50.021 31.1913 50.2496 32.6235C50.2901 32.876 50.3565 33.1581 50.4283 33.4567C50.5481 33.9433 50.6845 34.4704 50.7564 34.9755C50.7951 35.2501 50.8154 35.5174 50.8025 35.7699Z" fill="white"/>
<path d="M44.1548 31.7018C44.1511 31.7165 44.8091 33.0676 45.185 32.793C45.6992 32.4169 45.9425 32.0022 46.0844 31.5396C46.1563 31.3055 46.0992 30.7986 45.8798 30.3194C48.0546 31.4603 50.0671 31.0272 49.7723 30.0115L44.8459 29.6521C44.8459 29.6521 44.1585 31.6926 44.1566 31.7018H44.1548Z" fill="white"/>
<path d="M47.922 34.9626C47.9128 34.5239 47.4945 34.1736 46.9876 34.181C46.4808 34.1884 46.0772 34.5515 46.0846 34.9902C46.0938 35.4289 46.5121 35.7791 47.019 35.7717C47.5258 35.7644 47.9294 35.4012 47.922 34.9626Z" fill="white"/>
<path d="M50.7564 34.9751C50.2791 34.953 49.8976 34.6157 49.8884 34.1954C49.881 33.8692 50.104 33.5835 50.4284 33.4563C50.5482 33.9429 50.6845 34.4701 50.7564 34.9751Z" fill="white"/>
<path d="M43.4599 32.7911C42.9568 33.2832 44.2248 35.3679 44.7722 34.3154C45.3158 33.2722 44.0718 32.1939 43.4599 32.7911Z" fill="white"/>
<path d="M44.4568 33.6813C44.3738 33.2518 43.7288 32.9938 43.5942 33.0288" stroke="white" stroke-width="1.04" stroke-linecap="round" stroke-linejoin="round"/>
<path d="M43.9209 33.6905C43.9799 33.508 44.1679 33.4232 44.2969 33.4269" stroke="white" stroke-width="1.04" stroke-linecap="round" stroke-linejoin="round"/>
<path d="M50.4523 30.4575C50.4246 30.3248 50.1906 30.0741 49.8809 29.9525C50.0136 29.7682 50.1979 28.6843 50.1426 28.5019C49.7151 27.1213 44.2911 29.0087 44.1087 29.1783C43.5945 29.6576 43.1798 32.0206 43.3604 32.2823C43.5355 32.5385 43.8212 32.5035 44.1326 32.6731C44.2469 32.7358 44.4588 32.9551 44.5768 33.2519C44.6505 33.4362 44.5952 34.1016 44.645 34.3615C44.6892 34.5974 45.0596 34.5329 45.1057 34.5053C45.2237 34.4334 45.1868 33.0823 45.2679 32.651C45.3048 32.4501 46.1396 31.5727 45.8079 30.2456C47.5237 30.7948 49.3096 30.3727 49.774 30.0133C49.7704 30.9017 50.233 32.7358 50.3159 32.9625C50.2182 32.2362 50.5555 30.946 50.456 30.4594L50.4523 30.4575Z" fill="white"/>
<path d="M49.8956 32.5C49.7777 32.5387 49.6524 32.618 49.5547 32.747" stroke="white" stroke-width="1.04" stroke-miterlimit="10" stroke-linecap="round"/>
<path d="M50.201 32.4942C50.1864 32.4869 50.1682 32.4851 50.1499 32.4778" stroke="white" stroke-width="1.04" stroke-miterlimit="10" stroke-linecap="round"/>
<path d="M46.5065 33.3662C46.4733 33.4326 46.4457 33.5063 46.4272 33.5874" stroke="white" stroke-width="1.04" stroke-miterlimit="10" stroke-linecap="round"/>
<path d="M47.133 32.8777C46.9671 32.9219 46.7902 33.0122 46.6538 33.1579" stroke="white" stroke-width="1.04" stroke-miterlimit="10" stroke-linecap="round"/>
<path d="M47.5626 32.8705C47.5405 32.8631 47.5165 32.8594 47.4907 32.8521" stroke="white" stroke-width="1.04" stroke-miterlimit="10" stroke-linecap="round"/>
<path d="M38.1114 41.6311C35.6142 43.2476 31.9871 52.9117 32 55.4572C32.0222 59.4275 39.7462 65.9138 39.8789 65.7977C40.358 65.3848 42.859 63.7149 42.9088 63.4605C42.9511 63.2393 38.6883 56.2 38.762 55.4867C39.3462 54.1172 39.4789 51.5108 41.7624 48.6391C44.4882 45.2125 41.9799 39.1261 38.1096 41.6311H38.1114Z" fill="white"/>
<path d="M43.6423 65.464C43.458 65.0972 42.8627 64.3986 42.3596 64.1774C42.1016 64.0632 41.8141 64.1056 41.51 63.8254C41.3035 63.6337 40.3065 64.6917 40.4115 64.8355C40.5037 64.959 40.5534 65.0493 40.5811 65.123C40.5995 65.1673 40.688 65.9746 40.8023 66.2621C41.11 67.0326 41.6058 67.7183 42.179 68.3395C42.7614 68.0077 43.6405 66.452 43.6405 65.4659L43.6423 65.464Z" fill="white"/>
<path d="M39.9634 65.2856L40.6121 66.198L42.6265 64.1741L41.9335 63.4626L41.0821 64.0728L39.9634 65.2856Z" fill="white"/>
<path d="M43.648 64.467C43.7715 65.4329 43.3715 67.9913 41.5322 68.8595" stroke="white" stroke-width="0.5" stroke-linecap="round" stroke-linejoin="round"/>
<path d="M53.557 41.7983C56.0543 43.4148 59.6813 53.0789 59.6684 55.6244C59.6463 59.5947 51.9223 66.0811 51.7896 65.965C51.3104 65.5521 48.8095 63.8821 48.7597 63.6277C48.7173 63.4066 52.9802 56.3672 52.9065 55.6539C52.3222 54.2844 52.1895 51.6781 49.906 48.8063C47.1802 45.3797 49.6886 39.2934 53.5589 41.7983H53.557Z" fill="white"/>
<path d="M48.0261 65.6315C48.2104 65.2647 48.8057 64.5661 49.3089 64.3449C49.5669 64.2306 49.8544 64.273 50.1585 63.9929C50.3649 63.8012 51.362 64.8592 51.2569 65.003C51.1648 65.1265 51.115 65.2168 51.0874 65.2905C51.0689 65.3347 50.9805 66.1421 50.8662 66.4296C50.5584 67.2001 50.0627 67.8858 49.4895 68.5069C48.9071 68.1752 48.028 66.6195 48.028 65.6333L48.0261 65.6315Z" fill="white"/>
<path d="M51.7051 65.4528L51.0563 66.3652L49.0419 64.3414L49.7349 63.6299L50.5864 64.24L51.7051 65.4528Z" fill="white"/>
<path d="M48.0205 64.6343C47.897 65.6001 48.2969 68.1585 50.1362 69.0267" stroke="white" stroke-width="0.5" stroke-linecap="round" stroke-linejoin="round"/>
<path d="M52.6984 51.1129C52.8569 55.2214 52.8698 65.2707 52.527 71.5303C52.527 71.5303 53.9977 71.5396 54.5063 71.4345C56.0508 71.1175 54.6372 54.4307 54.6372 54.4307L54.3994 44.7519L53.9074 42.0331C53.9074 42.0331 49.9025 38.9014 48.9331 39.248C50.3964 40.0885 52.5048 46.0827 52.6984 51.1129Z" fill="white"/>
<path d="M41.1136 49.0264C40.5607 50.1747 38.7251 55.0371 38.7638 55.4869C38.8025 55.9366 42.1752 62.4027 42.5125 62.8912" stroke="white" stroke-width="0.5" stroke-linecap="round" stroke-linejoin="round"/>
<path d="M37.8198 64.1353C38.205 64.5242 39.2684 65.4605 39.7071 65.8015" stroke="white" stroke-width="0.5" stroke-linecap="round" stroke-linejoin="round"/>
<path d="M42.4221 63.3944C41.9337 62.9317 39.9082 65.0551 39.8677 65.5196" stroke="white" stroke-width="0.5" stroke-linecap="round" stroke-linejoin="round"/>
<path d="M36.5703 55.4868C36.9113 55.1514 37.9194 55.0408 38.1018 55.2528C38.2493 55.426 36.9702 55.4352 36.762 55.9956C36.7177 56.1135 37.3591 55.7596 37.9986 55.8831" stroke="white" stroke-width="0.5" stroke-linecap="round" stroke-linejoin="round"/>
<path d="M86.8129 111.492H83.8423C83.6789 111.492 83.5911 111.334 83.6668 111.043C83.6668 111.043 83.6668 111.043 83.6685 111.043C83.7081 110.825 83.7562 110.393 83.8732 109.7C83.9816 109.049 86.1851 109.961 86.3846 110.293C86.548 110.563 86.6478 110.858 86.7218 110.883C86.8662 110.937 86.9626 111.492 86.8112 111.492H86.8129Z" fill="white"/>
<path d="M96.1079 110.524C95.7983 110.574 95.7587 111.097 95.7742 111.492H95.929C95.9892 111.492 95.8447 110.741 96.1079 110.524Z" fill="white"/>
<path d="M99.865 111.492H97.1816C97.0251 111.492 96.9013 111.303 96.7757 111.086C96.6278 110.792 96.5022 110.467 96.1771 110.417C95.6731 110.338 95.5905 110.968 95.6095 111.492H95.0366C95.004 111.492 94.5378 110.517 94.5378 110.257C94.5378 110.028 94.6445 109.259 94.7614 109.213C94.7993 109.197 95.9603 109.031 97.2092 110.376C97.7562 110.966 98.6902 110.565 98.7796 110.612C98.8484 110.648 99.8066 110.835 99.865 110.882C100.071 111.049 100.016 111.491 99.865 111.491V111.492Z" fill="white"/>
<path d="M97.1423 93.2085C97.089 93.8399 97.0391 94.4902 97.0099 95.094C96.8792 97.8259 96.3786 104.607 96.4973 107.425C96.5214 107.985 96.573 108.277 96.6229 108.42C96.6693 108.552 96.8826 108.76 97.1011 109.036C97.5569 109.612 98.2157 110.383 98.7317 110.642C98.7507 110.653 98.7524 110.679 98.7317 110.689C98.3 110.913 97.636 111.196 97.3711 111.007C97.0099 110.751 95.639 109.264 94.9096 109.294C94.8718 109.294 94.8425 109.261 94.8511 109.225C94.9131 108.991 95.092 108.313 95.0128 107.855C94.5467 105.191 92.7887 98.9458 92.486 94.4678C92.467 94.177 92.486 93.7298 92.5238 93.2102H97.1406L97.1423 93.2085Z" fill="white"/>
<path d="M83.6511 95.0957C83.7078 94.5246 83.8506 93.8743 84.0329 93.2102H88.4777C88.2799 94.0067 88.667 94.8738 88.4451 95.7684C87.2444 100.616 85.7548 105.456 85.6567 107.541C85.624 108.261 85.9698 109.67 86.3104 110.331C86.3413 110.391 86.3362 110.474 86.2794 110.51C86.2209 110.546 85.8184 110.233 85.4933 110.242C85.1975 110.248 84.4234 110.651 84.217 110.52C84.0759 110.433 83.9641 110.131 83.9848 109.574C84.0071 109.44 84.1258 108.394 84.1706 107.778C84.26 106.57 83.4051 97.6005 83.6511 95.0974V95.0957Z" fill="white"/>
<path d="M96.9393 51.8479C99.2356 55.3247 99.0327 60.9846 99.4902 62.4469C100.163 64.5991 99.8153 73.5982 99.7878 74.2915C99.7723 74.6941 98.1038 74.7474 97.8337 74.6287C97.0253 74.2743 97.4312 67.9107 97.1457 66.0132C96.8963 64.3582 96.9719 60.7576 96.8016 59.8836C96.3217 57.4184 96.9393 51.8496 96.9393 51.8496V51.8479Z" fill="white"/>
<path d="M99.6245 74.2813C99.253 75.6782 99.1996 77.1302 98.9038 77.5964C98.6079 78.0644 97.1699 79.2411 97.0426 79.0398C96.8396 78.7181 97.5655 78.3396 97.4141 78.097C97.4141 78.097 96.499 78.6097 96.3958 78.4463C96.0432 77.8923 97.808 76.7965 97.7134 76.719C97.6188 76.6416 95.9125 77.1784 95.8832 76.9909C95.8557 76.8033 97.2782 76.1066 97.2782 76.1066C97.2782 76.1066 97.5105 74.5738 97.7685 74.0921C98.0265 73.6121 98.4875 73.6362 98.4875 73.6362C98.4875 73.6362 99.7071 73.9631 99.6228 74.2796L99.6245 74.2813Z" fill="white"/>
<path d="M97.2986 96.5855C97.2676 97.2443 92.5166 97.0362 92.3773 96.0401C92.0075 93.3908 91.6032 79.3425 91.6032 79.3425C91.6032 79.3425 89.1125 92.1212 88.4709 96.8642C88.3729 97.5919 83.3879 96.6818 83.4498 96.0522C83.6941 93.5835 84.3908 78.9399 85.76 71.0642C86.2898 68.0123 89.7679 64.883 89.7833 63.7441C89.7833 63.7441 94.5619 62.8581 95.9844 63.7441C96.7533 66.3504 97.1059 68.3736 97.4809 72.1291C98.322 80.5639 97.4035 94.3748 97.2986 96.5837V96.5855Z" fill="white"/>
<path d="M96.2389 66.464C95.9689 66.6842 90.4662 65.9359 90.1583 64.6938C89.5906 62.4023 89.2415 52.6136 89.2415 52.6136L95.7384 51.4248C95.7384 51.4248 98.5353 64.5923 96.2372 66.4658L96.2389 66.464Z" fill="white"/>
<path d="M93.9207 47.8258C92.6083 47.9961 92.1129 48.6636 91.7069 47.2684C91.2477 45.6891 88.6348 44.1752 89.3762 41.6618C89.8733 39.9776 91.3337 39.4546 92.6977 39.4546C94.1323 39.4546 95.5652 40.4507 95.9763 41.7031C96.2085 42.4119 95.8679 43.3907 95.6908 44.1494C95.6478 44.3335 95.4293 47.6297 93.9207 47.8258Z" fill="white"/>
<path d="M90.3873 49.9093C90.0931 50.1191 92.5959 53.8248 93.9858 53.288C95.3361 52.7668 94.2473 50.1071 94.2473 50.1071C94.1561 49.985 93.929 49.431 93.7501 49.0835C93.7106 48.8994 93.6796 48.6981 93.6796 48.4934C93.6796 47.3425 93.8258 46.6853 93.8258 46.6853L91.3454 44.5349L91.0358 44.559C91.3058 46.5219 91.3712 49.2074 90.3873 49.9075V49.9093Z" fill="white"/>
<path d="M93.75 49.0833C93.7104 48.8992 93.6795 48.6979 93.6795 48.4932C93.6795 47.3423 93.8257 46.6851 93.8257 46.6851L91.5156 45.3416C91.3986 46.9587 92.5838 48.8356 93.7483 49.0833H93.75Z" fill="white"/>
<path d="M91.6908 39.883C92.2137 38.0956 90.9288 35.7508 89.145 36.4595C87.3595 37.1683 88.469 40.7552 90.5435 40.7656C92.6197 40.7776 91.6908 39.8813 91.6908 39.8813V39.883Z" fill="white"/>
<path d="M91.8131 39.1742C91.8131 39.1742 91.8234 39.0899 91.8441 38.942C91.851 38.868 91.8699 38.7803 91.8716 38.6736C91.8716 38.5669 91.8716 38.4465 91.8716 38.3158C91.8613 38.185 91.8406 38.0457 91.8234 37.896C91.808 37.822 91.7856 37.748 91.7667 37.6724C91.7443 37.5967 91.7305 37.5158 91.6944 37.4418C91.6635 37.3661 91.6308 37.2887 91.5998 37.2096C91.5654 37.1322 91.5172 37.0599 91.4742 36.9842C91.4519 36.9464 91.4312 36.9085 91.4072 36.8724L91.3246 36.7692C91.2661 36.7038 91.2214 36.6247 91.1509 36.5696C91.0855 36.5094 91.0218 36.4475 90.953 36.3907C90.8791 36.3408 90.8051 36.2926 90.7329 36.2445C90.578 36.1636 90.4215 36.0862 90.2564 36.0535C90.2151 36.0432 90.1755 36.0329 90.136 36.0243C90.0964 36.0157 90.0551 36.0174 90.0156 36.0122C89.9347 36.0088 89.8573 35.995 89.7816 36.0019C89.6303 36.0174 89.4858 36.0243 89.3602 36.069C89.2966 36.0879 89.2346 36.1017 89.1796 36.124C89.1263 36.1498 89.0747 36.1739 89.0265 36.198C88.9783 36.2204 88.9336 36.2427 88.8923 36.2634C88.8545 36.2892 88.8201 36.3133 88.7874 36.3339C88.6618 36.4199 88.5913 36.4698 88.5913 36.4698C88.5707 36.4836 88.5655 36.5111 88.5793 36.5318C88.593 36.5507 88.6188 36.5559 88.6395 36.5438L88.6446 36.5404C88.6446 36.5404 88.7151 36.4974 88.8407 36.4199C88.8717 36.401 88.9061 36.3804 88.9439 36.358C88.9852 36.3408 89.0282 36.3236 89.0747 36.3047C89.1211 36.2858 89.171 36.2651 89.2226 36.2427C89.2759 36.2255 89.3344 36.2169 89.3946 36.1997C89.5133 36.1602 89.6457 36.1585 89.7868 36.1498C89.8573 36.1464 89.9278 36.1619 90.0018 36.1671C90.0379 36.1722 90.0758 36.1722 90.1119 36.1808C90.148 36.1911 90.1841 36.2015 90.2203 36.2118C90.3699 36.2445 90.511 36.3167 90.652 36.3907C90.7174 36.4354 90.7845 36.4819 90.8516 36.5266C90.9118 36.5799 90.9702 36.6384 91.0304 36.6935C91.0941 36.7451 91.1354 36.8191 91.1887 36.8793L91.2644 36.9756L91.3263 37.0806C91.3659 37.1511 91.4123 37.2165 91.445 37.2887C91.476 37.3627 91.5069 37.4349 91.5379 37.5055C91.5981 37.6483 91.6256 37.7979 91.6669 37.9338C91.6893 38.0749 91.7151 38.2074 91.7305 38.3312C91.7374 38.4551 91.7426 38.5687 91.7477 38.6702C91.7529 38.7717 91.7409 38.8628 91.7391 38.9368C91.7323 39.0865 91.7288 39.1708 91.7288 39.1708C91.7288 39.1949 91.746 39.2155 91.7718 39.2172C91.7959 39.2172 91.8148 39.2017 91.8183 39.1777L91.8131 39.1742Z" fill="white"/>
<path d="M91.2594 40.2874C91.2594 40.2874 91.1734 40.2857 91.0254 40.2822C90.9876 40.2822 90.9463 40.2822 90.9016 40.2805C90.8568 40.2805 90.8052 40.2908 90.7519 40.2977C90.6453 40.3115 90.5214 40.3235 90.3976 40.37C90.3339 40.3906 90.2686 40.4095 90.2015 40.4336C90.1378 40.4663 90.0707 40.5007 90.0037 40.5351C89.9331 40.5661 89.8729 40.6177 89.8093 40.6676C89.7474 40.7192 89.6768 40.7639 89.6252 40.8293C89.5702 40.8912 89.5083 40.9515 89.4567 41.0203C89.4102 41.0925 89.3621 41.1648 89.3139 41.2388C89.2348 41.3936 89.1591 41.5553 89.1178 41.7273C89.092 41.8116 89.0679 41.8959 89.0576 41.9837C89.0456 42.0697 89.0266 42.1557 89.0198 42.2417C89.0112 42.4137 88.9991 42.5823 89.018 42.7458C89.0232 42.9092 89.0559 43.064 89.08 43.212C89.104 43.3599 89.1505 43.4924 89.1814 43.6197C89.2176 43.7436 89.2675 43.8537 89.3019 43.9517C89.3363 44.0515 89.381 44.1324 89.4137 44.1995C89.479 44.3354 89.5169 44.4128 89.5169 44.4128C89.5272 44.4351 89.5547 44.4437 89.5771 44.4334C89.5977 44.4231 89.608 44.3973 89.5994 44.3767V44.3732C89.5994 44.3732 89.565 44.2958 89.5083 44.1599C89.4807 44.0911 89.4412 44.0119 89.4137 43.9122C89.3844 43.8141 89.3431 43.7057 89.3122 43.5836C89.2864 43.4597 89.2451 43.3307 89.2262 43.1879C89.2072 43.0451 89.1797 42.8954 89.1814 42.7406C89.1677 42.5841 89.1814 42.4241 89.19 42.2606C89.1952 42.1798 89.2158 42.0989 89.2279 42.0181C89.2382 41.9355 89.2606 41.8564 89.2864 41.7789C89.3259 41.6189 89.4016 41.4727 89.4704 41.3282C89.5134 41.2611 89.5564 41.194 89.5977 41.1269C89.6442 41.0633 89.6992 41.0099 89.7491 40.9515C89.7955 40.8895 89.8592 40.85 89.9142 40.8018C89.971 40.7553 90.026 40.7089 90.0879 40.6779C90.1482 40.6435 90.2084 40.6091 90.2651 40.5764C90.3253 40.5506 90.3873 40.5317 90.444 40.5093C90.5576 40.4594 90.6694 40.4474 90.7674 40.425C90.8173 40.4164 90.862 40.4027 90.905 40.3992C90.9497 40.3975 90.991 40.3941 91.0289 40.3923C91.1785 40.3837 91.2628 40.3786 91.2628 40.3786C91.2869 40.3786 91.3058 40.3562 91.3041 40.3321C91.3041 40.308 91.2834 40.2908 91.2611 40.2908L91.2594 40.2874Z" fill="white"/>
<path d="M95.9675 45.3228C95.8867 46.7593 95.1608 47.6934 94.6 47.8517C93.0485 48.287 91.5726 46.8315 91.0772 44.7568C91.0566 44.4454 91.0893 44.1237 91.1563 43.8037C91.3198 43.9207 91.7928 44.0687 92.099 43.5887C92.4516 43.0382 92.4516 41.7548 92.959 41.5432C93.8759 42.9178 95.19 41.4262 95.756 42.5393C95.8884 42.9591 95.8248 43.6489 95.9211 44.3061C95.9744 44.6674 95.9865 45.008 95.9693 45.3228H95.9675Z" fill="white"/>
<path d="M94.1128 45.1096C94.1128 44.7878 93.7791 44.5281 93.3663 44.5281C92.9534 44.5281 92.6197 44.7878 92.6197 45.1096C92.6197 45.4313 92.9534 45.691 93.3663 45.691C93.7791 45.691 94.1128 45.4313 94.1128 45.1096Z" fill="white"/>
<path d="M95.9673 45.3229C95.7248 45.2283 95.5562 45.0304 95.5562 44.8051C95.5562 44.5934 95.7024 44.4094 95.9191 44.3062C95.9725 44.6674 95.9845 45.0081 95.9673 45.3229Z" fill="white"/>
<path d="M92.9582 41.5432C93.875 42.9178 95.1892 41.4262 95.7534 42.5393C95.1497 41.889 93.8079 43.2481 92.953 41.5467C92.9548 41.5467 92.9565 41.5449 92.9582 41.5432Z" fill="white"/>
<path d="M92.0989 43.5888C92.3156 43.2516 92.3982 42.6374 92.5479 42.1643C92.4601 42.8714 92.479 43.6335 92.0335 43.9483C91.6035 44.2511 91.3575 43.9638 91.1907 43.8279C91.3799 43.9397 91.8116 44.0395 92.0989 43.5905V43.5888Z" fill="white"/>
<path d="M90.3768 43.6813C89.9881 44.1166 90.9806 45.8094 91.2678 44.7256C91.3882 44.268 91.3418 44.0048 91.1285 43.7811C90.8499 43.4887 90.5093 43.5334 90.3768 43.6831V43.6813Z" fill="white"/>
<path d="M90.5439 43.9326C90.6798 43.8827 90.9224 43.9463 90.943 44.2457C90.9482 44.3248 90.8776 44.3455 90.8983 44.4246C90.912 44.4745 90.998 44.5244 91.0376 44.5295" fill="white"/>
<path d="M90.5439 43.9326C90.6798 43.8827 90.9224 43.9463 90.943 44.2457C90.9482 44.3248 90.8776 44.3455 90.8983 44.4246C90.912 44.4745 90.998 44.5244 91.0376 44.5295" stroke="white" stroke-width="0.69" stroke-linecap="round" stroke-linejoin="round"/>
<path d="M90.6535 44.1785C90.6965 44.0512 90.872 44.0375 90.9219 44.139L90.6535 44.1785Z" fill="white"/>
<path d="M90.6535 44.1785C90.6965 44.0512 90.872 44.0375 90.9219 44.139" stroke="white" stroke-width="0.69" stroke-linecap="round" stroke-linejoin="round"/>
<path d="M83.9662 75.6783C83.734 75.4151 84.3412 73.1253 84.4736 72.4922C84.988 70.0442 86.0562 68.1156 86.1061 67.7871C86.1061 67.7819 82.3923 65.062 82.0259 63.3537C81.6888 61.7762 84.7781 54.0088 86.2867 52.2025C86.9214 51.4421 89.2367 50.1811 89.5377 49.9609C89.9574 49.6529 90.9603 48.6809 91.0497 48.9545C91.0497 48.9545 93.7056 55.6776 93.8277 58.5402C93.8569 59.2232 92.3914 76.203 92.1231 76.5952C91.7016 77.2128 84.2741 76.0275 83.9662 75.6783ZM87.6765 61.9379C87.5492 60.6838 87.1433 59.3969 87.1433 59.3969C87.0005 59.4503 85.867 62.7774 85.867 62.7774L87.4116 63.9851C87.4116 63.9851 87.8038 63.1903 87.6765 61.9362V61.9379Z" fill="white"/>
<path d="M98.7521 75.6781C98.6265 76.4643 95.7745 76.7052 95.6885 76.5503C95.2499 75.7504 95.6679 69.1787 95.6507 66.6893C95.6318 63.8508 95.9276 61.1481 95.9896 58.2356C96.0549 55.139 93.9048 50.0846 93.75 49.0833C93.8962 48.9371 94.1937 49.5891 94.5223 49.8799C94.8543 50.174 96.485 51.1942 96.9391 51.8479C98.6816 54.3579 97.1851 61.3012 97.4775 63.3519C97.8335 65.8532 98.814 75.2962 98.7521 75.6764V75.6781Z" fill="white"/>
<path d="M97.7524 76.3388C97.3482 76.4386 96.1269 76.6588 95.6883 76.5504C95.2497 76.442 95.5713 70.0234 95.5713 70.0234" fill="white"/>
<path d="M97.7524 76.3388C97.3482 76.4386 96.1269 76.6588 95.6883 76.5504C95.2497 76.442 95.5713 70.0234 95.5713 70.0234" stroke="white" stroke-width="0.5" stroke-linecap="round" stroke-linejoin="round"/>
<path d="M92.5112 73.8237C92.4459 74.271 92.3048 76.2391 92.1225 76.5952C91.9401 76.9513 87.2528 76.504 85.2162 76.0361" fill="white"/>
<path d="M92.5112 73.8237C92.4459 74.271 92.3048 76.2391 92.1225 76.5952C91.9401 76.9513 87.2528 76.504 85.2162 76.0361" stroke="white" stroke-width="0.5" stroke-linecap="round" stroke-linejoin="round"/>
<path d="M96.8792 53.5635C96.7537 53.8577 96.733 54.4581 96.862 55.0344C96.9601 55.4713 97.717 56.4881 97.7754 57.1848C97.8529 58.0828 97.5931 58.7882 97.3179 59.3593C97.0547 59.9081 98.4601 71.0955 98.6338 74.4536" fill="white"/>
<path d="M96.8792 53.5635C96.7537 53.8577 96.733 54.4581 96.862 55.0344C96.9601 55.4713 97.717 56.4881 97.7754 57.1848C97.8529 58.0828 97.5931 58.7882 97.3179 59.3593C97.0547 59.9081 98.4601 71.0955 98.6338 74.4536" stroke="white" stroke-width="0.5" stroke-linecap="round" stroke-linejoin="round"/>
<path d="M89.4978 50.1328C89.8797 51.5228 90.0207 53.2449 90.1532 53.3533C90.2478 53.429 91.0132 52.906 91.0958 52.9903C91.1801 53.078 90.5333 54.4801 90.5866 54.6212C90.6365 54.7537 93.5745 57.9328 93.7207 59.0752" fill="white"/>
<path d="M89.4978 50.1328C89.8797 51.5228 90.0207 53.2449 90.1532 53.3533C90.2478 53.429 91.0132 52.906 91.0958 52.9903C91.1801 53.078 90.5333 54.4801 90.5866 54.6212C90.6365 54.7537 93.5745 57.9328 93.7207 59.0752" stroke="white" stroke-width="0.5" stroke-linecap="round" stroke-linejoin="round"/>
<path d="M95.1796 50.5217C95.4583 51.0722 95.9502 52.6532 95.9296 52.741C95.9089 52.8304 95.2828 52.6137 95.2828 52.6137C95.2828 52.6137 95.9416 53.7061 96.0173 53.8282C96.1807 54.0932 96.3441 57.7059 95.9829 58.5919" fill="white"/>
<path d="M95.1796 50.5217C95.4583 51.0722 95.9502 52.6532 95.9296 52.741C95.9089 52.8304 95.2828 52.6137 95.2828 52.6137C95.2828 52.6137 95.9416 53.7061 96.0173 53.8282C96.1807 54.0932 96.3441 57.7059 95.9829 58.5919" stroke="white" stroke-width="0.5" stroke-linecap="round" stroke-linejoin="round"/>
<path d="M87.141 59.3969C87.5693 58.2959 88.5412 56.7854 88.7046 56.1936L87.141 59.3969Z" fill="white"/>
<path d="M87.141 59.3969C87.5693 58.2959 88.5412 56.7854 88.7046 56.1936" stroke="white" stroke-width="0.5" stroke-linecap="round" stroke-linejoin="round"/>
<path d="M91.1987 75.2664L85.3965 70.604L91.8122 62.6177L97.6145 67.2801L91.1987 75.2664Z" fill="white"/>
<path d="M92.5118 64.5991L95.3672 66.8941" stroke="white" stroke-width="1.38" stroke-linecap="round" stroke-linejoin="round"/>
<path d="M88.091 64.4426C89.0594 65.3183 92.4756 67.8059 92.6408 68.2687C92.7319 68.5233 91.146 70.3142 90.7675 70.4552C90.4407 70.5774 85.5968 67.6958 85.5143 67.0489C85.4317 66.4021 88.0893 64.4426 88.0893 64.4426H88.091Z" fill="white"/>
<path d="M89.4121 65.4902C88.7051 64.8536 88.1272 64.4442 87.5613 63.9849L89.4121 65.4902Z" fill="white"/>
<path d="M89.4121 65.4902C88.7051 64.8536 88.1272 64.4442 87.5613 63.9849" stroke="white" stroke-width="0.5" stroke-linecap="round" stroke-linejoin="round"/>
<path d="M94.0632 72.129C93.8069 72.1772 93.7296 71.1381 93.6521 71.0194C93.5971 70.9386 91.9303 70.2074 91.6413 69.884C91.2044 69.3989 92.1969 68.272 92.3999 68.451C92.6183 68.6419 94.9594 70.6564 95.054 70.8439C95.1418 71.016 95.0936 71.7833 95.0626 71.785C94.9027 71.797 94.8511 71.1209 94.7651 71.0951C94.7341 71.0968 94.4623 72.0533 94.0632 72.1273V72.129Z" fill="white"/>
<path d="M94.2607 71.9967C94.2607 71.9967 94.2986 71.9073 94.3467 71.7714C94.3915 71.6337 94.4534 71.4497 94.4895 71.2553C94.5085 71.1589 94.5239 71.0609 94.5239 70.9594C94.5239 70.9336 94.5222 70.9077 94.5153 70.8785V70.8682L94.5119 70.8596V70.8561L94.505 70.8407C94.5016 70.8303 94.4947 70.8114 94.4878 70.7994C94.4637 70.7512 94.4293 70.7168 94.4001 70.6875C94.3399 70.6325 94.2883 70.6033 94.2522 70.5792C94.2178 70.5568 94.1971 70.5448 94.1971 70.5448C94.1765 70.531 94.1472 70.5379 94.1352 70.5585C94.1249 70.574 94.1266 70.5929 94.1352 70.6084C94.1352 70.6084 94.1489 70.6308 94.1782 70.6635C94.2057 70.6961 94.2487 70.7409 94.2883 70.789C94.3072 70.8131 94.3227 70.8424 94.333 70.8682L94.3382 70.8854L94.3416 70.9009V70.9043V70.9095C94.345 70.9232 94.3433 70.9422 94.345 70.9611C94.345 71.0402 94.3278 71.1331 94.3124 71.2243C94.2762 71.4101 94.2401 71.5976 94.2126 71.737C94.1868 71.878 94.1713 71.9744 94.1713 71.9744C94.1679 71.9984 94.1833 72.0225 94.2092 72.026C94.2298 72.0294 94.2504 72.0174 94.2573 71.9984L94.2607 71.9967Z" fill="white"/>
<path d="M94.0752 72.0243C94.0752 72.0243 94.0993 71.94 94.1234 71.8076C94.144 71.6768 94.1698 71.5014 94.175 71.3225C94.1767 71.233 94.1784 71.1435 94.1681 71.0558C94.1629 71.0111 94.1578 70.9698 94.1371 70.9164C94.1216 70.882 94.1113 70.8717 94.0993 70.8545C94.0872 70.8373 94.0752 70.8253 94.0615 70.8115C93.9617 70.7066 93.8636 70.6756 93.8636 70.6756C93.8396 70.6687 93.8137 70.6825 93.8069 70.7066C93.8017 70.7238 93.8069 70.7393 93.8172 70.7513C93.8172 70.7513 93.8722 70.8098 93.9376 70.9113C93.9445 70.9233 93.9531 70.9371 93.9617 70.9509C93.9686 70.9629 93.9806 70.9835 93.9789 70.9835C93.984 71.0007 93.9909 71.0386 93.9944 71.0747C93.9995 71.1504 94.0012 71.2347 94.0012 71.3207C94.0012 71.491 93.9978 71.6648 93.9926 71.7955C93.9909 71.9263 93.9892 72.014 93.9892 72.014C93.9892 72.0381 94.0081 72.0588 94.0339 72.0605C94.0546 72.0605 94.0718 72.0467 94.0786 72.0278L94.0752 72.0243Z" fill="white"/>
<path d="M94.8095 71.0902C94.8095 71.0902 94.8216 71.0575 94.8233 71.0059C94.8267 70.956 94.8216 70.8837 94.7889 70.8132C94.7803 70.796 94.7734 70.7805 94.7614 70.7633C94.7511 70.7478 94.739 70.7323 94.727 70.7186C94.7029 70.6928 94.6754 70.6721 94.6513 70.6584C94.6031 70.6308 94.5653 70.6257 94.5653 70.6257C94.5395 70.6222 94.5137 70.6394 94.5102 70.667C94.5085 70.679 94.5102 70.6911 94.5188 70.7014C94.5188 70.7014 94.5378 70.7289 94.5601 70.7633C94.5842 70.7977 94.6066 70.8424 94.6272 70.8872C94.6478 70.9388 94.6702 70.9904 94.6857 71.03C94.7029 71.073 94.7218 71.1022 94.7218 71.1022C94.7356 71.1246 94.7665 71.1315 94.7889 71.1177C94.7992 71.1108 94.8061 71.1022 94.8095 71.0919V71.0902Z" fill="white"/>
<path d="M92.3691 68.3684C91.7998 68.6505 91.0292 69.5417 90.7557 70.1541L92.3691 68.3684Z" fill="white"/>
<path d="M92.3691 68.3684C91.7998 68.6505 91.0292 69.5417 90.7557 70.1541" stroke="white" stroke-width="1.38" stroke-linecap="round" stroke-linejoin="round"/>
<path d="M86.211 67.9094C86.3709 68.0247 86.6823 68.2156 87.0762 68.4324L86.211 67.9094Z" fill="white"/>
<path d="M86.211 67.9094C86.3709 68.0247 86.6823 68.2156 87.0762 68.4324" stroke="white" stroke-width="0.5" stroke-linecap="round" stroke-linejoin="round"/>
</svg>
