<svg width="39" height="52" viewBox="0 0 39 52" fill="none" xmlns="http://www.w3.org/2000/svg">
<mask id="mask0_277_5093" style="mask-type:alpha" maskUnits="userSpaceOnUse" x="7" y="0" width="25" height="24">
<rect x="7.5" width="24" height="24" fill="#D9D9D9"/>
</mask>
<g mask="url(#mask0_277_5093)">
<path d="M12.5 21C11.95 21 11.4792 20.8042 11.0875 20.4125C10.6958 20.0208 10.5 19.55 10.5 19V5C10.5 4.45 10.6958 3.97917 11.0875 3.5875C11.4792 3.19583 11.95 3 12.5 3H21.5V5H12.5V19H26.5V10H28.5V19C28.5 19.55 28.3042 20.0208 27.9125 20.4125C27.5208 20.8042 27.05 21 26.5 21H12.5ZM24.5 9V7H22.5V5H24.5V3H26.5V5H28.5V7H26.5V9H24.5ZM13.5 17H25.5L21.75 12L18.75 16L16.5 13L13.5 17Z" fill="black"/>
</g>
<path d="M4.104 48.12C3.488 48.12 2.936 47.984 2.448 47.712C1.968 47.432 1.588 47.052 1.308 46.572C1.028 46.084 0.888 45.532 0.888 44.916V39.672H2.016V44.892C2.016 45.332 2.108 45.712 2.292 46.032C2.476 46.352 2.724 46.6 3.036 46.776C3.356 46.952 3.712 47.04 4.104 47.04C4.512 47.04 4.868 46.952 5.172 46.776C5.484 46.6 5.728 46.352 5.904 46.032C6.088 45.712 6.18 45.336 6.18 44.904V39.672H7.32V44.928C7.32 45.544 7.18 46.092 6.9 46.572C6.62 47.052 6.24 47.432 5.76 47.712C5.28 47.984 4.728 48.12 4.104 48.12ZM11.9834 48.12C11.5514 48.12 11.1594 48.032 10.8074 47.856C10.4634 47.672 10.1874 47.42 9.97941 47.1C9.77141 46.78 9.65541 46.416 9.63141 46.008V44.292C9.65541 43.876 9.77141 43.512 9.97941 43.2C10.1954 42.88 10.4754 42.632 10.8194 42.456C11.1714 42.272 11.5594 42.18 11.9834 42.18C12.5034 42.18 12.9714 42.312 13.3874 42.576C13.8114 42.84 14.1434 43.196 14.3834 43.644C14.6234 44.092 14.7434 44.596 14.7434 45.156C14.7434 45.716 14.6234 46.22 14.3834 46.668C14.1434 47.116 13.8114 47.472 13.3874 47.736C12.9714 47.992 12.5034 48.12 11.9834 48.12ZM11.8034 47.1C12.1634 47.1 12.4794 47.016 12.7514 46.848C13.0234 46.68 13.2394 46.452 13.3994 46.164C13.5594 45.868 13.6394 45.528 13.6394 45.144C13.6394 44.768 13.5594 44.432 13.3994 44.136C13.2394 43.84 13.0234 43.612 12.7514 43.452C12.4794 43.284 12.1674 43.2 11.8154 43.2C11.4554 43.2 11.1394 43.284 10.8674 43.452C10.5954 43.612 10.3834 43.84 10.2314 44.136C10.0794 44.432 10.0034 44.772 10.0034 45.156C10.0034 45.532 10.0754 45.868 10.2194 46.164C10.3714 46.452 10.5834 46.68 10.8554 46.848C11.1354 47.016 11.4514 47.1 11.8034 47.1ZM8.98341 50.388V42.3H10.0634V43.8L9.85941 45.18L10.0634 46.572V50.388H8.98341ZM15.9678 48V39.432H17.0478V48H15.9678ZM21.2319 48.12C20.6719 48.12 20.1679 47.988 19.7199 47.724C19.2719 47.46 18.9159 47.104 18.6519 46.656C18.3879 46.2 18.2559 45.692 18.2559 45.132C18.2559 44.58 18.3879 44.084 18.6519 43.644C18.9159 43.196 19.2719 42.84 19.7199 42.576C20.1679 42.312 20.6719 42.18 21.2319 42.18C21.7839 42.18 22.2839 42.312 22.7319 42.576C23.1879 42.832 23.5479 43.184 23.8119 43.632C24.0759 44.08 24.2079 44.58 24.2079 45.132C24.2079 45.692 24.0759 46.2 23.8119 46.656C23.5479 47.104 23.1879 47.46 22.7319 47.724C22.2839 47.988 21.7839 48.12 21.2319 48.12ZM21.2319 47.076C21.5919 47.076 21.9119 46.992 22.1919 46.824C22.4719 46.656 22.6919 46.428 22.8519 46.14C23.0119 45.844 23.0919 45.508 23.0919 45.132C23.0919 44.764 23.0079 44.436 22.8399 44.148C22.6799 43.86 22.4599 43.636 22.1799 43.476C21.9079 43.308 21.5919 43.224 21.2319 43.224C20.8719 43.224 20.5519 43.308 20.2719 43.476C19.9919 43.636 19.7719 43.86 19.6119 44.148C19.4519 44.436 19.3719 44.764 19.3719 45.132C19.3719 45.508 19.4519 45.844 19.6119 46.14C19.7719 46.428 19.9919 46.656 20.2719 46.824C20.5519 46.992 20.8719 47.076 21.2319 47.076ZM27.8488 48.12C27.3288 48.12 26.8568 47.992 26.4328 47.736C26.0088 47.472 25.6728 47.116 25.4248 46.668C25.1848 46.22 25.0648 45.716 25.0648 45.156C25.0648 44.596 25.1848 44.092 25.4248 43.644C25.6728 43.196 26.0048 42.84 26.4208 42.576C26.8448 42.312 27.3208 42.18 27.8488 42.18C28.2808 42.18 28.6648 42.272 29.0008 42.456C29.3448 42.632 29.6208 42.88 29.8288 43.2C30.0368 43.512 30.1528 43.876 30.1768 44.292V46.008C30.1528 46.416 30.0368 46.78 29.8288 47.1C29.6288 47.42 29.3568 47.672 29.0128 47.856C28.6768 48.032 28.2888 48.12 27.8488 48.12ZM28.0288 47.1C28.5648 47.1 28.9968 46.92 29.3248 46.56C29.6528 46.192 29.8168 45.724 29.8168 45.156C29.8168 44.764 29.7408 44.424 29.5888 44.136C29.4448 43.84 29.2368 43.612 28.9648 43.452C28.6928 43.284 28.3768 43.2 28.0168 43.2C27.6568 43.2 27.3368 43.284 27.0568 43.452C26.7848 43.62 26.5688 43.852 26.4088 44.148C26.2568 44.436 26.1808 44.768 26.1808 45.144C26.1808 45.528 26.2568 45.868 26.4088 46.164C26.5688 46.452 26.7888 46.68 27.0688 46.848C27.3488 47.016 27.6688 47.1 28.0288 47.1ZM29.7448 48V46.464L29.9488 45.072L29.7448 43.692V42.3H30.8368V48H29.7448ZM34.8212 48.12C34.2932 48.12 33.8212 47.992 33.4052 47.736C32.9892 47.472 32.6572 47.116 32.4092 46.668C32.1692 46.22 32.0492 45.716 32.0492 45.156C32.0492 44.596 32.1692 44.092 32.4092 43.644C32.6572 43.196 32.9892 42.84 33.4052 42.576C33.8212 42.312 34.2932 42.18 34.8212 42.18C35.2452 42.18 35.6292 42.272 35.9732 42.456C36.3172 42.632 36.5932 42.88 36.8012 43.2C37.0172 43.512 37.1372 43.876 37.1612 44.292V46.008C37.1372 46.416 37.0212 46.78 36.8132 47.1C36.6052 47.42 36.3292 47.672 35.9852 47.856C35.6412 48.032 35.2532 48.12 34.8212 48.12ZM35.0012 47.1C35.3612 47.1 35.6732 47.016 35.9372 46.848C36.2092 46.68 36.4212 46.452 36.5732 46.164C36.7252 45.868 36.8012 45.532 36.8012 45.156C36.8012 44.764 36.7212 44.424 36.5612 44.136C36.4092 43.848 36.1972 43.62 35.9252 43.452C35.6612 43.284 35.3492 43.2 34.9892 43.2C34.6292 43.2 34.3132 43.284 34.0412 43.452C33.7692 43.62 33.5532 43.852 33.3932 44.148C33.2412 44.436 33.1652 44.768 33.1652 45.144C33.1652 45.528 33.2412 45.868 33.3932 46.164C33.5532 46.452 33.7692 46.68 34.0412 46.848C34.3212 47.016 34.6412 47.1 35.0012 47.1ZM37.8212 48H36.7292V46.464L36.9332 45.072L36.7292 43.692V39.432H37.8212V48Z" fill="black"/>
</svg>
