<svg width="75" height="52" viewBox="0 0 75 52" fill="none" xmlns="http://www.w3.org/2000/svg">
<mask id="mask0_67_4496" style="mask-type:alpha" maskUnits="userSpaceOnUse" x="25" y="0" width="25" height="24">
<rect x="25.5" width="24" height="24" fill="#D9D9D9"/>
</mask>
<g mask="url(#mask0_67_4496)">
<path d="M30.5 21C29.95 21 29.4792 20.8042 29.0875 20.4125C28.6958 20.0208 28.5 19.55 28.5 19V5C28.5 4.45 28.6958 3.97917 29.0875 3.5875C29.4792 3.19583 29.95 3 30.5 3H39.5V5H30.5V19H44.5V10H46.5V19C46.5 19.55 46.3042 20.0208 45.9125 20.4125C45.5208 20.8042 45.05 21 44.5 21H30.5ZM42.5 9V7H40.5V5H42.5V3H44.5V5H46.5V7H44.5V9H42.5ZM31.5 17H43.5L39.75 12L36.75 16L34.5 13L31.5 17Z" fill="black"/>
</g>
<path d="M4.104 48.12C3.488 48.12 2.936 47.984 2.448 47.712C1.968 47.432 1.588 47.052 1.308 46.572C1.028 46.084 0.888 45.532 0.888 44.916V39.672H2.016V44.892C2.016 45.332 2.108 45.712 2.292 46.032C2.476 46.352 2.724 46.6 3.036 46.776C3.356 46.952 3.712 47.04 4.104 47.04C4.512 47.04 4.868 46.952 5.172 46.776C5.484 46.6 5.728 46.352 5.904 46.032C6.088 45.712 6.18 45.336 6.18 44.904V39.672H7.32V44.928C7.32 45.544 7.18 46.092 6.9 46.572C6.62 47.052 6.24 47.432 5.76 47.712C5.28 47.984 4.728 48.12 4.104 48.12ZM11.9834 48.12C11.5514 48.12 11.1594 48.032 10.8074 47.856C10.4634 47.672 10.1874 47.42 9.97941 47.1C9.77141 46.78 9.65541 46.416 9.63141 46.008V44.292C9.65541 43.876 9.77141 43.512 9.97941 43.2C10.1954 42.88 10.4754 42.632 10.8194 42.456C11.1714 42.272 11.5594 42.18 11.9834 42.18C12.5034 42.18 12.9714 42.312 13.3874 42.576C13.8114 42.84 14.1434 43.196 14.3834 43.644C14.6234 44.092 14.7434 44.596 14.7434 45.156C14.7434 45.716 14.6234 46.22 14.3834 46.668C14.1434 47.116 13.8114 47.472 13.3874 47.736C12.9714 47.992 12.5034 48.12 11.9834 48.12ZM11.8034 47.1C12.1634 47.1 12.4794 47.016 12.7514 46.848C13.0234 46.68 13.2394 46.452 13.3994 46.164C13.5594 45.868 13.6394 45.528 13.6394 45.144C13.6394 44.768 13.5594 44.432 13.3994 44.136C13.2394 43.84 13.0234 43.612 12.7514 43.452C12.4794 43.284 12.1674 43.2 11.8154 43.2C11.4554 43.2 11.1394 43.284 10.8674 43.452C10.5954 43.612 10.3834 43.84 10.2314 44.136C10.0794 44.432 10.0034 44.772 10.0034 45.156C10.0034 45.532 10.0754 45.868 10.2194 46.164C10.3714 46.452 10.5834 46.68 10.8554 46.848C11.1354 47.016 11.4514 47.1 11.8034 47.1ZM8.98341 50.388V42.3H10.0634V43.8L9.85941 45.18L10.0634 46.572V50.388H8.98341ZM15.9678 48V39.432H17.0478V48H15.9678ZM21.2319 48.12C20.6719 48.12 20.1679 47.988 19.7199 47.724C19.2719 47.46 18.9159 47.104 18.6519 46.656C18.3879 46.2 18.2559 45.692 18.2559 45.132C18.2559 44.58 18.3879 44.084 18.6519 43.644C18.9159 43.196 19.2719 42.84 19.7199 42.576C20.1679 42.312 20.6719 42.18 21.2319 42.18C21.7839 42.18 22.2839 42.312 22.7319 42.576C23.1879 42.832 23.5479 43.184 23.8119 43.632C24.0759 44.08 24.2079 44.58 24.2079 45.132C24.2079 45.692 24.0759 46.2 23.8119 46.656C23.5479 47.104 23.1879 47.46 22.7319 47.724C22.2839 47.988 21.7839 48.12 21.2319 48.12ZM21.2319 47.076C21.5919 47.076 21.9119 46.992 22.1919 46.824C22.4719 46.656 22.6919 46.428 22.8519 46.14C23.0119 45.844 23.0919 45.508 23.0919 45.132C23.0919 44.764 23.0079 44.436 22.8399 44.148C22.6799 43.86 22.4599 43.636 22.1799 43.476C21.9079 43.308 21.5919 43.224 21.2319 43.224C20.8719 43.224 20.5519 43.308 20.2719 43.476C19.9919 43.636 19.7719 43.86 19.6119 44.148C19.4519 44.436 19.3719 44.764 19.3719 45.132C19.3719 45.508 19.4519 45.844 19.6119 46.14C19.7719 46.428 19.9919 46.656 20.2719 46.824C20.5519 46.992 20.8719 47.076 21.2319 47.076ZM27.8488 48.12C27.3288 48.12 26.8568 47.992 26.4328 47.736C26.0088 47.472 25.6728 47.116 25.4248 46.668C25.1848 46.22 25.0648 45.716 25.0648 45.156C25.0648 44.596 25.1848 44.092 25.4248 43.644C25.6728 43.196 26.0048 42.84 26.4208 42.576C26.8448 42.312 27.3208 42.18 27.8488 42.18C28.2808 42.18 28.6648 42.272 29.0008 42.456C29.3448 42.632 29.6208 42.88 29.8288 43.2C30.0368 43.512 30.1528 43.876 30.1768 44.292V46.008C30.1528 46.416 30.0368 46.78 29.8288 47.1C29.6288 47.42 29.3568 47.672 29.0128 47.856C28.6768 48.032 28.2888 48.12 27.8488 48.12ZM28.0288 47.1C28.5648 47.1 28.9968 46.92 29.3248 46.56C29.6528 46.192 29.8168 45.724 29.8168 45.156C29.8168 44.764 29.7408 44.424 29.5888 44.136C29.4448 43.84 29.2368 43.612 28.9648 43.452C28.6928 43.284 28.3768 43.2 28.0168 43.2C27.6568 43.2 27.3368 43.284 27.0568 43.452C26.7848 43.62 26.5688 43.852 26.4088 44.148C26.2568 44.436 26.1808 44.768 26.1808 45.144C26.1808 45.528 26.2568 45.868 26.4088 46.164C26.5688 46.452 26.7888 46.68 27.0688 46.848C27.3488 47.016 27.6688 47.1 28.0288 47.1ZM29.7448 48V46.464L29.9488 45.072L29.7448 43.692V42.3H30.8368V48H29.7448ZM34.8212 48.12C34.2932 48.12 33.8212 47.992 33.4052 47.736C32.9892 47.472 32.6572 47.116 32.4092 46.668C32.1692 46.22 32.0492 45.716 32.0492 45.156C32.0492 44.596 32.1692 44.092 32.4092 43.644C32.6572 43.196 32.9892 42.84 33.4052 42.576C33.8212 42.312 34.2932 42.18 34.8212 42.18C35.2452 42.18 35.6292 42.272 35.9732 42.456C36.3172 42.632 36.5932 42.88 36.8012 43.2C37.0172 43.512 37.1372 43.876 37.1612 44.292V46.008C37.1372 46.416 37.0212 46.78 36.8132 47.1C36.6052 47.42 36.3292 47.672 35.9852 47.856C35.6412 48.032 35.2532 48.12 34.8212 48.12ZM35.0012 47.1C35.3612 47.1 35.6732 47.016 35.9372 46.848C36.2092 46.68 36.4212 46.452 36.5732 46.164C36.7252 45.868 36.8012 45.532 36.8012 45.156C36.8012 44.764 36.7212 44.424 36.5612 44.136C36.4092 43.848 36.1972 43.62 35.9252 43.452C35.6612 43.284 35.3492 43.2 34.9892 43.2C34.6292 43.2 34.3132 43.284 34.0412 43.452C33.7692 43.62 33.5532 43.852 33.3932 44.148C33.2412 44.436 33.1652 44.768 33.1652 45.144C33.1652 45.528 33.2412 45.868 33.3932 46.164C33.5532 46.452 33.7692 46.68 34.0412 46.848C34.3212 47.016 34.6412 47.1 35.0012 47.1ZM37.8212 48H36.7292V46.464L36.9332 45.072L36.7292 43.692V39.432H37.8212V48ZM42.0817 48V39.672H43.2097V48H42.0817ZM44.9834 48V42.3H46.0634V48H44.9834ZM48.8354 48V44.556C48.8354 44.132 48.7034 43.8 48.4394 43.56C48.1834 43.312 47.8594 43.188 47.4674 43.188C47.2034 43.188 46.9674 43.244 46.7594 43.356C46.5514 43.468 46.3834 43.624 46.2554 43.824C46.1274 44.024 46.0634 44.264 46.0634 44.544L45.6194 44.328C45.6194 43.896 45.7114 43.52 45.8954 43.2C46.0874 42.88 46.3474 42.632 46.6754 42.456C47.0034 42.272 47.3714 42.18 47.7794 42.18C48.1794 42.18 48.5394 42.268 48.8594 42.444C49.1874 42.62 49.4434 42.868 49.6274 43.188C49.8194 43.508 49.9154 43.888 49.9154 44.328V48H48.8354ZM52.6874 48V44.556C52.6874 44.132 52.5554 43.8 52.2914 43.56C52.0354 43.312 51.7154 43.188 51.3314 43.188C51.0674 43.188 50.8274 43.244 50.6114 43.356C50.4034 43.468 50.2354 43.624 50.1074 43.824C49.9794 44.024 49.9154 44.264 49.9154 44.544L49.3034 44.328C49.3274 43.888 49.4434 43.512 49.6514 43.2C49.8674 42.88 50.1434 42.632 50.4794 42.456C50.8154 42.272 51.1834 42.18 51.5834 42.18C51.9994 42.18 52.3714 42.268 52.6994 42.444C53.0274 42.62 53.2874 42.868 53.4794 43.188C53.6794 43.508 53.7794 43.892 53.7794 44.34V48H52.6874ZM57.673 48.12C57.153 48.12 56.681 47.992 56.257 47.736C55.833 47.472 55.497 47.116 55.249 46.668C55.009 46.22 54.889 45.716 54.889 45.156C54.889 44.596 55.009 44.092 55.249 43.644C55.497 43.196 55.829 42.84 56.245 42.576C56.669 42.312 57.145 42.18 57.673 42.18C58.105 42.18 58.489 42.272 58.825 42.456C59.169 42.632 59.445 42.88 59.653 43.2C59.861 43.512 59.977 43.876 60.001 44.292V46.008C59.977 46.416 59.861 46.78 59.653 47.1C59.453 47.42 59.181 47.672 58.837 47.856C58.501 48.032 58.113 48.12 57.673 48.12ZM57.853 47.1C58.389 47.1 58.821 46.92 59.149 46.56C59.477 46.192 59.641 45.724 59.641 45.156C59.641 44.764 59.565 44.424 59.413 44.136C59.269 43.84 59.061 43.612 58.789 43.452C58.517 43.284 58.201 43.2 57.841 43.2C57.481 43.2 57.161 43.284 56.881 43.452C56.609 43.62 56.393 43.852 56.233 44.148C56.081 44.436 56.005 44.768 56.005 45.144C56.005 45.528 56.081 45.868 56.233 46.164C56.393 46.452 56.613 46.68 56.893 46.848C57.173 47.016 57.493 47.1 57.853 47.1ZM59.569 48V46.464L59.773 45.072L59.569 43.692V42.3H60.661V48H59.569ZM64.5974 50.508C64.0134 50.508 63.4934 50.4 63.0374 50.184C62.5894 49.968 62.2294 49.664 61.9574 49.272L62.6534 48.564C62.8854 48.86 63.1614 49.084 63.4814 49.236C63.8014 49.396 64.1814 49.476 64.6214 49.476C65.2054 49.476 65.6654 49.32 66.0014 49.008C66.3454 48.704 66.5174 48.292 66.5174 47.772V46.356L66.7094 45.072L66.5174 43.8V42.3H67.5974V47.772C67.5974 48.316 67.4694 48.792 67.2134 49.2C66.9654 49.608 66.6134 49.928 66.1574 50.16C65.7094 50.392 65.1894 50.508 64.5974 50.508ZM64.5974 47.904C64.0774 47.904 63.6094 47.78 63.1934 47.532C62.7854 47.284 62.4614 46.944 62.2214 46.512C61.9814 46.072 61.8614 45.58 61.8614 45.036C61.8614 44.492 61.9814 44.008 62.2214 43.584C62.4614 43.152 62.7854 42.812 63.1934 42.564C63.6094 42.308 64.0774 42.18 64.5974 42.18C65.0454 42.18 65.4414 42.268 65.7854 42.444C66.1294 42.62 66.4014 42.868 66.6014 43.188C66.8094 43.5 66.9214 43.868 66.9374 44.292V45.804C66.9134 46.22 66.7974 46.588 66.5894 46.908C66.3894 47.22 66.1174 47.464 65.7734 47.64C65.4294 47.816 65.0374 47.904 64.5974 47.904ZM64.8134 46.884C65.1654 46.884 65.4734 46.808 65.7374 46.656C66.0094 46.504 66.2174 46.292 66.3614 46.02C66.5054 45.74 66.5774 45.416 66.5774 45.048C66.5774 44.68 66.5014 44.36 66.3494 44.088C66.2054 43.808 66.0014 43.592 65.7374 43.44C65.4734 43.28 65.1614 43.2 64.8014 43.2C64.4414 43.2 64.1254 43.28 63.8534 43.44C63.5814 43.592 63.3654 43.808 63.2054 44.088C63.0534 44.36 62.9774 44.676 62.9774 45.036C62.9774 45.396 63.0534 45.716 63.2054 45.996C63.3654 46.276 63.5814 46.496 63.8534 46.656C64.1334 46.808 64.4534 46.884 64.8134 46.884ZM71.8226 48.12C71.2546 48.12 70.7426 47.992 70.2866 47.736C69.8306 47.472 69.4706 47.116 69.2066 46.668C68.9426 46.22 68.8106 45.712 68.8106 45.144C68.8106 44.584 68.9386 44.08 69.1946 43.632C69.4586 43.184 69.8106 42.832 70.2506 42.576C70.6986 42.312 71.1986 42.18 71.7506 42.18C72.2786 42.18 72.7426 42.3 73.1426 42.54C73.5506 42.78 73.8666 43.112 74.0906 43.536C74.3226 43.96 74.4386 44.44 74.4386 44.976C74.4386 45.056 74.4346 45.144 74.4266 45.24C74.4186 45.328 74.4026 45.432 74.3786 45.552H69.5666V44.652H73.8026L73.4066 45C73.4066 44.616 73.3386 44.292 73.2026 44.028C73.0666 43.756 72.8746 43.548 72.6266 43.404C72.3786 43.252 72.0786 43.176 71.7266 43.176C71.3586 43.176 71.0346 43.256 70.7546 43.416C70.4746 43.576 70.2586 43.8 70.1066 44.088C69.9546 44.376 69.8786 44.716 69.8786 45.108C69.8786 45.508 69.9586 45.86 70.1186 46.164C70.2786 46.46 70.5066 46.692 70.8026 46.86C71.0986 47.02 71.4386 47.1 71.8226 47.1C72.1426 47.1 72.4346 47.044 72.6986 46.932C72.9706 46.82 73.2026 46.652 73.3946 46.428L74.0906 47.136C73.8186 47.456 73.4826 47.7 73.0826 47.868C72.6906 48.036 72.2706 48.12 71.8226 48.12Z" fill="black"/>
</svg>
