<svg width="32" height="10" viewBox="0 0 32 10" fill="none" xmlns="http://www.w3.org/2000/svg">
<path fill-rule="evenodd" clip-rule="evenodd" d="M8.428 9.55817H5.80669L3.84103 2.0851C3.74773 1.74134 3.54963 1.43743 3.25823 1.2942C2.53101 0.934245 1.72966 0.647777 0.855469 0.503298V0.215585H5.07819C5.66099 0.215585 6.09809 0.647777 6.17094 1.14972L7.19083 6.54029L9.81087 0.215585H12.3593L8.428 9.55817ZM13.8157 9.55817H11.3401L13.3786 0.215585H15.8542L13.8157 9.55817ZM19.0582 2.80365C19.131 2.30046 19.5681 2.01275 20.0781 2.01275C20.8794 1.94051 21.7523 2.08499 22.4808 2.4437L22.9179 0.432193C22.1894 0.144479 21.3881 0 20.6609 0C18.2581 0 16.5097 1.29409 16.5097 3.09012C16.5097 4.45644 17.7482 5.17386 18.6223 5.60605C19.5681 6.037 19.9324 6.32471 19.8595 6.75566C19.8595 7.40208 19.131 7.6898 18.4038 7.6898C17.5296 7.6898 16.6554 7.47432 15.8553 7.11437L15.4182 9.12712C16.2924 9.48582 17.2382 9.6303 18.1124 9.6303C20.8066 9.7013 22.4808 8.40846 22.4808 6.46795C22.4808 4.02425 19.0582 3.88102 19.0582 2.80365ZM31.1442 9.55817L29.1786 0.215585H27.0672C26.6301 0.215585 26.193 0.503298 26.0473 0.934245L22.4074 9.55817H24.9559L25.4645 8.19309H28.5958L28.8872 9.55817H31.1442ZM27.432 2.73107L28.1592 6.25214H26.1207L27.432 2.73107Z" fill="#172B85"/>
</svg>
