<svg width="390" height="844" viewBox="0 0 390 844" fill="none" xmlns="http://www.w3.org/2000/svg">
<g clip-path="url(#clip0_4_2)">
<rect width="390" height="844" rx="30" fill="white"/>
<g style="mix-blend-mode:multiply">
<rect width="390" height="844" fill="#2B65EC"/>
</g>
<rect x="130" y="339" width="131" height="131" rx="27" fill="black" fill-opacity="0.1"/>
<path d="M152.92 499.441C151.813 499.441 150.873 499.241 150.1 498.841C149.327 498.441 148.633 497.854 148.02 497.081L149.58 495.521C149.967 496.081 150.427 496.521 150.96 496.841C151.493 497.148 152.173 497.301 153 497.301C153.773 497.301 154.387 497.141 154.84 496.821C155.307 496.501 155.54 496.061 155.54 495.501C155.54 495.034 155.42 494.654 155.18 494.361C154.94 494.068 154.62 493.828 154.22 493.641C153.833 493.441 153.4 493.268 152.92 493.121C152.453 492.961 151.98 492.788 151.5 492.601C151.033 492.401 150.6 492.154 150.2 491.861C149.813 491.568 149.5 491.188 149.26 490.721C149.02 490.254 148.9 489.661 148.9 488.941C148.9 488.114 149.1 487.414 149.5 486.841C149.913 486.254 150.467 485.808 151.16 485.501C151.853 485.194 152.627 485.041 153.48 485.041C154.4 485.041 155.22 485.221 155.94 485.581C156.673 485.941 157.267 486.401 157.72 486.961L156.16 488.521C155.76 488.068 155.34 487.734 154.9 487.521C154.473 487.294 153.98 487.181 153.42 487.181C152.727 487.181 152.18 487.321 151.78 487.601C151.393 487.881 151.2 488.274 151.2 488.781C151.2 489.208 151.32 489.554 151.56 489.821C151.8 490.074 152.113 490.294 152.5 490.481C152.9 490.654 153.333 490.821 153.8 490.981C154.28 491.141 154.753 491.321 155.22 491.521C155.7 491.721 156.133 491.981 156.52 492.301C156.92 492.608 157.24 493.008 157.48 493.501C157.72 493.994 157.84 494.614 157.84 495.361C157.84 496.614 157.393 497.608 156.5 498.341C155.62 499.074 154.427 499.441 152.92 499.441ZM161.293 499.241V485.641H163.493V499.241H161.293ZM158.993 491.641V489.641H165.793V491.641H158.993ZM171.138 499.441C170.272 499.441 169.485 499.221 168.778 498.781C168.085 498.341 167.532 497.748 167.118 497.001C166.718 496.241 166.518 495.394 166.518 494.461C166.518 493.514 166.718 492.668 167.118 491.921C167.532 491.161 168.085 490.561 168.778 490.121C169.485 489.668 170.272 489.441 171.138 489.441C171.872 489.441 172.518 489.601 173.078 489.921C173.652 490.228 174.105 490.654 174.438 491.201C174.772 491.748 174.938 492.368 174.938 493.061V495.821C174.938 496.514 174.772 497.134 174.438 497.681C174.118 498.228 173.672 498.661 173.098 498.981C172.525 499.288 171.872 499.441 171.138 499.441ZM171.498 497.361C172.312 497.361 172.965 497.088 173.458 496.541C173.965 495.994 174.218 495.294 174.218 494.441C174.218 493.868 174.105 493.361 173.878 492.921C173.652 492.481 173.332 492.141 172.918 491.901C172.518 491.648 172.045 491.521 171.498 491.521C170.965 491.521 170.492 491.648 170.078 491.901C169.678 492.141 169.358 492.481 169.118 492.921C168.892 493.361 168.778 493.868 168.778 494.441C168.778 495.014 168.892 495.521 169.118 495.961C169.358 496.401 169.678 496.748 170.078 497.001C170.492 497.241 170.965 497.361 171.498 497.361ZM174.078 499.241V496.661L174.458 494.321L174.078 492.001V489.641H176.278V499.241H174.078ZM185.3 499.241V493.701C185.3 493.061 185.093 492.534 184.68 492.121C184.28 491.708 183.76 491.501 183.12 491.501C182.693 491.501 182.313 491.594 181.98 491.781C181.647 491.968 181.387 492.228 181.2 492.561C181.013 492.894 180.92 493.274 180.92 493.701L180.06 493.221C180.06 492.488 180.22 491.841 180.54 491.281C180.86 490.708 181.3 490.261 181.86 489.941C182.433 489.608 183.073 489.441 183.78 489.441C184.5 489.441 185.14 489.628 185.7 490.001C186.26 490.361 186.7 490.834 187.02 491.421C187.34 491.994 187.5 492.594 187.5 493.221V499.241H185.3ZM178.72 499.241V489.641H180.92V499.241H178.72ZM193.756 499.441C192.889 499.441 192.102 499.221 191.396 498.781C190.702 498.341 190.149 497.748 189.736 497.001C189.336 496.241 189.136 495.394 189.136 494.461C189.136 493.514 189.336 492.668 189.736 491.921C190.149 491.161 190.702 490.561 191.396 490.121C192.102 489.668 192.889 489.441 193.756 489.441C194.489 489.441 195.136 489.601 195.696 489.921C196.269 490.228 196.722 490.654 197.056 491.201C197.389 491.748 197.556 492.368 197.556 493.061V495.821C197.556 496.514 197.389 497.134 197.056 497.681C196.736 498.228 196.289 498.661 195.716 498.981C195.142 499.288 194.489 499.441 193.756 499.441ZM194.116 497.361C194.662 497.361 195.136 497.241 195.536 497.001C195.949 496.748 196.269 496.401 196.496 495.961C196.722 495.521 196.836 495.014 196.836 494.441C196.836 493.868 196.722 493.361 196.496 492.921C196.269 492.481 195.949 492.141 195.536 491.901C195.136 491.648 194.662 491.521 194.116 491.521C193.582 491.521 193.109 491.648 192.696 491.901C192.296 492.141 191.976 492.481 191.736 492.921C191.509 493.361 191.396 493.868 191.396 494.441C191.396 495.014 191.509 495.521 191.736 495.961C191.976 496.401 192.296 496.748 192.696 497.001C193.109 497.241 193.582 497.361 194.116 497.361ZM198.896 499.241H196.696V496.661L197.076 494.321L196.696 492.001V484.841H198.896V499.241ZM201.637 499.241V485.241H203.237L209.057 494.821H208.017L213.837 485.241H215.437V499.241H213.137V489.281L213.657 489.421L209.337 496.521H207.737L203.417 489.421L203.937 489.281V499.241H201.637ZM222.193 499.441C221.326 499.441 220.54 499.221 219.833 498.781C219.14 498.341 218.586 497.748 218.173 497.001C217.773 496.241 217.573 495.394 217.573 494.461C217.573 493.514 217.773 492.668 218.173 491.921C218.586 491.161 219.14 490.561 219.833 490.121C220.54 489.668 221.326 489.441 222.193 489.441C222.926 489.441 223.573 489.601 224.133 489.921C224.706 490.228 225.16 490.654 225.493 491.201C225.826 491.748 225.993 492.368 225.993 493.061V495.821C225.993 496.514 225.826 497.134 225.493 497.681C225.173 498.228 224.726 498.661 224.153 498.981C223.58 499.288 222.926 499.441 222.193 499.441ZM222.553 497.361C223.366 497.361 224.02 497.088 224.513 496.541C225.02 495.994 225.273 495.294 225.273 494.441C225.273 493.868 225.16 493.361 224.933 492.921C224.706 492.481 224.386 492.141 223.973 491.901C223.573 491.648 223.1 491.521 222.553 491.521C222.02 491.521 221.546 491.648 221.133 491.901C220.733 492.141 220.413 492.481 220.173 492.921C219.946 493.361 219.833 493.868 219.833 494.441C219.833 495.014 219.946 495.521 220.173 495.961C220.413 496.401 220.733 496.748 221.133 497.001C221.546 497.241 222.02 497.361 222.553 497.361ZM225.133 499.241V496.661L225.513 494.321L225.133 492.001V489.641H227.333V499.241H225.133ZM236.355 499.241V493.701C236.355 493.061 236.148 492.534 235.735 492.121C235.335 491.708 234.815 491.501 234.175 491.501C233.748 491.501 233.368 491.594 233.035 491.781C232.701 491.968 232.441 492.228 232.255 492.561C232.068 492.894 231.975 493.274 231.975 493.701L231.115 493.221C231.115 492.488 231.275 491.841 231.595 491.281C231.915 490.708 232.355 490.261 232.915 489.941C233.488 489.608 234.128 489.441 234.835 489.441C235.555 489.441 236.195 489.628 236.755 490.001C237.315 490.361 237.755 490.834 238.075 491.421C238.395 491.994 238.555 492.594 238.555 493.221V499.241H236.355ZM229.775 499.241V489.641H231.975V499.241H229.775Z" fill="white"/>
<path d="M215.606 375.815C215.739 375.441 215.914 375.026 215.709 374.461C215.852 374.056 215.766 373.557 215.694 373.079C215.501 371.771 215.134 370.506 214.814 369.946C214.813 369.943 214.835 369.949 214.834 369.947C214.527 369.414 211.633 370.294 211.633 370.294C211.633 370.294 211.634 370.537 211.625 370.911C211.595 372.079 211.508 374.543 211.327 375.057C211.093 375.718 206.152 381.534 205.19 383.163C205.165 383.205 205.143 383.244 205.125 383.28C204.485 384.473 204.132 385.436 203.983 386.202C203.978 386.214 203.978 386.226 203.976 386.24C203.747 387.447 204.026 388.156 204.48 388.502C204.947 388.861 205.597 388.834 206.063 388.568C206.119 388.537 206.129 388.486 206.187 388.446C208.95 386.633 215.034 377.44 215.609 375.814L215.606 375.815Z" fill="white"/>
<path d="M215.787 373.112C215.595 371.804 215.181 370.522 214.861 369.962L211.631 370.913C211.6 372.081 211.512 374.544 211.33 375.058C211.097 375.719 206.153 381.535 205.192 383.164C205.679 382.59 205.433 384.432 205.672 384.407C206.047 384.37 205.56 382.71 205.769 382.604C205.951 382.513 206.234 383.732 206.367 383.549C206.552 383.295 206.049 382.424 206.21 382.066C206.332 381.794 211.688 375.9 211.863 375.821C212.1 375.712 212.695 376.373 212.904 376.085C213.03 375.91 211.874 375.683 211.997 375.443C212.12 375.204 213.161 375.155 213.172 374.937C213.183 374.718 212.001 375.15 211.932 374.998C211.862 374.846 212.205 373.473 212.3 373.291C212.398 373.107 215.025 372.456 215.786 373.111L215.787 373.112Z" fill="white"/>
<path d="M215.788 373.112C215.456 372.558 214.11 372.551 214.391 372.833C215.161 372.911 215.561 375.308 215.232 375.954C212.607 381.113 206.437 389.187 204.478 388.503C204.945 388.862 205.53 388.861 206.008 388.622C208.796 387.225 215.182 377.537 215.768 375.878C216.187 374.692 215.781 373.605 215.785 373.113L215.788 373.112Z" fill="white"/>
<path d="M215.572 370.958C215.341 370.389 214.913 369.615 214.844 369.569C214.743 369.5 211.667 370.061 211.534 370.184C211.376 370.33 210.909 373.046 211.084 373.142C211.126 373.165 211.215 373.164 211.341 373.146C212.333 373.003 215.602 371.743 215.71 371.534C215.749 371.459 215.683 371.233 215.572 370.96L215.572 370.958Z" fill="white"/>
<path d="M215.572 370.958C215.341 370.389 214.913 369.615 214.844 369.568C214.743 369.5 211.667 370.061 211.534 370.184C211.376 370.33 210.909 373.046 211.083 373.142C211.126 373.165 211.312 373.182 211.542 373.108C211.136 372.505 211.689 371.164 211.794 370.989C211.912 370.792 213.32 371.005 213.741 370.866C214.162 370.728 214.778 370.295 214.883 370.316C214.974 370.334 215.407 370.687 215.574 370.958L215.572 370.958Z" fill="white"/>
<path d="M213.593 365.324C213.724 365.201 213.845 364.938 213.956 364.606C214.142 364.051 213.845 362.438 213.895 362.067C213.935 361.784 214.429 361.168 214.472 360.818C214.527 360.381 214.104 359.584 213.714 359.572C213.564 359.567 212.769 360.449 212.688 360.557C212.622 360.647 212.327 361.18 212.247 361.491C212.242 361.507 212.22 361.506 212.218 361.489C212.195 361.303 212.157 361.071 212.186 360.989C212.27 360.747 213.249 359.714 212.775 359.523C212.649 359.472 211.491 360.634 211.472 360.91C211.388 362.174 211.622 364.737 211.686 364.956C211.808 365.371 213.375 365.53 213.592 365.322L213.593 365.324Z" fill="white"/>
<path d="M212.804 361.894C212.804 361.894 212.872 361.76 212.963 361.558C213.009 361.457 213.061 361.34 213.118 361.212C213.146 361.15 213.175 361.085 213.206 361.021C213.236 360.957 213.265 360.894 213.302 360.847C213.381 360.748 213.49 360.634 213.582 360.535C213.676 360.433 213.764 360.339 213.839 360.258C213.988 360.095 214.087 359.986 214.087 359.986C214.107 359.963 214.107 359.929 214.085 359.907C214.065 359.889 214.037 359.888 214.016 359.901C214.016 359.901 213.983 359.921 213.93 359.961C213.879 360.002 213.803 360.058 213.718 360.131C213.634 360.204 213.534 360.288 213.432 360.386C213.381 360.434 213.329 360.484 213.277 360.539C213.226 360.593 213.175 360.646 213.12 360.716C213.066 360.788 213.036 360.862 213.004 360.929C212.974 360.998 212.947 361.067 212.922 361.133C212.871 361.265 212.833 361.389 212.798 361.495C212.731 361.708 212.697 361.854 212.697 361.854C212.691 361.884 212.708 361.915 212.738 361.923C212.763 361.93 212.79 361.917 212.801 361.893L212.804 361.894Z" fill="white"/>
<path d="M213.328 362.277C213.328 362.277 213.343 362.25 213.368 362.198C213.391 362.146 213.426 362.073 213.46 361.984C213.493 361.895 213.534 361.792 213.575 361.681C213.615 361.572 213.657 361.449 213.706 361.351C213.714 361.338 213.711 361.335 213.723 361.319L213.749 361.28L213.8 361.209C213.837 361.161 213.873 361.113 213.907 361.067C213.979 360.973 214.045 360.887 214.104 360.813C214.219 360.664 214.294 360.563 214.294 360.563C214.313 360.537 214.307 360.501 214.282 360.482C214.261 360.466 214.234 360.467 214.215 360.482C214.215 360.482 214.11 360.56 213.972 360.695C213.903 360.764 213.823 360.841 213.743 360.932C213.703 360.976 213.661 361.024 213.621 361.075L213.56 361.156L213.534 361.198C213.526 361.209 213.512 361.235 213.504 361.248C213.441 361.379 213.407 361.499 213.372 361.614C213.34 361.729 213.314 361.837 213.289 361.93C213.244 362.114 213.217 362.238 213.217 362.238C213.21 362.268 213.229 362.299 213.259 362.305C213.284 362.31 213.308 362.298 213.321 362.279L213.328 362.277Z" fill="white"/>
<path d="M214.599 369.658C214.246 367.922 213.705 366.288 213.593 365.325C213.494 364.473 211.633 364.476 211.687 364.958C211.827 366.21 211.93 368.349 211.853 370.249C211.839 370.615 214.714 370.224 214.599 369.658Z" fill="white"/>
<path d="M197.922 397.317C197.922 397.317 195.718 401.873 195.338 403.462C195.1 404.463 195.218 406.554 195.338 407.575C195.395 408.063 195.737 408.997 195.796 409.483C195.847 409.912 195.847 423.139 195.817 423.633C195.788 424.089 194.408 427.937 194.406 429.967C194.403 434.455 196.821 446.064 196.821 446.064L199.638 445.685C199.632 445.866 200.28 437.674 200.448 434.651C200.566 432.507 201.522 423.389 201.454 422.709C201.385 422.026 203.952 408.341 203.952 408.341L203.234 397.628L197.922 397.317Z" fill="white"/>
<path d="M203.1 397.857L201.301 403.971L201.768 408.057L201.301 410.061C201.301 410.061 203.765 420.477 203.592 424.012C203.512 425.63 202.812 428.434 202.909 430.46C203.031 433.026 207.005 445.959 207.005 445.959L209.64 445.826C209.64 445.826 210.126 435.949 210.088 433.763C210.052 431.617 209.109 423.136 209.086 422.449C209.063 421.706 209.177 409.172 208.979 405.528C208.832 402.845 207.824 397.296 207.824 397.296L203.1 397.857Z" fill="white"/>
<path d="M202.398 416.817C202.917 413.903 204.009 406.679 204.262 405.526" stroke="white" stroke-width="1.38" stroke-linecap="round" stroke-linejoin="round"/>
<path d="M196.316 444.522C196.249 444.677 196.701 446.057 196.8 446.129C196.945 446.236 199.586 446.091 199.736 445.883C199.809 445.782 200.076 444.301 199.895 444.134C199.597 443.859 196.445 444.223 196.316 444.52V444.522Z" fill="white"/>
<path d="M199.678 444.358C199.255 444.358 196.819 444.608 196.531 444.728" stroke="white" stroke-width="1.38" stroke-linecap="round" stroke-linejoin="round"/>
<path d="M197.337 447.64C197.354 447.991 197.35 448.282 197.303 448.384C197.56 449.897 198.822 449.46 199.327 447.711C199.308 447.648 199.292 447.581 199.277 447.516C199.228 447.28 199.205 447.034 199.195 446.803C199.176 446.323 199.216 445.91 199.176 445.803C199.155 445.746 197.158 445.767 197.179 445.957C197.187 446.037 197.234 446.42 197.276 446.863C197.301 447.12 197.324 447.396 197.335 447.644L197.337 447.64Z" fill="white"/>
<path d="M197.278 446.859C197.303 447.116 197.326 447.393 197.337 447.64C197.907 447.589 198.715 447.524 199.277 447.515C199.228 447.278 199.205 447.032 199.195 446.802C198.627 446.777 197.833 446.806 197.278 446.859Z" fill="white"/>
<path d="M198.744 448.529L197.181 448.651L197.401 449.489L198.824 449.306L198.744 448.529Z" fill="white"/>
<path d="M201.263 449.363C201.227 449.342 201.097 449.325 200.916 449.314C200.916 449.314 200.914 449.312 200.912 449.31C199.813 449.167 199.542 447.907 199.411 447.713C199.241 447.463 199.174 447.474 198.95 447.522C198.566 447.604 198.359 449.148 198.018 449.123C197.682 449.1 197.482 448.544 197.436 448.374C197.398 448.229 197.293 448.214 197.272 448.298C197.151 448.792 196.937 449.224 196.865 449.596C196.863 449.596 196.861 449.596 196.861 449.596C196.752 450.015 196.878 450.242 197.114 450.242H201.393C201.612 450.242 201.595 449.558 201.263 449.365V449.363Z" fill="white"/>
<path d="M199.514 445.734C199.091 445.734 197.248 445.835 196.96 445.957" stroke="white" stroke-width="1.38" stroke-linecap="round" stroke-linejoin="round"/>
<path d="M206.387 444.618C206.324 444.774 206.818 446.14 206.917 446.209C207.066 446.31 209.701 446.091 209.844 445.877C209.915 445.774 210.136 444.286 209.951 444.124C209.644 443.857 206.505 444.314 206.385 444.616L206.387 444.618Z" fill="white"/>
<path d="M209.743 444.354C209.32 444.366 206.894 444.686 206.608 444.816" stroke="white" stroke-width="1.38" stroke-linecap="round" stroke-linejoin="round"/>
<path d="M207.539 447.478C207.567 447.894 207.571 448.258 207.518 448.372C207.773 449.886 209.04 449.461 209.543 447.711C209.509 447.593 209.482 447.467 209.463 447.341C209.427 447.097 209.416 446.846 209.416 446.617C209.416 446.192 209.446 445.839 209.412 445.744C209.391 445.687 207.333 445.736 207.367 445.912C207.38 445.982 207.426 446.308 207.468 446.703C207.495 446.951 207.521 447.225 207.539 447.48V447.478Z" fill="white"/>
<path d="M207.468 446.701C207.495 446.949 207.521 447.223 207.539 447.478C208.044 447.431 208.848 447.362 209.463 447.339C209.427 447.095 209.416 446.844 209.416 446.615C208.789 446.6 207.969 446.64 207.468 446.701Z" fill="white"/>
<path d="M209.138 448.347L207.577 448.471L207.844 449.489L209.22 449.125L209.138 448.347Z" fill="white"/>
<path d="M213.281 449.363C213.244 449.342 213.115 449.325 212.934 449.314C211.038 449.146 210.188 448.016 210.054 447.819C209.885 447.57 209.627 447.173 209.311 447.284C208.941 447.412 208.819 448.59 208.737 448.873C208.675 449.093 208.126 449.241 207.836 448.994C207.684 448.864 207.697 448.542 207.651 448.372C207.613 448.227 207.508 448.212 207.487 448.296C207.365 448.79 207.152 449.222 207.079 449.594C207.078 449.594 207.076 449.594 207.076 449.594C206.967 450.013 207.093 450.24 207.329 450.24H213.41C213.629 450.24 213.612 449.556 213.281 449.363Z" fill="white"/>
<path d="M209.62 445.734C209.197 445.746 207.358 445.902 207.074 446.032" stroke="white" stroke-width="1.38" stroke-linecap="round" stroke-linejoin="round"/>
<path d="M203.33 412.291C203.691 413.913 204.952 422.266 204.832 423.349C204.712 424.432 203.999 427.916 204.085 429.419C204.171 430.921 207.073 444.048 207.073 444.048" stroke="white" stroke-width="1.38" stroke-linecap="round" stroke-linejoin="round"/>
<path d="M197.865 400.679C197.44 401.533 196.432 404.699 196.485 405.669C196.538 406.639 196.649 411.507 196.744 412.289C196.839 413.07 196.672 422.446 196.546 423.766C196.418 425.089 195.54 428.154 195.439 429.055C195.338 429.957 196.74 441.606 196.96 443.779" stroke="white" stroke-width="1.38" stroke-linecap="round" stroke-linejoin="round"/>
<path d="M195.75 389.9C196.758 392.68 197.711 395.516 197.602 397.297C197.57 397.828 196.606 399.254 196.981 399.338C198.858 399.757 206.91 400.952 208.353 400.436C208.558 400.361 208.082 398.091 208.059 397.297C208.03 396.351 208.415 393.035 208.614 389.354C208.726 387.275 208.778 385.077 208.663 383.124C208.602 382.064 208.286 380.694 207.457 380.048C207.304 379.929 207.07 379.792 206.784 379.653C206.489 379.508 206.138 379.361 205.772 379.226C205.303 379.053 204.808 378.9 204.368 378.803C204.15 378.755 201.035 378.353 199.398 378.656C198.994 378.731 198.536 378.868 198.06 379.047C197.143 379.39 196.154 379.893 195.342 380.415C194.469 380.976 193.8 381.561 193.648 381.999C193.221 383.217 194.528 386.518 195.754 389.9H195.75Z" fill="#FF9900"/>
<path d="M203.529 383.983C203.289 383.978 202.548 385.485 202.489 385.756C202.429 386.027 203.27 387.618 203.451 387.71C203.632 387.801 204.383 385.937 204.383 385.802C204.383 385.666 203.733 383.987 203.531 383.983H203.529Z" fill="#FF9900"/>
<path d="M203.529 388.07C203.289 388.064 202.548 389.572 202.489 389.842C202.429 390.113 203.27 391.705 203.451 391.796C203.632 391.887 204.383 390.023 204.383 389.888C204.383 389.753 203.733 388.074 203.531 388.07H203.529Z" fill="#FF9900"/>
<path d="M203.529 392.158C203.289 392.153 202.548 393.66 202.489 393.931C202.429 394.201 203.27 395.793 203.451 395.884C203.632 395.974 204.383 394.112 204.383 393.977C204.383 393.841 203.733 392.162 203.531 392.158H203.529Z" fill="#FF9900"/>
<path d="M205.633 392.278C205.392 392.272 204.651 393.78 204.592 394.051C204.531 394.321 205.373 395.913 205.554 396.004C205.735 396.094 206.486 394.232 206.486 394.096C206.486 393.961 205.836 392.282 205.634 392.278H205.633Z" fill="#FF9900"/>
<path d="M205.702 388.07C205.442 388.064 204.642 389.694 204.577 389.985C204.512 390.277 205.421 391.998 205.616 392.095C205.81 392.192 206.622 390.18 206.622 390.033C206.622 389.886 205.921 388.074 205.702 388.068V388.07Z" fill="#FF9900"/>
<path d="M207.744 388.07C207.485 388.064 206.851 389.717 206.786 390.008C206.721 390.3 207.464 391.998 207.659 392.097C207.853 392.194 208.499 390.231 208.499 390.086C208.499 389.941 207.964 388.076 207.746 388.072L207.744 388.07Z" fill="#FF9900"/>
<path d="M207.639 392.278C207.38 392.272 206.61 393.744 206.546 394.035C206.481 394.327 207.224 396.025 207.418 396.124C207.613 396.222 208.259 394.258 208.259 394.114C208.259 393.969 207.859 392.284 207.641 392.278H207.639Z" fill="#FF9900"/>
<path d="M207.76 396.245C207.501 396.239 206.731 397.71 206.666 398.002C206.601 398.293 207.403 400.308 207.598 400.405C207.792 400.502 208.152 398.322 208.152 398.175C208.152 398.029 207.979 396.248 207.762 396.243L207.76 396.245Z" fill="#FF9900"/>
<path d="M205.702 383.863C205.442 383.858 204.642 385.487 204.577 385.779C204.512 386.071 205.421 387.792 205.616 387.889C205.81 387.986 206.622 385.973 206.622 385.827C206.622 385.68 205.921 383.867 205.702 383.862V383.863Z" fill="#FF9900"/>
<path d="M207.803 383.924C207.544 383.919 206.744 385.548 206.679 385.84C206.614 386.131 207.523 387.853 207.718 387.95C207.912 388.047 208.558 386.053 208.558 385.908C208.558 385.764 208.023 383.928 207.805 383.924H207.803Z" fill="#FF9900"/>
<path d="M207.405 380.208C207.146 380.202 206.744 381.281 206.677 381.572C206.612 381.864 207.521 383.585 207.716 383.682C207.91 383.779 208.36 381.845 208.36 381.7C208.36 381.555 207.622 380.211 207.403 380.208H207.405Z" fill="#FF9900"/>
<path d="M205.433 379.402C205.174 379.396 204.64 381.161 204.575 381.452C204.51 381.744 205.42 383.465 205.614 383.562C205.808 383.66 206.62 381.647 206.62 381.5C206.62 381.353 205.65 379.405 205.433 379.402Z" fill="#FF9900"/>
<path d="M203.356 396.063C203.1 396.058 202.311 397.663 202.246 397.95C202.182 398.238 203.077 399.933 203.27 400.03C203.462 400.125 204.261 398.143 204.261 397.998C204.261 397.853 203.569 396.067 203.354 396.063H203.356Z" fill="#FF9900"/>
<path d="M205.638 396.125C205.383 396.119 204.594 397.724 204.529 398.011C204.464 398.299 205.343 400.131 205.535 400.226C205.728 400.321 206.543 398.204 206.543 398.059C206.543 397.914 205.852 396.128 205.636 396.125H205.638Z" fill="#FF9900"/>
<path d="M201.366 392.158C201.126 392.153 200.385 393.66 200.325 393.931C200.266 394.201 201.107 395.793 201.288 395.884C201.469 395.974 202.22 394.112 202.22 393.977C202.22 393.841 201.57 392.162 201.368 392.158H201.366Z" fill="#FF9900"/>
<path d="M201.311 396.023C201.071 396.002 200.224 397.506 200.146 397.78C200.068 398.055 200.792 399.757 200.966 399.862C201.139 399.967 202.022 398.097 202.031 397.958C202.041 397.819 201.513 396.042 201.311 396.023Z" fill="#FF9900"/>
<path d="M201.366 388.07C201.126 388.064 200.385 389.572 200.325 389.842C200.266 390.113 201.107 391.705 201.288 391.796C201.469 391.886 202.22 390.023 202.22 389.888C202.22 389.753 201.57 388.074 201.368 388.07H201.366Z" fill="#FF9900"/>
<path d="M201.547 384.044C201.307 384.038 200.566 385.546 200.507 385.817C200.446 386.087 201.288 387.679 201.469 387.77C201.65 387.86 202.401 385.998 202.401 385.862C202.401 385.727 201.751 384.048 201.549 384.044H201.547Z" fill="#FF9900"/>
<path d="M200.565 381.971C200.505 382.241 201.347 383.833 201.528 383.924C201.709 384.014 202.06 383.192 202.06 383.057C202.06 382.922 200.626 381.7 200.565 381.971Z" fill="#FF9900"/>
<path d="M199.443 384.044C199.203 384.038 198.462 385.546 198.403 385.817C198.343 386.087 199.184 387.679 199.365 387.77C199.546 387.86 200.297 385.998 200.297 385.862C200.297 385.727 199.647 384.048 199.445 384.044H199.443Z" fill="#FF9900"/>
<path d="M197.198 379.598C197.137 379.868 198.763 380.229 198.942 380.318C199.123 380.408 198.458 379.331 198.458 379.196C198.458 379.06 197.257 379.325 197.198 379.596V379.598Z" fill="#FF9900"/>
<path d="M197.461 384.165C197.221 384.159 196.806 385.758 196.745 386.029C196.684 386.299 197.2 387.799 197.381 387.891C197.562 387.98 198.313 386.118 198.313 385.983C198.313 385.848 197.663 384.168 197.461 384.165Z" fill="#FF9900"/>
<path d="M199.203 388.07C198.963 388.064 198.221 389.572 198.162 389.842C198.101 390.113 198.944 391.705 199.125 391.796C199.306 391.886 200.057 390.023 200.057 389.888C200.057 389.753 199.407 388.074 199.205 388.07H199.203Z" fill="#FF9900"/>
<path d="M197.303 388.076C197.063 388.07 196.119 389.574 196.058 389.844C195.997 390.115 196.84 391.707 197.021 391.798C197.202 391.89 197.953 390.025 197.953 389.89C197.953 389.755 197.505 388.081 197.303 388.076Z" fill="#FF9900"/>
<path d="M199.203 392.097C198.963 392.091 198.221 393.599 198.162 393.87C198.101 394.14 198.944 395.732 199.125 395.823C199.306 395.913 200.057 394.051 200.057 393.915C200.057 393.78 199.407 392.101 199.205 392.097H199.203Z" fill="#FF9900"/>
<path d="M197.28 392.097C197.04 392.091 196.927 393.386 197.004 393.652C197.171 394.245 197.375 395.393 197.556 395.482C197.737 395.572 198.132 394.049 198.132 393.914C198.132 393.778 197.482 392.099 197.28 392.095V392.097Z" fill="#FF9900"/>
<path d="M199.047 396.012C198.809 395.987 197.953 397.337 197.873 397.584C197.793 397.832 198.507 399.391 198.681 399.49C198.854 399.59 199.746 397.908 199.756 397.783C199.765 397.657 199.249 396.033 199.047 396.012Z" fill="#FF9900"/>
<path d="M199.018 380.295C198.778 380.29 198.523 381.58 198.462 381.851C198.401 382.121 199.243 383.713 199.424 383.804C199.605 383.894 200.356 382.032 200.356 381.896C200.356 381.761 199.222 380.299 199.02 380.295H199.018Z" fill="#FF9900"/>
<path d="M196.745 380.295C196.504 380.29 196.594 381.845 196.745 382.392C196.819 382.659 197.261 383.894 197.44 383.985C197.619 384.077 198.372 382.213 198.372 382.078C198.372 381.942 196.947 380.301 196.745 380.297V380.295Z" fill="#FF9900"/>
<path d="M203.546 384.765C204.558 384.614 205.974 381.159 205.768 379.224C205.3 379.051 204.804 378.898 204.364 378.801C204.147 378.753 201.031 378.351 199.394 378.654C198.99 378.729 198.532 378.866 198.056 379.045C197.557 379.739 202.534 384.914 203.546 384.763V384.765Z" fill="#FF9900"/>
<path d="M195.749 389.899C198.543 385.849 197.629 381.109 196.178 380.518C195.938 380.419 195.607 380.324 195.338 380.415C194.465 380.976 193.796 381.561 193.644 381.999C193.217 383.217 194.524 386.518 195.749 389.899Z" fill="#FF9900"/>
<path d="M206.782 379.653C208.038 381.485 208.252 386.867 208.612 389.352C208.724 387.273 208.776 385.075 208.661 383.122C208.6 382.062 208.284 380.692 207.455 380.046C207.302 379.927 207.068 379.79 206.782 379.651V379.653Z" fill="#FF9900"/>
<path d="M196.508 400.228C199.106 401.414 206.605 401.652 208.446 401.051C208.446 401.051 208.52 400.089 208.389 399.948C208.257 399.807 206.828 400.516 202.458 400.032C198.088 399.548 197.261 398.768 196.97 398.877C196.678 398.985 196.508 400.226 196.508 400.226V400.228Z" fill="#FF9900"/>
<path d="M198.745 379.327C198.812 379.42 199.768 380.436 200.807 381.454C201.912 382.537 203.111 383.619 203.435 383.594C204.012 383.549 204.725 380.209 204.729 379.363C204.729 379.285 204.723 379.228 204.712 379.197C204.573 378.854 204.14 377.722 203.866 377.518C203.812 377.48 203.587 377.419 203.271 377.352C202.604 377.213 201.527 377.051 200.788 377.023C200.382 377.005 200.079 377.028 199.999 377.116C199.856 377.27 198.606 379.138 198.745 379.329V379.327Z" fill="white"/>
<path d="M198.745 379.327C198.812 379.42 201.31 381.191 201.95 381.13C202.189 381.107 202.699 378.906 202.758 378.877C202.819 378.847 203.584 381.221 203.87 381.191C204.155 381.16 204.571 380.209 204.729 379.363C204.729 379.285 204.723 379.228 204.712 379.197C204.573 378.854 204.14 377.722 203.866 377.518C203.812 377.48 203.587 377.419 203.271 377.352L203.307 377.404C203.405 377.467 203.616 377.562 203.78 377.667C203.881 377.732 204.493 378.862 204.573 379.087C204.668 379.359 204.096 380.179 203.915 380.179C203.723 380.179 202.97 378.639 202.776 378.639C202.581 378.639 201.954 380.53 201.817 380.591C201.68 380.652 198.915 379.422 198.854 379.258C198.793 379.092 199.868 377.65 200.087 377.39C200.306 377.133 200.822 377.105 200.822 377.105L200.79 377.023C200.384 377.005 200.081 377.028 200.001 377.116C199.858 377.27 198.608 379.138 198.747 379.329L198.745 379.327Z" fill="white"/>
<path d="M203.542 377.635C203.532 377.596 203.532 377.556 203.528 377.516C203.429 376.588 203.439 375.422 203.406 374.72C203.406 374.715 203.406 374.711 203.406 374.711L203.399 374.707L200.087 372.713C200.087 372.713 200.544 375.49 200.289 377.251C200.266 377.404 201.792 378.311 202.764 378.376C203.252 378.408 203.584 377.802 203.544 377.636L203.542 377.635Z" fill="white"/>
<path d="M203.528 377.516C203.429 376.588 203.439 375.422 203.406 374.72C203.406 374.715 203.406 374.711 203.406 374.711L203.399 374.707L200.399 373.228C200.132 375.355 201.84 377.337 203.53 377.518L203.528 377.516Z" fill="white"/>
<path d="M200.027 371.638C200.086 372.508 200.292 373.514 200.492 374.234C200.685 374.924 202.32 376.52 203.64 376.847C203.896 376.91 204.831 376.666 205.041 376.502C205.352 376.258 205.891 373.178 205.771 372.323C205.702 371.837 205.643 370.899 205.607 370.453C205.569 369.976 205.314 369.456 205.119 369.321C204.835 369.121 204.42 368.924 204.002 368.739C203.501 368.518 202.958 368.356 202.501 368.377C201.605 368.415 200.545 369.351 200.088 369.99C199.945 370.186 200.01 371.391 200.027 371.64V371.638Z" fill="white"/>
<path d="M199.903 370.85C199.899 370.863 199.972 371.032 200.061 371.236C200.208 371.568 200.744 371.947 200.818 371.734C200.991 371.238 202.026 369.86 202.325 369.851C202.495 369.801 203.587 370.651 204.507 370.55C205.114 370.484 205.27 369.917 205.125 369.38C205.125 369.38 205.131 369.283 205.075 369.243C204.791 369.062 204.435 368.782 204.018 368.614L202.785 368.566L201.064 368.877L200.574 368.965C200.574 368.965 200.505 369.159 200.41 369.424C200.294 369.75 200.14 370.181 200.033 370.484C199.959 370.691 199.907 370.84 199.903 370.85Z" fill="white"/>
<path d="M199.242 371.844C198.77 372.29 199.905 374.24 200.429 373.276C200.95 372.319 199.816 371.303 199.242 371.844Z" fill="white"/>
<path d="M200.149 372.685C200.079 372.286 199.488 372.037 199.362 372.067" stroke="white" stroke-width="1.04" stroke-linecap="round" stroke-linejoin="round"/>
<path d="M199.654 372.685C199.711 372.517 199.888 372.441 200.006 372.449" stroke="white" stroke-width="1.04" stroke-linecap="round" stroke-linejoin="round"/>
<path d="M199.158 369.641C199.385 368.837 199.734 368.537 200.239 368.213C201.365 367.489 204.197 367.201 204.714 367.638C205.451 368.261 205.992 371.762 205.777 372.37C205.647 371.739 205.346 370.051 205.125 369.38C204.982 369.755 204.681 369.986 204.245 370.051C203.488 370.163 202.37 369.454 202.116 369.504C201.964 369.532 201.274 370.689 200.843 371.515C200.691 371.808 201.196 372.893 201.097 373.077C201.015 373.228 200.635 373.121 200.561 373.001C200.468 372.853 200.125 371.896 199.864 371.749C199.652 371.629 199.36 371.76 199.24 371.848C199.078 371.604 198.836 370.786 199.158 369.643V369.641Z" fill="white"/>
<path d="M202.518 372.74C201.426 372.185 199.785 371.669 199.545 371.669" stroke="white" stroke-width="0.52" stroke-linecap="round" stroke-linejoin="round"/>
<path d="M204.802 372.538C204.916 372.942 205.276 373.194 205.606 373.1C205.936 373.007 206.113 372.605 205.998 372.201C205.884 371.797 205.524 371.545 205.194 371.638C204.865 371.732 204.687 372.134 204.802 372.538Z" stroke="white" stroke-width="0.52" stroke-linecap="round" stroke-linejoin="round"/>
<path d="M205.26 371.831C205.186 371.854 205.106 371.902 205.043 371.982" stroke="white" stroke-width="0.59" stroke-miterlimit="10" stroke-linecap="round"/>
<path d="M205.451 371.831C205.441 371.827 205.429 371.825 205.418 371.819" stroke="white" stroke-width="0.59" stroke-miterlimit="10" stroke-linecap="round"/>
<path d="M204.782 372.104C204.538 371.604 203.997 371.984 203.944 372.323" stroke="white" stroke-width="0.52" stroke-linecap="round" stroke-linejoin="round"/>
<path d="M202.566 372.961C202.686 373.386 203.115 373.638 203.523 373.523C203.93 373.409 204.165 372.971 204.045 372.546C203.925 372.121 203.496 371.869 203.088 371.983C202.68 372.098 202.446 372.536 202.566 372.961Z" stroke="white" stroke-width="0.52" stroke-linecap="round" stroke-linejoin="round"/>
<path d="M202.788 372.452C202.767 372.494 202.748 372.54 202.737 372.59" stroke="white" stroke-width="0.59" stroke-miterlimit="10" stroke-linecap="round"/>
<path d="M203.187 372.151C203.082 372.178 202.97 372.231 202.882 372.321" stroke="white" stroke-width="0.59" stroke-miterlimit="10" stroke-linecap="round"/>
<path d="M203.458 372.151C203.444 372.145 203.429 372.144 203.413 372.14" stroke="white" stroke-width="0.59" stroke-miterlimit="10" stroke-linecap="round"/>
<path d="M189.174 396.738C189.174 397.135 189.147 397.584 189.528 398.05C189.528 398.478 189.776 398.921 190.003 399.347C190.62 400.516 191.388 401.587 191.876 402.008C191.878 402.01 191.855 402.012 191.857 402.014C192.324 402.414 194.759 400.621 194.759 400.621C194.759 400.621 194.677 400.392 194.561 400.036C194.201 398.924 193.461 396.572 193.461 396.027C193.461 395.326 196.183 388.196 196.547 386.339C196.556 386.292 196.564 386.248 196.57 386.208C196.776 384.87 196.787 383.844 196.673 383.072C196.673 383.059 196.669 383.048 196.667 383.034C196.48 381.82 195.981 381.245 195.438 381.069C194.877 380.886 194.273 381.128 193.923 381.534C193.881 381.582 193.888 381.633 193.846 381.691C191.845 384.321 189.172 395.015 189.172 396.74L189.174 396.738Z" fill="white"/>
<path d="M189.903 399.347C190.521 400.516 191.339 401.587 191.826 402.008L194.555 400.035C194.195 398.924 193.458 396.572 193.458 396.027C193.458 395.326 196.181 388.195 196.545 386.339C196.276 387.042 195.895 385.224 195.678 385.327C195.337 385.487 196.349 386.89 196.187 387.06C196.046 387.206 195.373 386.15 195.308 386.368C195.219 386.669 195.983 387.323 195.95 387.713C195.926 388.011 192.84 395.352 192.701 395.486C192.514 395.667 191.733 395.242 191.632 395.583C191.571 395.791 192.737 395.619 192.701 395.886C192.665 396.153 191.699 396.545 191.762 396.755C191.824 396.965 192.794 396.164 192.911 396.284C193.027 396.404 193.16 397.813 193.132 398.017C193.101 398.223 190.841 399.711 189.905 399.347H189.903Z" fill="white"/>
<path d="M189.903 399.347C190.401 399.759 191.672 399.317 191.314 399.145C190.561 399.328 189.385 397.201 189.48 396.483C190.237 390.744 193.364 381.075 195.439 381.067C194.879 380.884 194.328 381.081 193.957 381.466C191.794 383.711 189 394.973 189 396.732C189 397.99 189.745 398.88 189.905 399.345L189.903 399.347Z" fill="white"/>
<path d="M190.824 401.307C191.232 401.766 191.893 402.353 191.973 402.374C192.091 402.405 194.805 400.851 194.889 400.691C194.99 400.501 194.525 397.785 194.328 397.752C194.281 397.745 194.197 397.775 194.084 397.834C193.196 398.299 190.534 400.577 190.502 400.809C190.49 400.893 190.627 401.084 190.824 401.305V401.307Z" fill="white"/>
<path d="M190.824 401.307C191.232 401.766 191.893 402.353 191.973 402.374C192.091 402.404 194.805 400.851 194.889 400.691C194.99 400.5 194.525 397.784 194.328 397.752C194.281 397.744 194.1 397.79 193.907 397.937C194.49 398.37 194.416 399.818 194.376 400.018C194.33 400.243 192.931 400.512 192.581 400.782C192.23 401.053 191.794 401.667 191.687 401.682C191.596 401.695 191.07 401.507 190.822 401.307H190.824Z" fill="white"/>
<path d="M194.567 405.959C194.485 406.119 194.458 406.407 194.464 406.758C194.473 407.343 195.291 408.765 195.367 409.131C195.424 409.411 195.163 410.156 195.239 410.501C195.333 410.932 195.998 411.542 196.37 411.424C196.512 411.378 196.968 410.282 197.008 410.152C197.04 410.045 197.141 409.445 197.113 409.125C197.113 409.108 197.134 409.102 197.141 409.117C197.225 409.285 197.338 409.491 197.338 409.579C197.34 409.834 196.76 411.134 197.271 411.157C197.406 411.162 198.111 409.681 198.037 409.415C197.696 408.195 196.621 405.856 196.488 405.671C196.234 405.321 194.704 405.692 194.569 405.961L194.567 405.959Z" fill="white"/>
<path d="M196.453 408.931C196.453 408.931 196.434 409.079 196.415 409.3C196.406 409.411 196.396 409.539 196.385 409.678C196.379 409.746 196.373 409.817 196.366 409.887C196.358 409.958 196.352 410.026 196.333 410.084C196.291 410.204 196.227 410.347 196.173 410.471C196.118 410.598 196.067 410.716 196.023 410.817C195.937 411.021 195.88 411.157 195.88 411.157C195.868 411.185 195.88 411.218 195.908 411.231C195.933 411.241 195.96 411.233 195.975 411.214C195.975 411.214 196 411.183 196.036 411.128C196.07 411.073 196.124 410.995 196.179 410.897C196.234 410.8 196.301 410.688 196.364 410.562C196.396 410.499 196.429 410.434 196.459 410.366C196.49 410.297 196.52 410.23 196.549 410.147C196.575 410.061 196.579 409.981 196.587 409.906C196.593 409.832 196.594 409.758 196.596 409.687C196.6 409.546 196.594 409.417 196.593 409.304C196.585 409.081 196.568 408.932 196.568 408.932C196.564 408.902 196.537 408.879 196.507 408.881C196.48 408.883 196.459 408.904 196.457 408.931H196.453Z" fill="white"/>
<path d="M195.832 408.744C195.832 408.744 195.826 408.774 195.82 408.831C195.817 408.889 195.807 408.969 195.805 409.064C195.803 409.159 195.799 409.27 195.798 409.388C195.796 409.504 195.798 409.634 195.784 409.743C195.78 409.758 195.784 409.76 195.779 409.779L195.767 409.824L195.742 409.908C195.723 409.966 195.706 410.023 195.689 410.078C195.653 410.19 195.618 410.293 195.588 410.383C195.529 410.562 195.493 410.682 195.493 410.682C195.483 410.713 195.5 410.745 195.531 410.755C195.556 410.762 195.58 410.753 195.594 410.732C195.594 410.732 195.666 410.623 195.752 410.45C195.794 410.362 195.843 410.263 195.889 410.15C195.912 410.095 195.935 410.036 195.956 409.975L195.986 409.878L195.998 409.83C196.001 409.817 196.005 409.788 196.009 409.773C196.024 409.628 196.017 409.504 196.011 409.384C196.003 409.264 195.992 409.154 195.984 409.058C195.965 408.87 195.95 408.744 195.95 408.744C195.946 408.713 195.918 408.69 195.887 408.694C195.862 408.698 195.843 408.717 195.838 408.74L195.832 408.744Z" fill="white"/>
<path d="M192.175 402.208C193.086 403.727 194.14 405.088 194.567 405.959C194.944 406.729 196.697 406.106 196.486 405.669C195.937 404.535 195.127 402.553 194.567 400.737C194.458 400.386 191.878 401.713 192.175 402.208Z" fill="white"/>
<path fill-rule="evenodd" clip-rule="evenodd" d="M202.985 366.417C202.757 366.175 202.398 365.964 201.902 366.007C201.63 366.03 201.366 366.13 201.149 366.317C201.037 366.412 200.954 366.517 200.891 366.619C199.827 367.073 199.203 367.783 198.926 368.595C198.633 369.455 198.788 370.263 198.904 370.677C199.06 371.247 199.598 371.744 200.272 371.744C200.349 371.744 200.445 371.738 200.546 371.728C200.769 371.948 201.07 372.186 201.408 372.391C201.765 372.606 202.22 372.82 202.715 372.905C203.22 372.991 203.842 372.953 204.395 372.554C205.03 372.096 205.55 372.163 205.64 372.175C205.659 372.177 205.659 372.177 205.64 372.17C205.741 372.206 205.993 372.289 206.286 372.251C206.449 372.229 206.728 372.156 206.957 371.906C207.202 371.638 207.252 371.322 207.238 371.098C207.222 370.822 207.091 370.564 206.878 370.388L205.89 369.57L205.884 369.528C205.838 369.217 205.742 368.788 205.531 368.342C205.32 367.892 204.984 367.409 204.458 367.027C204.051 366.732 203.561 366.52 202.985 366.417Z" fill="#FF9900"/>
<path d="M187.238 449.279C187.151 449.209 186.604 449.131 185.894 449.039C184.73 448.888 182.817 448.54 182.293 448.018C181.851 447.576 181.884 446.291 181.884 446.291C181.884 446.291 180.058 446.492 179.571 446.958C179.809 447.66 179.407 448.798 179.304 449.524C179.19 449.968 179.32 450.208 179.571 450.208H187.238C187.47 450.208 187.551 449.535 187.238 449.279Z" fill="white"/>
<path d="M182.198 447.972C183.423 447.137 184.371 447.054 184.424 447.487C184.494 448.071 183.412 448.243 182.198 447.972Z" stroke="white" stroke-width="0.5" stroke-linecap="round" stroke-linejoin="round"/>
<path d="M182.198 447.972C182.959 446.698 183.862 446.363 184.091 446.735C184.398 447.236 183.412 447.708 182.198 447.972Z" stroke="white" stroke-width="0.5" stroke-linecap="round" stroke-linejoin="round"/>
<path d="M183.989 448.543C183.173 448.709 182.198 447.97 182.198 447.97C182.198 447.97 182.765 449.061 183.72 449.214" stroke="white" stroke-width="0.5" stroke-linecap="round" stroke-linejoin="round"/>
<path d="M172.789 449.279C172.75 449.257 172.614 449.238 172.42 449.225C172.42 449.225 172.419 449.223 172.417 449.222C171.252 449.07 170.644 447.426 170.644 446.337C170.222 446.013 169.07 446.405 168.581 446.872C168.854 447.952 168.264 448.838 168.13 449.526C168.126 449.526 168.126 449.526 168.126 449.526C168.012 449.97 168.143 450.21 168.393 450.21H172.925C173.158 450.21 173.139 449.485 172.789 449.281V449.279Z" fill="white"/>
<path d="M186.665 410.095C186.995 409.887 185.045 385.586 184.299 383.396H180.161L184.505 410.436C184.505 410.436 186.424 410.246 186.663 410.095H186.665Z" fill="white"/>
<path d="M179.493 447.972C179.573 448.197 182.162 447.786 182.123 447.415C181.919 445.472 182.542 429.965 183.395 425.308C183.941 422.331 184.418 408.54 183.836 400.601C183.836 400.601 179.731 400.962 175.632 401.545C175.286 404.728 175.785 413.295 176.502 422.235C176.758 425.424 175.122 429.075 175.262 432.14C175.468 436.682 179.313 447.458 179.493 447.972Z" fill="white"/>
<path d="M168.572 447.697C168.605 447.937 170.841 447.817 170.891 447.574C171.563 444.228 173.244 435.13 176.274 425.398C178.318 418.832 181.189 401.596 181.208 401.228C181.208 401.228 171.434 401.209 170.061 401.928C170.037 402.875 169.47 412.012 168.867 421.872C168.749 423.811 167.175 427.934 166.926 429.86C166.18 435.668 168.513 447.29 168.57 447.697H168.572Z" fill="white"/>
<path d="M175.813 426.905C176.418 424.942 177.688 420.39 178.29 417.815C179.146 414.165 179.91 410.386 180.329 407.859" stroke="white" stroke-width="0.5" stroke-linecap="round" stroke-linejoin="round"/>
<path d="M170.419 448.27C170.814 447.444 171.586 447.014 171.811 447.359C172.084 447.776 171.59 448.214 170.419 448.27Z" stroke="white" stroke-width="0.5" stroke-linecap="round" stroke-linejoin="round"/>
<path d="M170.42 448.27C169.629 448.627 168.848 448.128 168.929 447.698C169.039 447.119 169.987 447.829 170.42 448.27Z" stroke="white" stroke-width="0.5" stroke-linecap="round" stroke-linejoin="round"/>
<path d="M171.609 448.823C170.905 448.734 170.42 448.271 170.42 448.271C170.42 448.271 169.897 448.802 169.351 448.883" stroke="white" stroke-width="0.5" stroke-linecap="round" stroke-linejoin="round"/>
<path d="M183.602 402.899C182.552 404.057 176.086 404.084 171.921 403.045C171.365 402.905 171.772 379.112 173.714 378.222C175.023 377.623 177.529 377.573 178.932 378.25C179.677 378.607 182.53 380.869 183.532 382.662C183.768 383.085 183.21 395.482 183.346 397.073C183.602 400.783 184.032 402.426 183.602 402.899Z" fill="white"/>
<path d="M165.642 394.146C166.049 394.026 167.301 393.694 167.645 393.866C167.99 394.039 166.46 394.253 166.396 394.426C166.331 394.599 167.566 394.339 167.745 394.448" stroke="white" stroke-width="0.69" stroke-linecap="round" stroke-linejoin="round"/>
<path d="M169.35 391.738C169.35 391.738 169.35 391.742 169.35 391.744C169.37 391.897 169.319 397.847 169.16 398.597C168.873 399.957 165.644 408.718 165.753 408.996C165.941 409.481 170.309 410.875 170.729 410.454C170.957 410.226 172 404.759 172.417 404.103C172.859 403.406 174.007 402.455 174.404 401.804C175.17 400.547 177.15 389.749 177.002 386.386C176.895 383.967 174.641 379.56 173.807 378.115C173.779 378.069 173.724 378.05 173.674 378.073C171.752 378.92 169.429 379.612 168.115 380.627C168.112 380.631 168.108 380.633 168.104 380.636C167.515 381.182 167.651 383.431 168.648 388.194L169.347 391.738H169.35Z" fill="white"/>
<path d="M174.245 378.091C173.992 378.93 176.998 380.511 178.366 380.203C178.95 380.073 178.852 378.622 178.567 377.844C178.08 376.521 178.016 374.805 178.016 374.805L178.007 374.801L174.387 372.711C174.387 372.711 174.776 376.331 174.245 378.089V378.091Z" fill="white"/>
<path d="M174.735 373.262C174.472 375.721 176.632 377.955 178.567 377.846C178.13 376.504 178.016 374.807 178.016 374.807L178.007 374.803L174.735 373.262Z" fill="white"/>
<path d="M180.802 374.77C180.613 378.112 176.057 377.446 174.859 374.35C174.287 372.873 174.142 370.055 174.339 369.767C174.595 369.397 174.979 369.006 175.343 368.713C176.412 367.854 177.194 367.771 178.547 368.341C179.002 368.532 179.37 368.938 179.682 369.148C180.168 369.476 180.021 370.191 180.25 371.624C180.29 371.876 180.356 372.158 180.428 372.457C180.548 372.943 180.685 373.47 180.756 373.975C180.795 374.25 180.815 374.517 180.802 374.77Z" fill="white"/>
<path d="M174.155 370.702C174.151 370.717 174.809 372.068 175.185 371.793C175.699 371.417 175.943 371.002 176.084 370.54C176.156 370.305 176.099 369.799 175.88 369.319C178.055 370.46 180.067 370.027 179.772 369.012L174.846 368.652C174.846 368.652 174.158 370.693 174.157 370.702H174.155Z" fill="white"/>
<path d="M177.922 373.963C177.913 373.524 177.494 373.174 176.988 373.181C176.481 373.188 176.077 373.552 176.085 373.99C176.094 374.429 176.512 374.779 177.019 374.772C177.526 374.764 177.929 374.401 177.922 373.963Z" fill="white"/>
<path d="M180.756 373.975C180.279 373.953 179.898 373.616 179.888 373.195C179.881 372.869 180.104 372.583 180.428 372.456C180.548 372.943 180.685 373.47 180.756 373.975Z" fill="white"/>
<path d="M173.46 371.791C172.957 372.283 174.225 374.368 174.772 373.315C175.316 372.272 174.072 371.194 173.46 371.791Z" fill="white"/>
<path d="M174.457 372.681C174.374 372.252 173.729 371.994 173.594 372.029" stroke="white" stroke-width="1.04" stroke-linecap="round" stroke-linejoin="round"/>
<path d="M173.921 372.69C173.98 372.508 174.168 372.423 174.297 372.427" stroke="white" stroke-width="1.04" stroke-linecap="round" stroke-linejoin="round"/>
<path d="M180.452 369.458C180.425 369.325 180.191 369.074 179.881 368.952C180.014 368.768 180.198 367.684 180.143 367.502C179.715 366.121 174.291 368.009 174.109 368.178C173.594 368.658 173.18 371.021 173.36 371.282C173.535 371.539 173.821 371.504 174.133 371.673C174.247 371.736 174.459 371.955 174.577 372.252C174.651 372.436 174.595 373.102 174.645 373.361C174.689 373.597 175.06 373.533 175.106 373.505C175.224 373.433 175.187 372.082 175.268 371.651C175.305 371.45 176.14 370.573 175.808 369.246C177.524 369.795 179.31 369.373 179.774 369.013C179.77 369.902 180.233 371.736 180.316 371.962C180.218 371.236 180.555 369.946 180.456 369.459L180.452 369.458Z" fill="white"/>
<path d="M179.896 371.5C179.778 371.539 179.652 371.618 179.555 371.747" stroke="white" stroke-width="1.04" stroke-miterlimit="10" stroke-linecap="round"/>
<path d="M180.201 371.494C180.186 371.487 180.168 371.485 180.15 371.478" stroke="white" stroke-width="1.04" stroke-miterlimit="10" stroke-linecap="round"/>
<path d="M176.506 372.366C176.473 372.433 176.446 372.506 176.427 372.587" stroke="white" stroke-width="1.04" stroke-miterlimit="10" stroke-linecap="round"/>
<path d="M177.133 371.878C176.967 371.922 176.79 372.012 176.654 372.158" stroke="white" stroke-width="1.04" stroke-miterlimit="10" stroke-linecap="round"/>
<path d="M177.563 371.87C177.54 371.863 177.517 371.859 177.491 371.852" stroke="white" stroke-width="1.04" stroke-miterlimit="10" stroke-linecap="round"/>
<path d="M168.111 380.631C165.614 382.248 161.987 391.912 162 394.457C162.022 398.428 169.746 404.914 169.879 404.798C170.358 404.385 172.859 402.715 172.909 402.461C172.951 402.239 168.688 395.2 168.762 394.487C169.346 393.117 169.479 390.511 171.762 387.639C174.488 384.213 171.98 378.126 168.11 380.631H168.111Z" fill="white"/>
<path d="M173.642 404.464C173.458 404.097 172.863 403.399 172.36 403.177C172.102 403.063 171.814 403.106 171.51 402.825C171.304 402.634 170.306 403.692 170.412 403.835C170.504 403.959 170.553 404.049 170.581 404.123C170.6 404.167 170.688 404.975 170.802 405.262C171.11 406.033 171.606 406.718 172.179 407.339C172.761 407.008 173.64 405.452 173.64 404.466L173.642 404.464Z" fill="white"/>
<path d="M169.963 404.286L170.612 405.198L172.627 403.174L171.934 402.463L171.082 403.073L169.963 404.286Z" fill="white"/>
<path d="M173.648 403.467C173.771 404.433 173.372 406.991 171.532 407.859" stroke="white" stroke-width="0.5" stroke-linecap="round" stroke-linejoin="round"/>
<path d="M183.557 380.798C186.054 382.415 189.681 392.079 189.668 394.624C189.646 398.595 181.922 405.081 181.79 404.965C181.31 404.552 178.809 402.882 178.76 402.628C178.717 402.407 182.98 395.367 182.906 394.654C182.322 393.284 182.19 390.678 179.906 387.806C177.18 384.38 179.689 378.293 183.559 380.798H183.557Z" fill="white"/>
<path d="M178.026 404.632C178.21 404.265 178.806 403.566 179.309 403.345C179.567 403.231 179.854 403.273 180.158 402.993C180.365 402.801 181.362 403.859 181.257 404.003C181.165 404.126 181.115 404.217 181.087 404.291C181.069 404.335 180.98 405.142 180.866 405.43C180.558 406.2 180.063 406.886 179.489 407.507C178.907 407.175 178.028 405.619 178.028 404.633L178.026 404.632Z" fill="white"/>
<path d="M181.705 404.453L181.056 405.365L179.042 403.341L179.735 402.63L180.586 403.24L181.705 404.453Z" fill="white"/>
<path d="M178.02 403.634C177.897 404.6 178.297 407.159 180.136 408.027" stroke="white" stroke-width="0.5" stroke-linecap="round" stroke-linejoin="round"/>
<path d="M182.698 390.113C182.857 394.221 182.87 404.271 182.527 410.53C182.527 410.53 183.998 410.54 184.506 410.435C186.051 410.117 184.637 393.431 184.637 393.431L184.399 383.752L183.907 381.033C183.907 381.033 179.903 377.901 178.933 378.248C180.396 379.088 182.505 385.083 182.698 390.113Z" fill="white"/>
<path d="M171.114 388.026C170.561 389.175 168.725 394.037 168.764 394.487C168.802 394.937 172.175 401.403 172.512 401.891" stroke="white" stroke-width="0.5" stroke-linecap="round" stroke-linejoin="round"/>
<path d="M167.82 403.135C168.205 403.524 169.268 404.461 169.707 404.802" stroke="white" stroke-width="0.5" stroke-linecap="round" stroke-linejoin="round"/>
<path d="M172.422 402.394C171.934 401.932 169.908 404.055 169.868 404.52" stroke="white" stroke-width="0.5" stroke-linecap="round" stroke-linejoin="round"/>
<path d="M166.57 394.487C166.911 394.151 167.919 394.041 168.102 394.253C168.249 394.426 166.97 394.435 166.762 394.996C166.718 395.114 167.359 394.76 167.999 394.883" stroke="white" stroke-width="0.5" stroke-linecap="round" stroke-linejoin="round"/>
<path d="M216.813 450.492H213.842C213.679 450.492 213.591 450.334 213.667 450.043C213.667 450.043 213.667 450.043 213.669 450.043C213.708 449.825 213.756 449.393 213.873 448.7C213.982 448.049 216.185 448.961 216.385 449.293C216.548 449.563 216.648 449.858 216.722 449.883C216.866 449.937 216.963 450.492 216.811 450.492H216.813Z" fill="white"/>
<path d="M226.108 449.524C225.798 449.574 225.759 450.097 225.774 450.492H225.929C225.989 450.492 225.845 449.741 226.108 449.524Z" fill="white"/>
<path d="M229.865 450.492H227.182C227.025 450.492 226.901 450.303 226.776 450.086C226.628 449.792 226.502 449.467 226.177 449.417C225.673 449.338 225.591 449.968 225.609 450.492H225.037C225.004 450.492 224.538 449.517 224.538 449.257C224.538 449.028 224.644 448.259 224.761 448.213C224.799 448.197 225.96 448.031 227.209 449.376C227.756 449.966 228.69 449.565 228.78 449.612C228.848 449.648 229.807 449.835 229.865 449.882C230.071 450.049 230.016 450.491 229.865 450.491V450.492Z" fill="white"/>
<path d="M227.142 432.208C227.089 432.84 227.039 433.49 227.01 434.094C226.879 436.826 226.379 443.607 226.497 446.425C226.521 446.985 226.573 447.277 226.623 447.42C226.669 447.552 226.883 447.76 227.101 448.036C227.557 448.612 228.216 449.383 228.732 449.642C228.751 449.653 228.752 449.679 228.732 449.689C228.3 449.913 227.636 450.196 227.371 450.007C227.01 449.751 225.639 448.264 224.91 448.294C224.872 448.294 224.843 448.261 224.851 448.225C224.913 447.991 225.092 447.313 225.013 446.855C224.547 444.191 222.789 437.946 222.486 433.468C222.467 433.177 222.486 432.73 222.524 432.21H227.141L227.142 432.208Z" fill="white"/>
<path d="M213.651 434.096C213.708 433.525 213.851 432.874 214.033 432.21H218.478C218.28 433.007 218.667 433.874 218.445 434.768C217.244 439.616 215.755 444.456 215.657 446.541C215.624 447.261 215.97 448.67 216.31 449.331C216.341 449.391 216.336 449.474 216.279 449.51C216.221 449.546 215.818 449.233 215.493 449.242C215.197 449.248 214.423 449.651 214.217 449.52C214.076 449.433 213.964 449.131 213.985 448.574C214.007 448.44 214.126 447.394 214.171 446.778C214.26 445.57 213.405 436.601 213.651 434.097V434.096Z" fill="white"/>
<path d="M226.939 390.848C229.236 394.325 229.033 399.985 229.49 401.447C230.163 403.599 229.815 412.598 229.788 413.292C229.772 413.694 228.104 413.747 227.834 413.629C227.025 413.274 227.431 406.911 227.146 405.013C226.896 403.358 226.972 399.758 226.802 398.884C226.322 396.418 226.939 390.85 226.939 390.85V390.848Z" fill="white"/>
<path d="M229.624 413.281C229.253 414.678 229.2 416.13 228.904 416.596C228.608 417.064 227.17 418.241 227.043 418.04C226.84 417.718 227.566 417.34 227.414 417.097C227.414 417.097 226.499 417.61 226.396 417.446C226.043 416.892 227.808 415.796 227.713 415.719C227.619 415.642 225.912 416.178 225.883 415.991C225.856 415.803 227.278 415.107 227.278 415.107C227.278 415.107 227.51 413.574 227.768 413.092C228.026 412.612 228.487 412.636 228.487 412.636C228.487 412.636 229.707 412.963 229.623 413.28L229.624 413.281Z" fill="white"/>
<path d="M227.299 435.585C227.268 436.244 222.517 436.036 222.377 435.04C222.007 432.391 221.603 418.342 221.603 418.342C221.603 418.342 219.113 431.121 218.471 435.864C218.373 436.592 213.388 435.682 213.45 435.052C213.694 432.583 214.391 417.94 215.76 410.064C216.29 407.012 219.768 403.883 219.783 402.744C219.783 402.744 224.562 401.858 225.984 402.744C226.753 405.35 227.106 407.374 227.481 411.129C228.322 419.564 227.404 433.375 227.299 435.584V435.585Z" fill="white"/>
<path d="M226.239 405.464C225.969 405.684 220.466 404.936 220.158 403.694C219.591 401.402 219.241 391.614 219.241 391.614L225.738 390.425C225.738 390.425 228.535 403.592 226.237 405.466L226.239 405.464Z" fill="white"/>
<path d="M223.921 386.826C222.608 386.996 222.113 387.664 221.707 386.268C221.248 384.689 218.635 383.175 219.376 380.662C219.873 378.978 221.334 378.455 222.698 378.455C224.132 378.455 225.565 379.451 225.976 380.703C226.209 381.412 225.868 382.391 225.691 383.149C225.648 383.333 225.429 386.63 223.921 386.826Z" fill="white"/>
<path d="M220.387 388.909C220.093 389.119 222.596 392.825 223.986 392.288C225.336 391.767 224.247 389.107 224.247 389.107C224.156 388.985 223.929 388.431 223.75 388.083C223.711 387.899 223.68 387.698 223.68 387.493C223.68 386.343 223.826 385.685 223.826 385.685L221.345 383.535L221.036 383.559C221.306 385.522 221.371 388.207 220.387 388.908V388.909Z" fill="white"/>
<path d="M223.75 388.083C223.71 387.899 223.679 387.698 223.679 387.493C223.679 386.342 223.826 385.685 223.826 385.685L221.516 384.342C221.399 385.959 222.584 387.836 223.748 388.083H223.75Z" fill="white"/>
<path d="M221.691 378.883C222.214 377.096 220.929 374.751 219.145 375.46C217.36 376.168 218.469 379.755 220.543 379.766C222.62 379.778 221.691 378.881 221.691 378.881V378.883Z" fill="white"/>
<path d="M221.813 378.174C221.813 378.174 221.823 378.09 221.844 377.942C221.851 377.868 221.87 377.78 221.872 377.674C221.872 377.567 221.872 377.447 221.872 377.316C221.861 377.185 221.841 377.046 221.823 376.896C221.808 376.822 221.786 376.748 221.767 376.672C221.744 376.597 221.731 376.516 221.694 376.442C221.663 376.366 221.631 376.289 221.6 376.21C221.565 376.132 221.517 376.06 221.474 375.984C221.452 375.946 221.431 375.909 221.407 375.872L221.325 375.769C221.266 375.704 221.221 375.625 221.151 375.57C221.085 375.509 221.022 375.447 220.953 375.391C220.879 375.341 220.805 375.293 220.733 375.244C220.578 375.164 220.422 375.086 220.256 375.054C220.215 375.043 220.176 375.033 220.136 375.024C220.096 375.016 220.055 375.017 220.016 375.012C219.935 375.009 219.857 374.995 219.782 375.002C219.63 375.017 219.486 375.024 219.36 375.069C219.297 375.088 219.235 375.102 219.18 375.124C219.126 375.15 219.075 375.174 219.027 375.198C218.978 375.22 218.934 375.243 218.892 375.263C218.854 375.289 218.82 375.313 218.787 375.334C218.662 375.42 218.591 375.47 218.591 375.47C218.571 375.484 218.565 375.511 218.579 375.532C218.593 375.551 218.619 375.556 218.639 375.544L218.645 375.54C218.645 375.54 218.715 375.497 218.841 375.42C218.872 375.401 218.906 375.38 218.944 375.358C218.985 375.341 219.028 375.324 219.075 375.305C219.121 375.286 219.171 375.265 219.223 375.243C219.276 375.226 219.334 375.217 219.395 375.2C219.513 375.16 219.646 375.158 219.787 375.15C219.857 375.146 219.928 375.162 220.002 375.167C220.038 375.172 220.076 375.172 220.112 375.181C220.148 375.191 220.184 375.201 220.22 375.212C220.37 375.244 220.511 375.317 220.652 375.391C220.717 375.435 220.784 375.482 220.852 375.527C220.912 375.58 220.97 375.638 221.03 375.693C221.094 375.745 221.135 375.819 221.189 375.879L221.264 375.976L221.326 376.081C221.366 376.151 221.412 376.216 221.445 376.289C221.476 376.363 221.507 376.435 221.538 376.505C221.598 376.648 221.626 376.798 221.667 376.934C221.689 377.075 221.715 377.207 221.731 377.331C221.737 377.455 221.743 377.569 221.748 377.67C221.753 377.772 221.741 377.863 221.739 377.937C221.732 378.086 221.729 378.171 221.729 378.171C221.729 378.195 221.746 378.216 221.772 378.217C221.796 378.217 221.815 378.202 221.818 378.178L221.813 378.174Z" fill="white"/>
<path d="M221.259 379.287C221.259 379.287 221.173 379.286 221.025 379.282C220.988 379.282 220.946 379.282 220.902 379.281C220.857 379.281 220.805 379.291 220.752 379.298C220.645 379.311 220.521 379.324 220.398 379.37C220.334 379.391 220.269 379.41 220.201 379.434C220.138 379.466 220.071 379.501 220.004 379.535C219.933 379.566 219.873 379.618 219.809 379.668C219.747 379.719 219.677 379.764 219.625 379.829C219.57 379.891 219.508 379.951 219.457 380.02C219.41 380.093 219.362 380.165 219.314 380.239C219.235 380.394 219.159 380.555 219.118 380.727C219.092 380.812 219.068 380.896 219.058 380.984C219.046 381.07 219.027 381.156 219.02 381.242C219.011 381.414 218.999 381.582 219.018 381.746C219.023 381.909 219.056 382.064 219.08 382.212C219.104 382.36 219.15 382.492 219.181 382.62C219.218 382.744 219.267 382.854 219.302 382.952C219.336 383.052 219.381 383.132 219.414 383.199C219.479 383.335 219.517 383.413 219.517 383.413C219.527 383.435 219.555 383.444 219.577 383.433C219.598 383.423 219.608 383.397 219.599 383.377V383.373C219.599 383.373 219.565 383.296 219.508 383.16C219.481 383.091 219.441 383.012 219.414 382.912C219.384 382.814 219.343 382.706 219.312 382.584C219.286 382.46 219.245 382.331 219.226 382.188C219.207 382.045 219.18 381.895 219.181 381.741C219.168 381.584 219.181 381.424 219.19 381.261C219.195 381.18 219.216 381.099 219.228 381.018C219.238 380.935 219.261 380.856 219.286 380.779C219.326 380.619 219.402 380.473 219.47 380.328C219.513 380.261 219.556 380.194 219.598 380.127C219.644 380.063 219.699 380.01 219.749 379.951C219.796 379.89 219.859 379.85 219.914 379.802C219.971 379.755 220.026 379.709 220.088 379.678C220.148 379.644 220.208 379.609 220.265 379.576C220.325 379.551 220.387 379.532 220.444 379.509C220.558 379.459 220.669 379.447 220.767 379.425C220.817 379.416 220.862 379.403 220.905 379.399C220.95 379.398 220.991 379.394 221.029 379.392C221.179 379.384 221.263 379.379 221.263 379.379C221.287 379.379 221.306 379.356 221.304 379.332C221.304 379.308 221.283 379.291 221.261 379.291L221.259 379.287Z" fill="white"/>
<path d="M225.968 384.323C225.887 385.759 225.161 386.693 224.6 386.852C223.048 387.287 221.573 385.832 221.077 383.757C221.057 383.445 221.089 383.124 221.156 382.804C221.32 382.921 221.793 383.069 222.099 382.589C222.452 382.038 222.452 380.755 222.959 380.543C223.876 381.918 225.19 380.426 225.756 381.539C225.888 381.959 225.825 382.649 225.921 383.306C225.974 383.667 225.986 384.008 225.969 384.323H225.968Z" fill="white"/>
<path d="M224.113 384.11C224.113 383.788 223.779 383.528 223.366 383.528C222.953 383.528 222.62 383.788 222.62 384.11C222.62 384.431 222.953 384.691 223.366 384.691C223.779 384.691 224.113 384.431 224.113 384.11Z" fill="white"/>
<path d="M225.967 384.323C225.725 384.228 225.556 384.03 225.556 383.805C225.556 383.593 225.702 383.409 225.919 383.306C225.972 383.667 225.985 384.008 225.967 384.323Z" fill="white"/>
<path d="M222.958 380.543C223.875 381.918 225.189 380.426 225.753 381.539C225.15 380.889 223.808 382.248 222.953 380.547C222.955 380.547 222.956 380.545 222.958 380.543Z" fill="white"/>
<path d="M222.099 382.589C222.316 382.252 222.398 381.637 222.548 381.164C222.46 381.871 222.479 382.633 222.034 382.948C221.604 383.251 221.358 382.964 221.191 382.828C221.38 382.94 221.812 383.039 222.099 382.59V382.589Z" fill="white"/>
<path d="M220.377 382.681C219.988 383.117 220.981 384.809 221.268 383.726C221.388 383.268 221.342 383.005 221.129 382.781C220.85 382.489 220.509 382.533 220.377 382.683V382.681Z" fill="white"/>
<path d="M220.544 382.933C220.68 382.883 220.922 382.946 220.943 383.246C220.948 383.325 220.878 383.345 220.898 383.425C220.912 383.474 220.998 383.524 221.038 383.53" fill="white"/>
<path d="M220.544 382.933C220.68 382.883 220.922 382.946 220.943 383.246C220.948 383.325 220.878 383.345 220.898 383.425C220.912 383.474 220.998 383.524 221.038 383.53" stroke="white" stroke-width="0.69" stroke-linecap="round" stroke-linejoin="round"/>
<path d="M220.654 383.179C220.697 383.051 220.872 383.037 220.922 383.139L220.654 383.179Z" fill="white"/>
<path d="M220.654 383.179C220.697 383.051 220.872 383.037 220.922 383.139" stroke="white" stroke-width="0.69" stroke-linecap="round" stroke-linejoin="round"/>
<path d="M213.966 414.678C213.734 414.415 214.341 412.125 214.474 411.492C214.988 409.044 216.056 407.116 216.106 406.787C216.106 406.782 212.392 404.062 212.026 402.354C211.689 400.776 214.778 393.009 216.287 391.202C216.921 390.442 219.237 389.181 219.538 388.961C219.957 388.653 220.96 387.681 221.05 387.954C221.05 387.954 223.706 394.678 223.828 397.54C223.857 398.223 222.391 415.203 222.123 415.595C221.702 416.213 214.274 415.028 213.966 414.678ZM217.677 400.938C217.549 399.684 217.143 398.397 217.143 398.397C217.001 398.45 215.867 401.777 215.867 401.777L217.412 402.985C217.412 402.985 217.804 402.19 217.677 400.936V400.938Z" fill="white"/>
<path d="M228.752 414.678C228.627 415.464 225.775 415.705 225.689 415.55C225.25 414.75 225.668 408.179 225.651 405.689C225.632 402.851 225.928 400.148 225.99 397.236C226.055 394.139 223.905 389.085 223.75 388.083C223.896 387.937 224.194 388.589 224.522 388.88C224.854 389.174 226.485 390.194 226.939 390.848C228.682 393.358 227.185 400.301 227.477 402.352C227.834 404.853 228.814 414.296 228.752 414.676V414.678Z" fill="white"/>
<path d="M227.752 415.339C227.348 415.439 226.127 415.659 225.688 415.55C225.25 415.442 225.571 409.023 225.571 409.023" fill="white"/>
<path d="M227.752 415.339C227.348 415.439 226.127 415.659 225.688 415.55C225.25 415.442 225.571 409.023 225.571 409.023" stroke="white" stroke-width="0.5" stroke-linecap="round" stroke-linejoin="round"/>
<path d="M222.511 412.824C222.446 413.271 222.305 415.239 222.122 415.595C221.94 415.951 217.253 415.504 215.216 415.036" fill="white"/>
<path d="M222.511 412.824C222.446 413.271 222.305 415.239 222.122 415.595C221.94 415.951 217.253 415.504 215.216 415.036" stroke="white" stroke-width="0.5" stroke-linecap="round" stroke-linejoin="round"/>
<path d="M226.879 392.563C226.754 392.858 226.733 393.458 226.862 394.034C226.96 394.471 227.717 395.488 227.775 396.185C227.853 397.083 227.593 397.788 227.318 398.359C227.055 398.908 228.46 410.095 228.634 413.454" fill="white"/>
<path d="M226.879 392.563C226.754 392.858 226.733 393.458 226.862 394.034C226.96 394.471 227.717 395.488 227.775 396.185C227.853 397.083 227.593 397.788 227.318 398.359C227.055 398.908 228.46 410.095 228.634 413.454" stroke="white" stroke-width="0.5" stroke-linecap="round" stroke-linejoin="round"/>
<path d="M219.498 389.133C219.88 390.523 220.021 392.245 220.153 392.353C220.248 392.429 221.013 391.906 221.096 391.99C221.18 392.078 220.533 393.48 220.587 393.621C220.637 393.754 223.574 396.933 223.721 398.075" fill="white"/>
<path d="M219.498 389.133C219.88 390.523 220.021 392.245 220.153 392.353C220.248 392.429 221.013 391.906 221.096 391.99C221.18 392.078 220.533 393.48 220.587 393.621C220.637 393.754 223.574 396.933 223.721 398.075" stroke="white" stroke-width="0.5" stroke-linecap="round" stroke-linejoin="round"/>
<path d="M225.18 389.522C225.458 390.072 225.95 391.653 225.93 391.741C225.909 391.83 225.283 391.614 225.283 391.614C225.283 391.614 225.942 392.706 226.017 392.828C226.181 393.093 226.344 396.706 225.983 397.592" fill="white"/>
<path d="M225.18 389.522C225.458 390.072 225.95 391.653 225.93 391.741C225.909 391.83 225.283 391.614 225.283 391.614C225.283 391.614 225.942 392.706 226.017 392.828C226.181 393.093 226.344 396.706 225.983 397.592" stroke="white" stroke-width="0.5" stroke-linecap="round" stroke-linejoin="round"/>
<path d="M217.141 398.397C217.569 397.296 218.541 395.785 218.705 395.194L217.141 398.397Z" fill="white"/>
<path d="M217.141 398.397C217.569 397.296 218.541 395.785 218.705 395.194" stroke="white" stroke-width="0.5" stroke-linecap="round" stroke-linejoin="round"/>
<path d="M221.199 414.266L215.396 409.604L221.812 401.618L227.614 406.28L221.199 414.266Z" fill="white"/>
<path d="M222.512 403.599L225.367 405.894" stroke="white" stroke-width="1.38" stroke-linecap="round" stroke-linejoin="round"/>
<path d="M218.091 403.443C219.059 404.318 222.476 406.806 222.641 407.269C222.732 407.523 221.146 409.314 220.768 409.455C220.441 409.577 215.597 406.696 215.514 406.049C215.432 405.402 218.089 403.443 218.089 403.443H218.091Z" fill="white"/>
<path d="M219.412 404.49C218.705 403.854 218.127 403.444 217.561 402.985L219.412 404.49Z" fill="white"/>
<path d="M219.412 404.49C218.705 403.854 218.127 403.444 217.561 402.985" stroke="white" stroke-width="0.5" stroke-linecap="round" stroke-linejoin="round"/>
<path d="M224.063 411.129C223.807 411.177 223.73 410.138 223.652 410.019C223.597 409.939 221.93 409.207 221.641 408.884C221.204 408.399 222.197 407.272 222.4 407.451C222.618 407.642 224.959 409.656 225.054 409.844C225.142 410.016 225.094 410.783 225.063 410.785C224.903 410.797 224.851 410.121 224.765 410.095C224.734 410.097 224.462 411.053 224.063 411.127V411.129Z" fill="white"/>
<path d="M224.261 410.997C224.261 410.997 224.299 410.907 224.347 410.771C224.391 410.634 224.453 410.45 224.49 410.255C224.508 410.159 224.524 410.061 224.524 409.959C224.524 409.934 224.522 409.908 224.515 409.879V409.868L224.512 409.86V409.856L224.505 409.841C224.502 409.83 224.495 409.811 224.488 409.799C224.464 409.751 224.429 409.717 224.4 409.688C224.34 409.632 224.288 409.603 224.252 409.579C224.218 409.557 224.197 409.545 224.197 409.545C224.176 409.531 224.147 409.538 224.135 409.559C224.125 409.574 224.127 409.593 224.135 409.608C224.135 409.608 224.149 409.631 224.178 409.663C224.206 409.696 224.249 409.741 224.288 409.789C224.307 409.813 224.323 409.842 224.333 409.868L224.338 409.885L224.342 409.901V409.904V409.909C224.345 409.923 224.343 409.942 224.345 409.961C224.345 410.04 224.328 410.133 224.312 410.224C224.276 410.41 224.24 410.598 224.213 410.737C224.187 410.878 224.171 410.974 224.171 410.974C224.168 410.998 224.183 411.023 224.209 411.026C224.23 411.029 224.25 411.017 224.257 410.998L224.261 410.997Z" fill="white"/>
<path d="M224.075 411.024C224.075 411.024 224.099 410.94 224.123 410.808C224.144 410.677 224.17 410.501 224.175 410.322C224.177 410.233 224.178 410.144 224.168 410.056C224.163 410.011 224.158 409.97 224.137 409.916C224.122 409.882 224.111 409.872 224.099 409.855C224.087 409.837 224.075 409.825 224.061 409.812C223.962 409.707 223.864 409.676 223.864 409.676C223.84 409.669 223.814 409.682 223.807 409.707C223.802 409.724 223.807 409.739 223.817 409.751C223.817 409.751 223.872 409.81 223.938 409.911C223.944 409.923 223.953 409.937 223.962 409.951C223.969 409.963 223.981 409.984 223.979 409.984C223.984 410.001 223.991 410.039 223.994 410.075C224 410.15 224.001 410.235 224.001 410.321C224.001 410.491 223.998 410.665 223.993 410.796C223.991 410.926 223.989 411.014 223.989 411.014C223.989 411.038 224.008 411.059 224.034 411.06C224.055 411.06 224.072 411.047 224.079 411.028L224.075 411.024Z" fill="white"/>
<path d="M224.81 410.09C224.81 410.09 224.822 410.057 224.823 410.006C224.827 409.956 224.822 409.884 224.789 409.813C224.78 409.796 224.773 409.781 224.761 409.763C224.751 409.748 224.739 409.732 224.727 409.719C224.703 409.693 224.675 409.672 224.651 409.658C224.603 409.631 224.565 409.626 224.565 409.626C224.539 409.622 224.514 409.639 224.51 409.667C224.509 409.679 224.51 409.691 224.519 409.701C224.519 409.701 224.538 409.729 224.56 409.763C224.584 409.798 224.607 409.842 224.627 409.887C224.648 409.939 224.67 409.99 224.686 410.03C224.703 410.073 224.722 410.102 224.722 410.102C224.736 410.125 224.767 410.131 224.789 410.118C224.799 410.111 224.806 410.102 224.81 410.092V410.09Z" fill="white"/>
<path d="M222.369 407.368C221.8 407.651 221.029 408.542 220.756 409.154L222.369 407.368Z" fill="white"/>
<path d="M222.369 407.368C221.8 407.651 221.029 408.542 220.756 409.154" stroke="white" stroke-width="1.38" stroke-linecap="round" stroke-linejoin="round"/>
<path d="M216.211 406.909C216.371 407.025 216.682 407.216 217.076 407.432L216.211 406.909Z" fill="white"/>
<path d="M216.211 406.909C216.371 407.025 216.682 407.216 217.076 407.432" stroke="white" stroke-width="0.5" stroke-linecap="round" stroke-linejoin="round"/>
</g>
<defs>
<clipPath id="clip0_4_2">
<rect width="390" height="844" rx="30" fill="white"/>
</clipPath>
</defs>
</svg>
